<svg width="328" height="12" viewBox="0 0 328 12" fill="none" xmlns="http://www.w3.org/2000/svg">
<path d="M1.09155 8.51914C2.19736 7.00177 5.37342 6.62299 7.79534 6.66781C10.8735 6.72609 13.6399 7.42314 16.2394 8.39811C19.1834 9.50308 22.0114 10.8277 25.3144 11.5068C28.4506 12.1501 31.5396 11.9237 34.5017 11.0787C39.9184 9.52997 44.6898 6.13214 51.205 7.03315C57.3178 7.87812 61.9188 11.4777 68.6008 10.9173C74.5867 10.4175 79.0462 7.51055 84.7385 6.51541C91.1885 5.38578 95.7604 8.10674 100.67 10.2046C102.954 11.1818 105.513 12.0402 108.37 11.9999C111.082 11.9618 113.537 11.1325 115.672 10.162C120.117 8.14484 124.457 5.05183 130.559 6.19266C136.03 7.2147 139.547 10.4422 144.931 11.5853C150.852 12.8404 155.699 10.2539 160.242 8.29949C162.639 7.26849 165.224 6.29576 168.211 6.17921C171.116 6.0649 173.893 6.73057 176.431 7.5352C181.195 9.04585 186.253 11.6816 191.967 11.1572C198.09 10.5968 201.756 6.12766 208.115 6.28231C211.375 6.363 214.09 7.68313 216.646 8.79258C219.605 10.0769 222.676 11.0429 226.309 11.3253C229.767 11.592 233.317 11.2715 236.515 10.4153C239.691 9.56359 242.153 8.01036 245.227 7.05332C251.572 5.07648 256.238 8.54155 261.292 10.3503C266.303 12.1433 270.965 11.1527 275.345 9.17136C279.163 7.44331 283.405 4.52512 288.579 4.78063C294.514 5.07424 296.784 9.15567 301.341 10.9061C306.729 12.9749 312.526 10.5744 317.272 8.94051C319.955 8.01709 322.714 7.16763 325.825 7.02643C327.649 6.9435 328.276 2.2457 327.888 2.26363C321.561 2.55276 316.975 5.55836 311.108 6.65885C308.331 7.17883 305.456 7.01522 303.03 5.99318C300.609 4.97114 298.948 3.42687 296.929 2.1426C295.079 0.959186 292.839 0.0133505 290.087 -9.73647e-05C287.781 -0.0113039 285.584 0.620747 283.681 1.37159C279.399 3.06154 275.584 5.9618 270.371 6.52885C264.225 7.19676 260.186 3.7048 255.165 2.25242C248.24 0.25093 243.672 4.3234 237.842 5.81836C234.535 6.66557 230.772 6.85609 227.262 6.45265C223.651 6.03801 220.769 4.91735 217.817 3.63307C215.134 2.46759 212.154 1.24832 208.713 1.56658C205.74 1.84226 203.322 3.05257 201.005 4.14185C198.54 5.30061 195.958 6.43024 192.735 6.45489C189.965 6.4773 187.344 5.77577 184.94 4.99131C180.038 3.39101 174.832 0.804535 168.926 1.52176C163.005 2.24122 159.223 5.52923 153.712 6.77988C147.636 8.15829 142.796 5.40147 138.235 3.33722C136.07 2.35777 133.688 1.40745 130.965 1.20349C128.188 0.995046 125.567 1.66296 123.297 2.60207C118.758 4.48029 114.548 7.88485 108.432 7.12056C102.526 6.38093 98.8458 2.82844 93.1645 1.74365C87.2112 0.607299 81.8271 3.13774 76.8419 4.7627C74.1335 5.64578 71.2149 6.3742 68.0968 6.17921C64.9425 5.98197 62.1798 4.91511 59.486 3.96479C56.7522 2.99878 53.83 2.01933 50.5814 2.10898C47.6048 2.18967 44.8819 3.10636 42.4201 4.06565C39.7734 5.09665 37.1593 6.34282 34.1065 6.88074C30.6876 7.48365 27.3411 6.89867 24.292 5.89232C18.8571 4.09927 13.745 1.11832 7.06296 2.05295C4.40537 2.42501 2.58893 3.44032 1.47586 4.96666C0.703603 6.00887 0.0691178 7.1878 0.000230759 8.33759C-0.0432768 9.11085 0.449809 9.3955 1.09155 8.51914Z" fill="#45BFDB"/>
</svg>
