<svg width="22" height="27" viewBox="0 0 22 27" fill="none" xmlns="http://www.w3.org/2000/svg">
<mask id="mask0_726_11065" style="mask-type:luminance" maskUnits="userSpaceOnUse" x="0" y="0" width="22" height="27">
<path d="M22 0H0V26.985H22V0Z" fill="white"/>
</mask>
<g mask="url(#mask0_726_11065)">
<path d="M16.1921 0H16.3841C16.452 0.786808 16.358 1.5792 16.1077 2.32824C15.8575 3.07728 15.4563 3.76706 14.9291 4.355C14.4804 4.9779 13.8803 5.47602 13.1854 5.8022C12.4905 6.12838 11.7239 6.27184 10.9581 6.219C10.9019 5.45175 11.0044 4.68115 11.2592 3.95527C11.514 3.22939 11.9157 2.5638 12.4391 2C13.4255 0.925042 14.7497 0.219399 16.1921 0Z" fill="#130D0C"/>
<path d="M22 19.808V19.861C21.4813 21.4129 20.7231 22.8742 19.753 24.192C18.896 25.371 17.846 26.958 15.972 26.958C14.352 26.958 13.272 25.916 11.616 25.888C9.86 25.86 8.894 26.759 7.289 26.988H6.741C5.59561 26.7015 4.59254 26.0103 3.917 25.042C1.60579 22.2695 0.234267 18.8349 0 15.233L0 14.025C0.00693057 12.7443 0.324801 11.4845 0.926281 10.3538C1.52776 9.22312 2.39485 8.25545 3.453 7.53399C4.60943 6.77765 5.99687 6.45657 7.368 6.62799C8.0243 6.74592 8.66693 6.9302 9.286 7.17799C9.88268 7.48966 10.5333 7.6848 11.203 7.75299C11.6698 7.68574 12.1234 7.54712 12.548 7.34199C13.8948 6.70067 15.3898 6.43531 16.875 6.57399C17.7593 6.65856 18.6138 6.93845 19.3768 7.39344C20.1398 7.84844 20.7922 8.46717 21.287 9.20499C20.3054 9.74978 19.508 10.5741 18.9961 11.5732C18.4842 12.5723 18.2809 13.7011 18.412 14.816C18.4822 15.9007 18.8558 16.9438 19.4902 17.8265C20.1246 18.7091 20.9943 19.3957 22 19.808Z" fill="#130D0C"/>
</g>
</svg>
