<svg width="38" height="30" viewBox="0 0 38 30" fill="none" xmlns="http://www.w3.org/2000/svg">
<path d="M6.36709 18.3942C6.89993 17.8944 7.16356 17.4452 7.17219 17.0251C7.17838 16.7361 7.06076 16.4784 6.82382 16.2595C6.59564 16.0496 6.24911 15.9784 5.89602 16.07C4.78703 16.3592 3.82719 17.3484 3.0561 18.1439L2.74998 18.4575C2.11294 19.1012 1.46352 19.8411 1.48335 20.4489C1.49913 20.962 1.72366 21.1618 1.9095 21.2386C2.70084 21.5669 4.29573 20.1545 4.76534 19.714C4.9126 19.5759 5.13907 19.3986 5.40155 19.1922C5.63548 19.0092 5.893 18.8066 6.14172 18.5952C6.22187 18.5273 6.29656 18.4604 6.36709 18.3942Z" fill="#45BFDB"/>
<path d="M31.2639 18.3942C30.731 17.8944 30.4674 17.4452 30.4587 17.0251C30.4526 16.7361 30.5702 16.4784 30.8071 16.2595C31.0353 16.0496 31.3818 15.9784 31.7349 16.07C32.8439 16.3592 33.8037 17.3484 34.5748 18.1439L34.881 18.4575C35.518 19.1012 36.1674 19.8411 36.1476 20.4489C36.1318 20.962 35.9073 21.1618 35.7215 21.2386C34.9301 21.5669 33.3352 20.1545 32.8656 19.714C32.7183 19.5759 32.4919 19.3986 32.2294 19.1922C31.9955 19.0092 31.7379 18.8066 31.4892 18.5952C31.409 18.5273 31.3345 18.4604 31.2639 18.3942Z" fill="#45BFDB"/>
<path d="M2.97402 2.79548C2.99471 2.81258 3.01487 2.82884 3.03472 2.84402L3.29084 3.05042C4.14342 3.74851 5.91673 5.20182 6.81447 4.11549C6.94268 3.96034 6.99429 3.76858 6.96459 3.56104C6.85831 2.83479 5.74408 1.99335 5.08899 1.55643L5.03998 1.52363C4.97111 1.47764 4.89611 1.42781 4.81795 1.37738C4.81477 1.37192 4.81582 1.36672 4.81225 1.36174L4.79103 1.31344L4.74716 1.33224C4.30728 1.05132 3.75661 0.749677 3.26842 0.776579C2.69817 0.807736 2.35513 0.997496 2.24916 1.3398C2.09253 1.84677 2.57756 2.46784 2.97402 2.79548Z" fill="#45BFDB"/>
<path d="M34.6572 2.79548C34.6365 2.81258 34.6163 2.82884 34.5965 2.84402L34.3403 3.05042C33.4877 3.74851 31.7144 5.20182 30.8167 4.11549C30.6885 3.96034 30.6369 3.76858 30.6666 3.56104C30.7729 2.83479 31.8871 1.99335 32.5422 1.55643L32.5912 1.52363C32.6601 1.47764 32.7351 1.42781 32.8132 1.37738C32.8164 1.37192 32.8154 1.36672 32.8189 1.36174L32.8402 1.31344L32.884 1.33224C33.3239 1.05132 33.8746 0.749677 34.3628 0.776579C34.933 0.807736 35.276 0.997496 35.382 1.3398C35.5386 1.84677 35.0536 2.46784 34.6572 2.79548Z" fill="#45BFDB"/>
<path d="M1.53012 11.6425C1.55686 11.6448 1.58269 11.6468 1.60764 11.648L1.93566 11.6726C3.03382 11.7636 5.31867 11.9538 5.44133 10.5498C5.45884 10.3493 5.3925 10.1622 5.25026 10.0081C4.75061 9.47052 3.35567 9.41003 2.56832 9.42203L2.50936 9.42289C2.42656 9.42411 2.33652 9.42564 2.24355 9.42846C2.23783 9.42577 2.23575 9.42087 2.22998 9.41879L2.1851 9.39111L2.15964 9.43146C1.63804 9.44977 1.01345 9.51393 0.62676 9.81313C0.174921 10.1624 0.000161402 10.5134 0.107173 10.8554C0.265924 11.3616 1.01775 11.5978 1.53012 11.6425Z" fill="#45BFDB"/>
<path d="M36.101 11.6425C36.0743 11.6448 36.0484 11.6468 36.0235 11.648L35.6954 11.6726C34.5973 11.7636 32.3125 11.9538 32.1898 10.5498C32.1723 10.3493 32.2386 10.1622 32.3808 10.0081C32.8805 9.47052 34.2754 9.41003 35.0628 9.42203L35.1217 9.42289C35.2045 9.42411 35.2946 9.42564 35.3876 9.42846C35.3933 9.42577 35.3954 9.42087 35.4011 9.41879L35.446 9.39111L35.4715 9.43146C35.9931 9.44977 36.6176 9.51393 37.0043 9.81313C37.4562 10.1624 37.631 10.5134 37.5239 10.8554C37.3652 11.3616 36.6134 11.5978 36.101 11.6425Z" fill="#45BFDB"/>
<path d="M29.8534 8.26971C29.8201 7.84586 29.6214 7.01112 29.6017 6.94488C29.5355 6.74626 29.4228 6.34892 29.3963 6.28267C29.2968 6.01777 29.0916 5.48799 29.0916 5.42144C29.0784 5.39495 29.0254 5.35521 28.9921 5.29546C28.8397 5.01732 28.4953 4.494 28.4623 4.43423C27.1773 2.18874 25.5743 1.95037 23.2695 1.42702C22.4945 1.24807 21.7196 1.06941 20.9382 0.897225C20.554 0.804507 19.7526 0.784486 19.6864 0.784486C19.0438 0.784486 17.7656 0.652039 17.7656 0.652039L17.9642 0.612305C16.9838 0.810972 15.944 0.585815 14.9173 0.850707C11.6388 1.69191 9.0221 4.54015 8.42614 7.87169C8.08824 9.75269 7.9293 12.6274 9.28059 14.204C10.1017 15.1511 10.5721 15.7338 11.4731 16.4627C11.8374 16.7608 12.7979 16.9463 12.8641 16.9728C13.1423 17.0723 13.7254 17.2112 13.7186 17.2774C13.5655 18.6521 13.4315 20.0557 13.6108 21.4348C13.6952 22.0831 13.8335 22.9856 14.1861 23.5496C14.4593 23.9857 14.7184 24.1142 15.2001 24.1142H21.1058C21.606 24.1142 21.9806 24.0615 22.2831 23.6469C22.3551 23.548 22.5929 22.5433 22.6668 22.5433C22.7199 22.4703 22.6668 22.2285 22.6801 22.1623C22.8258 21.2681 22.9317 19.4218 22.9317 19.3556C22.9583 18.8058 22.998 17.6874 23.0642 17.6674C26.2833 16.5745 28.7736 15.6874 29.8203 12.0509C30.1647 10.8589 29.9393 9.45526 29.8534 8.26971Z" fill="#45BFDB"/>
<path d="M19.6965 26.2397C19.2884 26.2388 18.8805 26.3214 18.473 26.3214H16.379C15.6266 26.3214 15.2373 26.3356 15.1756 27.2664C14.9772 30.293 17.2621 29.8931 19.7524 29.9926C20.0771 30.0058 20.6534 30.0179 20.9448 29.8522C21.7694 29.3828 22.1153 27.9283 22.0589 27.0597C22.013 26.3562 21.8452 26.1951 21.1589 26.2003C20.6713 26.2041 20.1841 26.2407 19.6965 26.2397Z" fill="#45BFDB"/>
</svg>
