<svg width="30" height="30" viewBox="0 0 30 30" fill="none" xmlns="http://www.w3.org/2000/svg">
<g clip-path="url(#clip0_726_11154)">
<path d="M29.3659 11.2779C28.3088 9.92837 25.7295 10.8816 25.3701 12.1454C25.6872 13.2272 25.7824 13.088 26.5752 13.8912C27.368 14.6945 27.4526 15.0051 28.5308 15.3264C29.683 14.898 30.7084 12.3704 29.3765 11.2886L29.3659 11.2779Z" fill="#45BFDB"/>
<path d="M24.0063 13.5703C22.6215 13.7845 21.9238 15.2519 20.8033 16.4193C17.3995 19.9323 16.8287 21.9245 17.5687 22.8456C18.3086 23.7667 20.5602 23.3597 21.0887 22.8134C21.6173 22.2672 23.8583 19.8466 25.6131 18.2079C26.3742 17.4368 26.5222 17.5867 27.1775 16.7192C27.4312 16.3765 26.7124 15.6374 26.0148 14.877C25.2114 14.0094 25.1374 13.5917 24.0169 13.5703H24.0063Z" fill="#45BFDB"/>
<path d="M15.6449 19.718C17.7379 16.8583 19.0804 15.9158 20.8986 13.7523C22.2305 12.1992 24.0698 10.9461 25.6449 9.60732C27.2199 4.14498 24.9578 0.781896 20.3594 0.674791C15.7611 0.567687 4.80976 -1.43517 1.88164 2.04573C-0.729354 4.42345 0.148025 9.91792 0.126883 17.0404C0.105742 24.1628 -0.803349 29.0468 7.26219 29.4859C15.3277 29.9251 25.37 31.8101 25.6977 23.97C25.7506 22.6848 26.258 20.1678 25.37 21.0996C24.4821 22.0315 25.3489 21.3781 22.0296 24.1521C18.7104 26.9261 13.5518 22.5777 15.6449 19.718ZM6.12054 5.43024C9.67234 5.37668 12.6956 5.698 16.2685 5.79439C17.8542 6.05144 20.1057 4.46629 20.6554 6.6191C20.7823 8.7719 11.2791 7.55091 9.51378 7.63659C7.82244 7.63659 7.82244 7.81867 6.13111 7.81867C4.68291 7.70085 4.66177 5.55876 6.13111 5.44095L6.12054 5.43024ZM13.3193 17.2439C11.6174 16.9118 5.47572 18.0043 5.30659 16.055C5.71885 13.9129 8.11843 15.4017 9.72519 15.0482C11.5222 15.0482 11.5222 14.984 13.3298 14.984C14.8203 15.0482 14.7252 17.1261 13.3298 17.2439H13.3193ZM6.12054 12.5206C4.77805 12.4135 4.5772 10.3785 6.12054 10.3785C7.81187 10.3785 7.81187 10.507 9.50321 10.507C11.1523 10.5713 21.0888 9.286 20.8034 11.3317C20.2326 13.5916 17.9387 12.1243 16.2791 12.3492C12.7273 12.5741 9.69348 12.5206 6.13111 12.5206H6.12054Z" fill="#45BFDB"/>
</g>
<defs>
<clipPath id="clip0_726_11154">
<rect width="30" height="30" fill="white"/>
</clipPath>
</defs>
</svg>
