<svg width="29" height="29" viewBox="0 0 29 29" fill="none" xmlns="http://www.w3.org/2000/svg">
<g clip-path="url(#clip0_726_11158)">
<path d="M28.3366 6.04663C27.7921 3.6201 25.1881 1.69663 22.7426 1.22316C21.2574 0.927246 14.3168 -0.572073 7.88119 0.226906C1.44554 1.02589 1.0099 3.6201 0.465347 6.04663C0.158416 7.52623 0 9.56806 0 12.3102C0 15.0524 0.574257 17.0055 0.881188 18.4851C1.42574 20.9116 3.51485 23.4466 5.9604 23.9201C6.76238 24.0779 8.38614 24.0483 10.099 24.1766C10.297 24.4823 10.4554 24.798 10.6832 25.1432C11.5941 26.5143 12.2376 27.5204 12.7723 28.1912C13.6535 29.3058 15.099 29.2565 15.9802 28.1419C16.5049 27.4711 17.0792 26.4255 17.9901 25.0446C18.2178 24.6994 18.5644 24.6994 18.7624 24.3936C20.4752 24.2653 22.0396 24.0187 22.8416 23.8609C25.2871 23.3875 27.5842 20.9511 28.1287 18.5245C28.4356 17.0449 29.0099 15.0524 29.0099 12.3102C29.0099 9.56806 28.6832 7.54595 28.3762 6.07623C28.3762 5.97759 28.3465 6.04663 28.3465 6.04663H28.3366ZM15.7921 20.5861C15.099 21.7599 13.604 21.5034 13.1683 21.0596C12.7327 20.6157 12.4653 19.5602 12.703 18.9783C12.9406 18.3963 13.5644 17.9721 14.5842 18.1497C15.604 18.3272 16.4851 19.4123 15.802 20.5861H15.7921ZM19.2376 11.3534C18.802 11.965 18.3168 12.7048 17.3564 13.2966C16.1386 14.0463 15.7426 14.1745 15.7228 15.5949C15.703 17.0153 12.8218 16.8181 12.901 15.1116C12.901 14.8354 13.2079 12.5371 15.099 11.3337C16.5149 10.4262 16.8713 9.96262 16.8713 9.33133C16.7525 7.22044 13.0792 7.56568 12.7624 9.5582C12.6535 10.1895 12 12.1721 10.2871 10.6926C8.57426 9.21296 11.0099 5.26738 15.0594 5.17861C18.4356 5.10956 21.4554 8.47316 19.2475 11.3633L19.2376 11.3534Z" fill="#45BFDB"/>
</g>
<defs>
<clipPath id="clip0_726_11158">
<rect width="29" height="29" fill="white"/>
</clipPath>
</defs>
</svg>
