<svg width="30" height="30" viewBox="0 0 30 30" fill="none" xmlns="http://www.w3.org/2000/svg">
<g clip-path="url(#clip0_726_11160)">
<path fill-rule="evenodd" clip-rule="evenodd" d="M29.9888 10.9907C30.1107 12.274 29.3462 13.4148 28.0501 13.4148C23.0427 13.4148 23.0427 13.1515 18.0464 13.1515C17.3928 13.1515 17.1047 12.7567 17.1047 12.1095C17.1047 7.15155 17.0161 7.15155 17.0161 2.20457C17.0161 0.921202 17.9467 -0.197628 19.2318 0.0327189C20.2067 0.197253 21.1594 0.482445 22.0789 0.855388C23.7185 1.52449 25.2694 2.48976 26.5213 3.72925C27.7731 4.96873 29.6786 7.54643 30.0109 10.9907H29.9888ZM28.0501 18.5373C28.2606 17.2649 26.9866 16.3216 25.6904 16.3216C20.3728 16.3216 20.3728 16.0583 15.0442 16.0583C14.4127 16.0583 14.1247 15.6744 14.1025 15.0492C13.881 9.78409 13.7923 9.78409 13.5818 4.52998C13.5265 3.24661 12.2968 2.27038 11.0228 2.5446C9.10622 2.95045 7.28938 3.72925 5.68303 4.88098C3.43414 6.48244 1.78347 8.70914 0.797505 11.2649C-0.188462 13.8316 -0.133071 16.519 0.287904 19.2283C1.26279 25.4916 6.08185 28.5519 10.059 29.3856C14.0361 30.2192 16.9607 30.2411 19.5087 29.1662C22.0567 28.0912 24.1395 26.1497 25.6572 23.8682C26.7539 22.2338 27.7288 20.4569 28.0501 18.5373Z" fill="#45BFDB"/>
</g>
<defs>
<clipPath id="clip0_726_11160">
<rect width="30" height="30" fill="white"/>
</clipPath>
</defs>
</svg>
