<svg width="38" height="24" viewBox="0 0 38 24" fill="none" xmlns="http://www.w3.org/2000/svg">
<g clip-path="url(#clip0_726_11162)">
<path d="M5.87347 5.18579C6.30222 5.63016 7.00153 5.63016 7.43443 5.18579L10.5564 1.95013C10.9851 1.50576 10.9851 0.780976 10.5564 0.332297C10.1276 -0.112068 9.4283 -0.112068 8.99539 0.332297L6.65603 2.75689L5.87763 1.95013C5.44889 1.50576 4.74958 1.50576 4.31667 1.95013C3.88793 2.39449 3.88793 3.11928 4.31667 3.56796L5.87763 5.18579H5.87347Z" fill="#45BFDB"/>
<path d="M27.6686 5.18546C28.0974 5.62982 28.7967 5.62982 29.2296 5.18546L32.3515 1.9498C32.7803 1.50543 32.7803 0.780642 32.3515 0.331963C31.9228 -0.116715 31.2235 -0.112401 30.7906 0.331963L28.4512 2.75655L27.6728 1.9498C27.2441 1.50543 26.5447 1.50543 26.1118 1.9498C25.6831 2.39416 25.6831 3.11895 26.1118 3.56763L27.6728 5.18546H27.6686Z" fill="#45BFDB"/>
<path d="M16.7709 5.18579C17.1997 5.63016 17.899 5.63016 18.3319 5.18579L21.4538 1.95013C21.8826 1.50576 21.8826 0.780976 21.4538 0.332297C21.0251 -0.112068 20.3258 -0.112068 19.8929 0.332297L17.5535 2.75689L16.7751 1.95013C16.3464 1.50576 15.647 1.50576 15.2141 1.95013C14.7854 2.39449 14.7854 3.11928 15.2141 3.56796L16.7751 5.18579H16.7709Z" fill="#45BFDB"/>
<path d="M25.4084 16.0273C25.2918 15.5052 24.938 15.0393 24.6674 14.5777C23.9223 13.3611 23.3437 12.097 22.5903 10.8459C21.8036 9.34453 20.2426 8.71034 18.6525 8.80094C16.7336 8.788 14.7813 8.81388 12.8541 8.8182C12.0132 8.82251 10.24 8.82683 11.0808 10.1383C11.7885 11.2385 12.4212 12.4594 13.0705 13.5984C13.5742 14.5863 14.3401 15.6045 14.6357 16.696C14.7439 17.3733 14.311 17.7659 13.9488 18.4001C13.5992 18.9523 13.1621 19.6512 12.7209 20.3501L11.4929 22.3001C11.1308 22.8912 10.8269 23.2795 10.9476 23.452C11.0017 23.5469 11.1474 23.5987 11.3639 23.6332C12.0174 23.7152 12.7459 23.7411 13.4244 23.7842C15.3808 23.8489 17.3496 23.8748 19.3102 23.8619C20.0844 23.8619 20.867 23.7023 21.3957 23.0767C21.8161 22.5978 22.1449 22.0154 22.5112 21.4891C23.3271 20.2422 24.2845 19.0688 25.0046 17.7702C25.2793 17.2654 25.5332 16.6744 25.4208 16.1006L25.4084 16.0316V16.0273Z" fill="#45BFDB"/>
<path d="M12.6541 16.3595C12.5917 15.2378 11.755 14.2369 11.2097 13.1454C10.8184 12.4077 10.4729 11.6441 10.04 10.9279C9.62791 10.2506 9.15754 9.58622 8.49986 9.15911C7.50917 8.50766 6.16466 8.65003 4.95752 8.581C4.04592 8.55512 3.13848 8.49041 2.22688 8.48609C0.636784 8.39981 -0.0958264 9.66819 0.00823762 11.1695C0.0248879 12.2697 0.0665134 14.9617 0.0914888 16.5019C0.332917 18.439 -0.711885 22.5202 1.13213 23.5988C2.30597 24.2502 3.95018 23.9267 5.29885 23.8706C6.41025 23.7886 7.63405 23.9655 8.63722 23.3874C9.26993 23.0078 9.72781 22.3477 10.1399 21.7221C11.1181 20.0568 12.5042 18.4002 12.6583 16.4286V16.3552L12.6541 16.3595Z" fill="#45BFDB"/>
<path d="M37.9377 15.7683C37.6047 13.883 36.0853 12.4205 35.0822 10.8415C34.0707 9.14166 33.6045 8.69729 31.6189 8.762C29.3254 8.71023 27.0235 8.61964 24.7299 8.59375C23.7101 8.59375 23.0274 9.17617 23.8433 10.1641C24.8339 11.6439 25.9329 13.5163 26.9069 15.0565C27.6811 16.1393 27.4355 17.0108 26.7113 18.0462C26.1785 18.9047 25.5249 19.9574 24.9838 20.8375C24.6258 21.4027 24.4135 21.7866 24.1055 22.2094C23.7558 22.6883 23.4062 23.0938 23.6018 23.4821C23.7891 23.8575 24.4926 23.9351 24.9339 23.9394C27.0776 23.9394 29.2296 23.9308 31.3775 23.961C32.0477 23.9696 32.8177 23.9351 33.4171 23.6504C34.3745 23.1888 34.6285 22.2785 35.2653 21.3638C35.9397 20.2767 36.818 18.8573 37.3508 17.9944C37.817 17.2912 38.1292 16.7002 37.9502 15.8416L37.9377 15.7683Z" fill="#45BFDB"/>
</g>
<defs>
<clipPath id="clip0_726_11162">
<rect width="38" height="24" fill="white"/>
</clipPath>
</defs>
</svg>
