<svg width="32" height="32" viewBox="0 0 32 32" fill="none" xmlns="http://www.w3.org/2000/svg">
<g clip-path="url(#clip0_726_11137)">
<path d="M8.36109 26.7188V26.7168C8.36596 26.567 8.30583 26.4276 8.18149 26.3015C7.97029 26.0879 7.60309 25.9446 7.24803 25.8062C7.06049 25.7328 6.80389 25.6324 6.74383 25.5724C6.15892 24.9874 5.43015 24.2621 4.41349 24.7051C4.19471 24.8002 4.03534 24.9627 3.89487 25.1063C3.25331 25.7636 2.60249 26.4749 1.90419 27.2831C1.74208 27.4706 1.5707 27.643 1.40137 27.8137C0.926726 28.2939 0.435971 28.7892 0.212645 29.5468C0.0742348 30.0166 0.122663 30.4704 0.353121 30.8581C0.643683 31.3472 1.21175 31.7143 1.91307 31.8661C2.16516 31.9208 2.41176 31.9482 2.65355 31.9482C3.79383 31.9482 4.82826 31.3406 5.79683 30.1073L8.24843 26.9832C8.28583 26.9358 8.35596 26.8458 8.36109 26.7188Z" fill="#45BFDB"/>
<path d="M10.5645 27.1406L10.5439 27.1839C10.2509 27.1372 9.94321 27.2011 9.62615 27.3814L9.56121 27.4185L9.52795 27.4858C9.47881 27.5848 9.36688 27.7018 9.24941 27.821C9.12575 27.877 9.04468 28.0092 9.00828 28.1288C8.52468 28.5457 8.29975 28.7738 7.87588 29.268C7.74675 29.3975 7.60768 29.6678 7.54415 29.8639C7.50775 29.8958 7.47955 29.9357 7.46101 29.9796C7.19381 30.2588 6.91735 30.6504 6.99321 31.0244C7.00661 31.2404 7.15568 31.4174 7.25635 31.5355C7.27008 31.5516 7.28348 31.5664 7.29375 31.5802L7.31335 31.6196C7.39715 31.7876 7.55961 31.9112 7.77015 31.9668C7.85568 31.9895 7.94635 31.9998 8.03801 31.9998C8.21628 31.9998 8.39488 31.9579 8.52641 31.8806C8.75995 31.7955 8.95261 31.6344 9.06561 31.4311C9.08861 31.405 9.11201 31.3754 9.13468 31.3448C9.14288 31.3346 9.15048 31.3232 9.15835 31.3129L9.82395 30.6724C9.97268 30.5608 10.1361 30.4591 10.3 30.3571C10.7905 30.0507 11.3461 29.7038 11.5423 29.0465C11.6275 28.6206 11.5512 27.9612 11.2843 27.6064C11.0971 27.3286 10.6521 27.1694 10.5645 27.1406Z" fill="#45BFDB"/>
<path d="M0.2686 25.7013C0.311875 25.7446 0.421781 25.8538 0.856593 25.783C0.946227 25.816 1.03793 25.8332 1.13135 25.8332C1.38207 25.8332 1.63931 25.7126 1.87287 25.4791L2.12943 25.2225C2.37466 25.126 2.53917 24.9612 2.68547 24.8145L2.73115 24.7513C2.8651 24.4834 3.20787 24.0019 3.2034 24.0019C3.44279 23.7622 3.5994 23.5272 3.74983 23.3002L3.79105 23.238V23.1635C3.79105 23.1453 3.79105 23.1292 3.79139 23.1144H3.8642L3.86317 22.7342C3.86695 22.7129 3.89065 22.6525 3.88893 22.6466C4.18567 22.2516 4.24783 21.7815 4.01395 21.4388C3.98063 21.4054 3.94663 21.367 3.91298 21.3288C3.77525 21.1736 3.61795 20.997 3.39711 20.997H3.34799C3.22641 20.9748 3.1117 20.9764 3.0279 20.997C2.77787 20.997 2.58279 21.1922 2.41038 21.3642C2.38084 21.3938 2.33653 21.438 2.36264 21.4394H2.21014L2.10779 21.6452C2.02983 21.6974 1.97419 21.7756 1.94122 21.8334C1.71729 22.0628 1.4439 22.4032 1.43703 22.4124C1.29381 22.5797 1.14165 22.7312 0.99294 22.8802C0.691733 23.1814 0.379877 23.4932 0.165219 23.9064C-0.0484091 24.1438 -0.0161243 24.4034 0.0484469 24.6703V24.7884C0.0484469 24.8506 0.0666498 24.9214 0.0896613 24.9838C-0.0133767 25.2044 0.0494735 25.4822 0.2686 25.7013Z" fill="#45BFDB"/>
<path d="M31.1107 0.141767C31.0286 0.076168 30.9369 0.0328914 30.8373 0.0133195C30.6951 -0.0158738 30.5622 0.0095412 30.466 0.0267135C27.3513 0.578637 24.5432 1.34381 22.1198 2.29937L21.8855 2.3921C20.0701 3.10717 18.1938 3.84663 16.584 5.03562C15.5941 5.76614 14.7293 6.65016 13.8927 7.5054C13.0523 8.364 12.1827 9.2522 11.517 10.2898C11.3827 10.4999 11.2697 10.7473 11.1505 11.0089C10.7735 11.837 10.4825 12.3728 9.83239 12.3412C9.34399 12.3137 8.85806 12.2261 8.38819 12.1409C7.65765 12.0084 6.89959 11.871 6.08975 11.9479L5.96611 11.9593C5.33003 12.018 4.36801 12.1069 3.84837 12.4531C3.30091 12.8175 3.21058 13.4601 3.12987 14.0361C3.10411 14.2165 3.06427 14.4359 3.01997 14.6808C2.75275 16.1521 2.3049 18.614 3.87379 19.1777C4.20659 19.2968 4.63144 19.3353 5.08098 19.3755C5.69988 19.4315 6.40159 19.495 6.71172 19.7969C7.01052 20.0878 6.92192 20.4852 6.73985 21.1058C6.59527 21.6001 6.44483 22.1108 6.63201 22.5765C6.72959 22.8715 7.01119 23.2325 7.39725 23.329L7.45666 23.3366C7.52845 23.3366 7.64386 23.363 7.70119 23.3853L7.71045 23.3957C8.10545 23.8699 8.57152 24.1077 9.16425 24.4041C9.35145 24.5559 9.67292 24.5857 9.83299 24.5913C10.1249 24.7358 10.2623 24.7942 10.3567 24.8093C10.5267 24.865 10.8448 24.9615 11.1405 24.9436C11.1958 24.9536 11.2497 24.9608 11.2961 24.9608H11.3541L11.4063 24.9347C11.564 24.8553 11.8017 24.6977 11.8082 24.6936C12.3124 24.3333 13.4821 23.6011 13.4942 23.5942L13.6024 23.5269C13.6457 23.7099 13.7055 23.9308 13.7566 24.1227C13.8067 24.3079 13.8493 24.4624 13.8562 24.4937V25.3059C13.8562 25.4255 13.8479 25.5375 13.8401 25.6456C13.8233 25.8747 13.8061 26.1113 13.8562 26.3394C13.8562 26.5029 13.9218 26.8391 13.9297 26.8563C13.9297 27.1331 13.9682 28.0632 14.4648 28.4152C14.6032 28.5127 14.833 28.6051 15.1562 28.5062H15.172C15.4161 28.5797 15.649 28.5797 15.8747 28.5797C16.0563 28.5797 16.294 28.5028 16.2844 28.5028C17.9903 28.2181 19.0529 27.3958 20.1235 26.2487C20.9131 25.4024 20.8108 24.0035 20.7205 22.7695C20.694 22.4048 20.6686 22.0606 20.6686 21.7535C20.6665 21.4201 20.6367 21.0821 20.6071 20.7552C20.5161 19.7369 20.4302 18.7751 21.17 18.0409C21.6131 17.6006 22.0651 17.1757 22.5157 16.7523C23.4341 15.8885 24.3837 14.9965 25.2311 13.9926C27.7908 10.9599 29.7691 7.55147 31.1099 3.86115C31.8071 1.95083 31.8061 0.699906 31.1107 0.141767ZM24.6263 8.46087C24.3859 9.44553 23.6279 10.5181 22.4753 10.6933C21.8134 10.7923 21.3522 10.4367 21.0777 10.1211C20.5327 9.49127 20.2963 8.50753 20.5158 7.7816C20.8198 6.778 22.162 5.96612 23.2589 5.81155L23.261 5.82083L23.329 5.81189C23.3788 5.80537 23.4289 5.7985 23.4781 5.7985C23.5564 5.79541 23.7089 5.82907 23.8219 5.85517C24.7285 6.48541 24.8338 7.61087 24.6263 8.46087Z" fill="#45BFDB"/>
</g>
<defs>
<clipPath id="clip0_726_11137">
<rect width="32" height="32" fill="white"/>
</clipPath>
</defs>
</svg>
