<svg width="17" height="17" viewBox="0 0 17 17" fill="none" xmlns="http://www.w3.org/2000/svg">
<g clip-path="url(#clip0_726_10885)">
<path d="M8.49984 1.41667C10.2716 3.35633 11.2785 5.87353 11.3332 8.5C11.2785 11.1265 10.2716 13.6437 8.49984 15.5833M8.49984 1.41667C6.7281 3.35633 5.72122 5.87353 5.6665 8.5C5.72122 11.1265 6.7281 13.6437 8.49984 15.5833M8.49984 1.41667C4.58782 1.41667 1.4165 4.58798 1.4165 8.5C1.4165 12.412 4.58782 15.5833 8.49984 15.5833M8.49984 1.41667C12.4119 1.41667 15.5832 4.58798 15.5832 8.5C15.5832 12.412 12.4119 15.5833 8.49984 15.5833M1.77068 6.375H15.229M1.77067 10.625H15.229" stroke="#1E1B1B" stroke-width="1.0625" stroke-linecap="round" stroke-linejoin="round"/>
</g>
<defs>
<clipPath id="clip0_726_10885">
<rect width="17" height="17" fill="white"/>
</clipPath>
</defs>
</svg>
