<svg width="162" height="40" viewBox="0 0 162 40" fill="none" xmlns="http://www.w3.org/2000/svg">
<path fill-rule="evenodd" clip-rule="evenodd" d="M14.4353 7.11893H25.5387C28.0738 7.11893 29.0001 7.38775 29.9264 7.87653C30.8527 8.37752 31.584 9.11069 32.0837 10.0394C32.5834 10.968 32.8393 11.8967 32.8393 14.4383V25.5702C32.8393 28.1118 32.5712 29.0405 32.0837 29.9692C31.584 30.8978 30.8527 31.631 29.9264 32.132C29.0001 32.633 28.0738 32.8896 25.5387 32.8896H14.4353C11.9002 32.8896 10.9739 32.6208 10.0476 32.132C9.12133 31.631 8.39005 30.8978 7.89033 29.9692C7.39062 29.0405 7.13467 28.1118 7.13467 25.5702V14.4383C7.13467 11.8967 7.40281 10.968 7.89033 10.0394C8.39005 9.11069 9.12133 8.37752 10.0476 7.87653C10.9739 7.38775 11.888 7.11893 14.4353 7.11893Z" fill="white"/>
<path d="M22.8573 13.4608H12.8753C12.3024 13.4608 12.144 13.6074 12.144 14.1939C12.144 14.7683 12.2902 14.9271 12.8753 14.9271H22.8573C23.4301 14.9271 23.5886 14.7805 23.5886 14.1939C23.5886 13.6196 23.4423 13.4608 22.8573 13.4608Z" fill="#45BFDB"/>
<path d="M22.0651 26.1323C21.8091 26.3645 20.4806 27.5009 18.7743 27.1832C17.6895 26.9876 17.007 26.2911 16.7876 26.059C15.7029 24.947 15.5932 23.554 15.5932 23.0041C15.5932 22.6742 15.386 22.3932 15.0691 22.2954C14.7522 22.2099 14.4231 22.3321 14.2525 22.6131C13.9844 23.053 13.6309 23.4196 13.2287 23.7251C13.0093 23.8839 12.7656 24.0306 12.4974 24.1405C11.9611 24.3727 11.888 24.5682 12.1196 25.0936C12.3512 25.6313 12.5462 25.7046 13.0703 25.4724C13.4237 25.3258 13.765 25.1303 14.0697 24.9103C14.1672 24.837 14.2647 24.7637 14.3622 24.6782C14.5816 25.4358 14.9838 26.3034 15.7395 27.0854C16.0442 27.3909 16.9583 28.3318 18.5061 28.6128C18.7987 28.6617 19.079 28.6861 19.3471 28.6861C21.2972 28.6861 22.7354 27.4642 23.0401 27.1954C23.4667 26.8044 23.4789 26.5966 23.0889 26.1689C22.6988 25.7413 22.4795 25.7413 22.0651 26.1323Z" fill="#45BFDB"/>
<path d="M21.0291 18.5196H19.0059H12.8874C12.3146 18.5196 12.1562 18.6662 12.1562 19.2528C12.1562 19.8271 12.3024 19.9859 12.8874 19.9859H19.0059H21.0291C21.6019 19.9859 21.7604 19.8393 21.7604 19.2528C21.7482 18.6785 21.6019 18.5196 21.0291 18.5196Z" fill="#45BFDB"/>
<path fill-rule="evenodd" clip-rule="evenodd" d="M29.5485 13.754C29.8654 12.862 29.4145 11.8845 28.5247 11.5546C27.635 11.2369 26.66 11.689 26.3309 12.581L23.3936 20.6824C23.2839 20.9635 23.2351 21.269 23.2473 21.5745L23.3448 24.4093C23.357 24.8859 23.942 25.0936 24.2589 24.7393L26.1481 22.6253C26.3553 22.3931 26.5137 22.1365 26.6112 21.8433L29.5485 13.754Z" fill="#130D0C"/>
<path d="M117.802 28.0385C114.122 28.0385 111.44 25.3502 111.44 21.6356C111.44 17.9209 114.122 15.2448 117.802 15.2448C121.483 15.2448 124.14 17.9331 124.14 21.6478C124.14 25.3625 121.471 28.0385 117.802 28.0385ZM117.802 17.2366C115.426 17.2366 113.768 19.045 113.768 21.6478C113.768 24.2505 115.426 26.059 117.802 26.059C120.179 26.059 121.812 24.2505 121.812 21.6478C121.812 19.045 120.167 17.2366 117.802 17.2366Z" fill="currentColor"/>
<path d="M149.93 28.0385C147.164 28.0385 145.287 26.5477 144.982 24.1527C144.982 24.1405 144.97 24.0916 144.97 24.0428C144.957 23.9206 145.055 23.8228 145.165 23.8228H146.969C147.066 23.8228 147.151 23.8961 147.164 23.9939C147.176 24.0306 147.176 24.0672 147.176 24.0916C147.419 25.338 148.431 26.059 149.918 26.059C151.283 26.059 152.27 25.3747 152.27 24.3849C152.27 22.9064 150.856 22.6742 149.37 22.4298C147.444 22.1121 145.262 21.7577 145.262 18.8007C145.262 16.6745 147.017 15.2448 149.638 15.2448C152.258 15.2448 154.013 16.5401 154.391 18.5807C154.403 18.6296 154.415 18.764 154.428 18.8862C154.44 19.0084 154.342 19.1061 154.233 19.1061H152.417C152.319 19.1061 152.246 19.0328 152.222 18.9473C152.209 18.8618 152.185 18.7762 152.173 18.7518C151.832 17.6276 150.661 17.1755 149.638 17.1755C148.346 17.1755 147.48 17.762 147.48 18.7273C147.48 20.047 148.821 20.2425 150.235 20.4503C152.258 20.7435 154.549 21.0735 154.549 24.3238C154.537 26.5844 152.733 28.0385 149.93 28.0385Z" fill="currentColor"/>
<path d="M130.173 27.8552C128.93 27.8552 127.906 27.4764 127.224 26.7677C126.493 26.0223 126.139 24.9348 126.176 23.5662V18.2997H126.163C125.481 18.263 124.811 18.1775 124.152 18.0553C124.104 18.043 124.067 18.0186 124.043 17.982C124.018 17.9453 124.006 17.8964 124.018 17.8475L124.36 16.1246C124.372 16.0391 124.445 15.9902 124.53 15.9902C124.542 15.9902 124.555 15.9902 124.555 15.9902C125.079 16.0879 125.615 16.149 126.151 16.1857H126.176V15.8924V12.3244C126.176 12.2266 126.249 12.1533 126.346 12.1533H128.272C128.369 12.1533 128.443 12.2266 128.443 12.3244V16.1735H128.467C129.503 16.0879 130.454 15.8924 131.465 15.5503C131.477 15.5381 131.502 15.5381 131.514 15.5381C131.587 15.5381 131.648 15.587 131.672 15.648L132.245 17.3099C132.257 17.3588 132.257 17.4076 132.233 17.4443C132.209 17.481 132.172 17.5176 132.136 17.5298C130.905 17.9331 129.735 18.1652 128.455 18.263H128.443V23.554C128.443 24.9348 129.21 25.729 130.563 25.729H131.819C131.916 25.729 131.989 25.8024 131.989 25.9001V27.6841C131.989 27.7819 131.916 27.8552 131.819 27.8552H130.173Z" fill="currentColor"/>
<path d="M107.857 27.8552C107.759 27.8552 107.686 27.7819 107.686 27.6841V20.6947C107.686 18.7762 106.553 17.4932 104.883 17.4932C103.018 17.4932 101.665 19.0206 101.665 21.1346V27.6841C101.665 27.7819 101.592 27.8552 101.495 27.8552H99.3497C99.2522 27.8552 99.179 27.7819 99.179 27.6841V15.5992C99.179 15.5014 99.2522 15.4281 99.3497 15.4281H101.495C101.592 15.4281 101.665 15.5014 101.665 15.5992V17.3954C102.372 16.0269 103.762 15.2448 105.541 15.2448C108.32 15.2448 110.173 17.2488 110.173 20.2303V27.6841C110.173 27.7819 110.1 27.8552 110.002 27.8552H107.857Z" fill="currentColor"/>
<path d="M94.6573 27.8552C94.5598 27.8552 94.4866 27.7819 94.4866 27.6842V26.3767L94.4501 26.4256C93.7919 27.3664 92.3537 27.9408 90.623 27.9408C87.0885 27.9408 84.7971 25.4724 84.7971 21.6356C84.7971 17.7987 87.0763 15.3304 90.5986 15.3304C92.1953 15.3304 93.7675 16.1491 94.4501 16.9189L94.4744 16.9555V10.5648C94.4744 10.467 94.5476 10.3937 94.6451 10.3937H96.6074C96.7049 10.3937 96.778 10.467 96.778 10.5648V27.6842C96.778 27.7819 96.7049 27.8552 96.6074 27.8552H94.6573ZM90.9155 17.3343C88.6486 17.3343 87.125 19.0695 87.125 21.6478C87.125 24.2261 88.6486 25.9734 90.9155 25.9734C93.1825 25.9734 94.7304 24.2383 94.7304 21.6478C94.7304 19.0573 93.2069 17.3221 90.9155 17.3343Z" fill="currentColor"/>
<path d="M48.5254 28.0385C44.808 28.0385 40.92 25.5824 40.92 20.0837C40.92 14.585 44.8446 12.1289 48.6107 12.1289C51.6699 12.1289 53.9491 13.8396 54.8754 16.8211C54.8876 16.8822 54.8876 16.9433 54.851 17.0044C54.8145 17.0655 54.7657 17.1022 54.7048 17.1022L52.9253 17.3954C52.9131 17.3954 52.9009 17.3954 52.8887 17.3954C52.8034 17.3954 52.7181 17.3466 52.6937 17.261C51.7796 15.1715 50.5242 14.2306 48.6229 14.2306C45.454 14.2306 43.2845 16.5279 43.2845 20.0837C43.2845 23.6395 45.5028 25.9979 48.5985 25.9979C51.0605 25.9979 52.9741 24.5193 52.9862 22.3076C52.9862 22.0388 52.9862 22.1976 52.9741 22.0999C52.5353 22.1488 52.1331 22.1732 51.7552 22.1732C50.9386 22.1732 50.2683 22.0632 49.4639 21.8799C49.342 21.8555 49.2689 21.7333 49.2933 21.6233L49.6101 19.9982C49.6345 19.9004 49.7198 19.8271 49.8295 19.8271C49.8417 19.8271 49.8661 19.8271 49.8783 19.8271C50.6096 19.9982 51.353 20.0837 52.0843 20.0837C53.1934 20.0837 54.3026 19.9004 55.4726 19.5216C55.497 19.5094 55.5214 19.5094 55.5457 19.5094C55.6432 19.5094 55.7286 19.5705 55.7529 19.656L56.2405 21.2323C56.2648 21.2934 56.2526 21.3545 56.2283 21.4034C56.2039 21.4523 56.143 21.5011 56.0942 21.5134C55.8261 21.5745 55.5457 21.6356 55.302 21.6967L55.107 21.7455L55.2654 27.6353C55.2654 27.6964 55.241 27.7452 55.2045 27.7941C55.1679 27.843 55.107 27.8552 55.046 27.8552H53.3275C53.2056 27.8552 53.1081 27.7575 53.1081 27.6353V26.059C52.1696 27.3054 50.5364 28.0385 48.5254 28.0385Z" fill="currentColor"/>
<path d="M138.303 28.0385C133.269 27.9041 131.989 23.8106 132.197 21.3056C132.574 16.8211 135.792 15.2326 138.144 15.2326C143.714 15.2326 143.946 21.4767 143.946 21.5378C143.946 21.6233 143.885 21.7089 143.812 21.7333C141.216 22.662 139.18 22.9308 137.425 22.9308C136.535 22.9308 135.646 22.772 134.598 22.5764C134.573 22.5764 134.549 22.5887 134.549 22.6253C134.866 24.666 136.657 26.0712 138.364 26.059C140.338 26.0467 141.301 25.228 141.703 23.9572C141.728 23.8839 141.789 23.835 141.862 23.835H143.897C143.946 23.835 143.995 23.8595 144.031 23.8961C144.068 23.9328 144.08 23.9939 144.068 24.0428C143.531 26.4378 141.338 28.1118 138.303 28.0385ZM137.766 17.1877C135.682 17.3832 134.744 19.3505 134.549 20.4014C134.549 20.4258 134.549 20.4503 134.561 20.4625C134.573 20.4747 134.585 20.4869 134.61 20.4991C137.328 21.2201 139.826 20.7924 141.533 20.3525C141.557 20.3525 141.569 20.3403 141.581 20.3159C141.594 20.2914 141.594 20.2792 141.594 20.267C141.533 19.4727 140.558 16.9311 137.766 17.1877Z" fill="currentColor"/>
<path d="M77.3989 28.0507C73.7182 28.0507 71.0368 25.3625 71.0368 21.6478C71.0368 17.9331 73.706 15.2448 77.3989 15.2448C81.0919 15.2448 83.7367 17.9331 83.7367 21.6478C83.7367 25.3625 81.0676 28.0507 77.3989 28.0507ZM77.3989 17.2488C75.0223 17.2488 73.3647 19.0573 73.3647 21.66C73.3647 24.2627 75.0223 26.059 77.3989 26.059C79.7756 26.059 81.4088 24.2505 81.4088 21.66C81.4088 19.0695 79.7512 17.2488 77.3989 17.2488Z" fill="currentColor"/>
<path d="M63.5899 28.0507C59.9091 28.0507 57.2277 25.3625 57.2277 21.6478C57.2277 17.9331 59.8969 15.2448 63.5899 15.2448C67.2707 15.2448 69.9277 17.9331 69.9277 21.6478C69.9277 25.3625 67.2585 28.0507 63.5899 28.0507ZM63.5899 17.2488C61.2132 17.2488 59.5556 19.0573 59.5556 21.66C59.5556 24.2627 61.2132 26.059 63.5899 26.059C65.9665 26.059 67.5997 24.2505 67.5997 21.66C67.5997 19.0695 65.9544 17.2488 63.5899 17.2488Z" fill="currentColor"/>
<path d="M153.111 12.1289H154.647V12.471H154.062V14.0595H153.684V12.471H153.099V12.1289H153.111ZM154.964 12.1289H155.403L155.963 13.5219L156.524 12.1289H156.963V14.0718H156.609V12.8254L156.11 14.0718H155.805L155.305 12.8254V14.0718H154.952V12.1289H154.964Z" fill="currentColor"/>
</svg>
