<svg width="22" height="26" viewBox="0 0 22 26" fill="none" xmlns="http://www.w3.org/2000/svg">
<path d="M3.31799 1.14312C3.00849 0.953656 2.65626 0.84518 2.29379 0.827703C1.93132 0.810226 1.57029 0.884311 1.24399 1.04312L12.428 12.2521L16.085 8.57812L3.31799 1.14312ZM0.217992 2.08112C0.0747389 2.38547 0.0006319 2.71775 0.000990847 3.05412V23.5541C-0.00021299 23.8876 0.0746877 24.217 0.219991 24.5171L11.398 13.2871L0.217992 2.08112ZM12.43 14.3201L1.26399 25.5391C1.55439 25.6725 1.87043 25.7408 2.18999 25.7391C2.58634 25.7441 2.97647 25.6403 3.31799 25.4391L16.087 17.9861L12.43 14.3201ZM20.948 11.4101L20.934 11.4021L17.389 9.33712L13.459 13.2851L17.391 17.2251L20.947 15.1521C21.2684 14.9568 21.534 14.682 21.7184 14.3542C21.9028 14.0264 21.9996 13.6567 21.9996 13.2806C21.9996 12.9045 21.9028 12.5348 21.7184 12.207C21.534 11.8792 21.2684 11.6044 20.947 11.4091L20.948 11.4101Z" fill="#130D0C"/>
</svg>
