<svg width="128" height="85" viewBox="0 0 128 85" fill="none" xmlns="http://www.w3.org/2000/svg">
<path d="M7.70642 23.663C1.4604 21.4009 -0.169266 13.1629 4.35491 7.65792C8.87909 2.15296 22.719 0.717424 29.8011 8.32758C36.8831 15.9377 26.4529 22.7248 26.4529 22.7248C26.7558 24.0238 27.1225 25.7381 28.127 26.7426C23.1047 27.0774 20.4262 25.0685 20.4262 25.0685C20.4262 25.0685 13.9517 25.9242 7.70642 23.663Z" fill="#45BFDB"/>
<path d="M55.6061 53.1188C55.4141 52.228 54.4521 52.0238 53.6519 52.0898C52.7119 52.1784 51.8645 53.4374 52.156 54.3452C53.5235 56.6803 56.842 54.7416 55.6061 53.1188Z" fill="#130D0C"/>
<path d="M75.2215 52.77C73.1949 50.732 71.1846 53.843 73.018 55.467C73.4442 55.768 74.223 56.0212 74.6794 55.6794C74.7751 55.5292 74.8828 55.4023 75.0603 55.3489C75.8744 54.8916 75.8712 53.3524 75.2215 52.77Z" fill="#130D0C"/>
<path d="M104.004 72.3291H104.004C103.954 71.7348 103.944 71.1624 103.896 70.5895C103.905 69.8532 103.543 69.1866 103.722 68.4541C103.626 68.1368 103.48 67.8447 103.478 67.5048C103.467 67.2768 103.621 67.016 103.487 66.7842C103.414 66.6523 103.266 66.5763 103.363 66.4104C103.441 66.0982 103.221 65.8444 103.168 65.5359C103.118 64.9165 102.863 64.3429 102.711 63.7391C102.668 63.1385 102.553 62.607 102.303 62.0523C102.224 61.8513 102.421 61.5177 102.15 61.3889C102.239 61.1043 102.02 60.9516 101.924 60.7123C101.673 60.209 101.69 59.5638 101.276 59.1128C101.244 58.8238 101.252 58.514 101.116 58.2778C100.992 58.1044 100.878 57.926 100.765 57.7363C100.729 57.3405 100.525 56.8266 100.15 56.6488C100.195 56.3988 99.9943 56.3253 99.932 56.1299C99.74 55.4897 99.2376 55.0053 98.8447 54.4562C98.7843 54.0868 98.3927 53.9084 98.2542 53.5516C98.0962 53.2789 98.0779 52.9617 97.8172 52.7688C97.4338 52.1688 96.7035 51.7058 96.5776 50.8966C96.4592 50.4267 95.9058 50.1986 95.8907 49.7155C95.8958 49.3518 95.4412 49.2613 95.394 48.9007C95.1743 48.1003 94.8179 47.4702 94.493 46.7213C94.4263 46.4876 94.3023 46.2187 94.148 46.0202C94.1266 45.7488 94.2299 45.3097 93.9006 45.201C93.8628 44.3623 93.4007 43.6568 93.1936 42.8602C93.1917 42.0045 92.5073 41.3417 92.6906 40.4358C92.6163 40.0971 92.5728 39.8207 92.4488 39.5129C92.372 39.457 92.3021 39.3954 92.2788 39.2974C92.1504 38.6704 91.9092 38.0937 91.7216 37.4912C91.5869 37.0137 91.6265 36.5294 91.2998 36.1122H91.3004C91.0983 35.5173 90.9233 34.9085 90.8169 34.2677C90.3315 33.8681 90.5462 33.3454 90.2333 32.8623C89.8946 32.3591 89.8083 31.8018 89.5206 31.276C89.5653 30.9945 89.316 30.9462 89.2077 30.7508C88.9451 30.3958 88.8173 29.9561 88.5813 29.5823C88.6681 29.162 88.2419 29.0282 88.2016 28.6738C88.1154 28.3226 87.7496 28.3924 87.5827 28.0142C87.329 27.8357 87.2018 27.5235 87.1024 27.2402C87.0306 27.0951 86.8795 27.0486 86.7624 26.9512C86.7611 26.6986 86.4954 26.6666 86.4652 26.4279C85.1947 25.3228 84.0073 24.0324 82.5247 23.232C82.1563 22.7476 81.4241 22.7319 81.0476 22.2727C80.9268 22.1282 80.7631 22.0886 80.595 22.1502C80.4181 22.0496 80.2235 21.934 80.0743 21.7814C79.1066 21.564 78.2498 20.9823 77.2777 20.8164C76.3931 20.3484 75.3694 20.3911 74.4937 19.9658C74.1858 19.8081 73.8043 19.8828 73.4668 19.8244C73.0028 19.7804 72.5716 19.5913 72.0968 19.5712C71.5101 19.6359 70.9793 19.2967 70.4014 19.2992V19.3005C69.4123 19.2156 68.4087 18.9512 67.4027 18.9424C67.1559 18.7683 66.8474 18.7696 66.5993 18.8764C66.3701 18.7602 66.1341 18.6892 65.8879 18.7055C66.4539 18.3933 67.1659 18.3147 67.5418 17.7003C68.0014 17.4503 68.5466 17.27 68.794 16.7529C69.469 16.217 70.0356 15.5134 70.6173 14.9235C70.6173 14.5378 71.0505 14.3606 71.1329 13.9968C71.2878 13.9145 71.3325 13.7694 71.3206 13.6111C71.3936 13.4352 71.539 13.2945 71.597 13.1073C71.7852 12.6141 72.0112 12.0964 72.0937 11.5894C72.3953 11.3168 72.4041 11.0717 72.304 10.7224C72.4035 10.2368 72.3059 9.77317 72.457 9.31016C72.4777 9.14367 72.3688 9.01991 72.3279 8.86662C72.3493 8.73218 72.3682 8.56255 72.2662 8.46266C72.1302 8.37094 72.2102 8.16927 72.0515 8.06121C71.8261 7.54354 71.8028 6.8374 71.3376 6.46359C71.1065 6.30905 70.9982 6.07597 70.8364 5.85671C70.5688 5.77755 70.6022 5.45275 70.4184 5.2869C69.7976 5.04377 69.4173 4.54369 68.8513 4.1969C68.6732 4.0524 68.4201 4.07879 68.2054 4.02853C67.9945 3.88403 67.793 3.80487 67.5292 3.79608C67.4297 3.77975 67.3328 3.76404 67.2434 3.71127C65.7947 3.05664 64.1981 3.14208 62.6531 3.05601C62.3905 2.93162 62.1992 3.03151 62.0015 3.18857C61.7049 3.2382 61.3265 2.98188 61.0829 3.21558C60.4055 3.31233 59.7545 3.41913 59.0594 3.38772C58.3404 3.54227 57.612 3.90414 56.8489 4.04989C56.2011 4.25658 55.5111 4.26915 54.9155 4.604C54.6265 4.73028 54.1657 4.67562 53.9976 5.00796C53.7187 5.08649 53.3749 5.13235 53.2106 5.41443C51.9338 6.348 51.16 8.06624 51.5013 9.61611C51.6687 10.1005 51.534 10.5478 51.8173 10.9593C51.9948 11.639 52.1781 12.3622 52.5527 12.947C52.8429 13.0036 52.7913 13.4264 53.0116 13.5407C53.1929 13.9522 53.5172 14.2601 53.6746 14.6747C54.1461 14.9109 54.3388 15.3532 54.7342 15.7057C54.9111 16.0166 55.3455 16.1015 55.5344 16.3942C55.6011 16.6951 55.9165 16.67 56.1098 16.8484C56.5178 17.1538 56.7702 17.5854 57.2796 17.7789C56.9937 17.6708 56.7161 17.7022 56.4277 17.6922C56.0588 17.6903 55.6836 17.4949 55.3367 17.7236C55.0508 17.5188 54.5755 17.608 54.2632 17.6419C53.9478 17.5898 53.6456 17.4038 53.3302 17.4955C52.9367 17.6859 52.4312 17.5408 51.998 17.7525C51.4263 17.8517 50.8106 17.6563 50.3309 18.098C50.2767 18.1344 50.2194 18.152 50.1527 18.1514C49.751 18.2708 49.3682 18.4002 48.9357 18.4096C48.4824 18.6666 48.0732 19.0699 47.5739 19.1811C47.273 19.2408 47.2138 19.5235 46.8996 19.5813C46.6767 19.6636 46.6648 19.93 46.44 19.9959C46.0541 20.3182 45.6285 20.6154 45.2438 20.9276C45.189 21.079 45.1399 21.1971 44.9926 21.2851C44.8371 21.488 44.4757 21.4918 44.4033 21.7613C44.4159 21.9146 44.1893 21.9089 44.0961 22.005C43.8335 22.1539 43.7504 22.5177 43.4155 22.5491C43.1989 22.1828 42.6449 22.1476 42.2665 22.2507C41.9832 22.272 41.8881 22.5755 41.6376 22.6327C41.2466 22.8789 40.7738 22.9738 40.4502 23.3306C40.3268 23.5153 39.9496 23.4915 39.8325 23.7434C39.7356 23.9702 39.3314 24.006 39.3301 24.322C39.0462 24.4269 38.9939 24.6612 38.8296 24.8478C38.5362 25.1444 38.1799 25.4176 37.9759 25.7927C37.3331 26.7231 36.8011 27.7132 36.1809 28.6631C36.1904 29.2801 35.5363 29.7607 35.5432 30.4065C35.3228 30.7407 35.4047 31.1171 35.2737 31.4525C35.1711 31.6354 35.1982 31.7472 35.1295 31.9168C35.0603 32.0387 34.9123 32.1637 34.9551 32.3189C34.9457 32.8435 34.6435 33.4152 34.6706 33.9957C34.5705 34.3977 34.4446 34.8042 34.5018 35.2283C34.1033 36.2774 34.391 37.3794 34.131 38.4851C34.0932 38.8501 33.9289 39.3012 34.1241 39.609C33.9591 39.8892 34.0095 40.2259 34.0378 40.5281C33.876 40.7153 34.0668 40.8868 34.0278 41.0835C33.9749 41.843 33.8572 42.5548 33.9768 43.3257C33.6676 43.8245 33.9503 44.3843 33.8357 44.9327C33.5801 45.696 33.5411 46.5423 33.436 47.3634C33.3037 48.1116 32.7566 48.7908 32.7226 49.5641C32.5753 49.8481 32.479 50.1522 32.3776 50.4543C32.185 50.6032 32.02 50.8294 32.0446 51.0763C31.6826 51.4419 31.6114 51.9276 31.3583 52.3604C31.1071 53.0031 30.6368 53.49 30.4033 54.1421C29.9846 54.4883 29.6811 54.9444 29.5401 55.4633C29.3097 55.5758 29.0824 55.7912 29.1208 56.062C28.7928 56.258 28.6215 56.6557 28.5498 56.9774L28.5485 56.9755C28.1147 57.872 27.3032 58.5587 27.0243 59.5136C26.639 60.0677 26.168 60.5822 26.0849 61.2903C25.7141 62.1321 25.0952 62.9337 24.9913 63.8126C24.759 64.2047 24.7546 64.6633 24.5979 65.0873C24.4606 65.3562 24.3271 65.6735 24.3882 65.9807C24.1874 66.1598 24.3454 66.3532 24.2913 66.5612C24.2925 67.0267 24.1257 67.53 24.154 67.971C23.8682 68.3228 24.1106 68.7192 24.0306 69.0823C23.9003 69.4674 24.2346 69.7671 24.1351 70.1365C24.3101 70.5216 23.9695 70.9759 24.2906 71.2944C24.3914 71.6544 24.2875 72.0979 24.5462 72.4001C24.9781 72.8003 24.861 73.5033 25.264 73.9104C25.5013 74.1422 25.4358 74.5273 25.6096 74.7912C25.7009 74.9187 25.8507 74.9432 25.9798 75.0161C26.0421 75.1788 26.1032 75.3107 26.2524 75.3704C26.6509 75.7857 27.2024 75.9145 27.7344 76.0257C28.1368 76.1526 28.5038 75.8366 28.9206 75.8315C29.4192 75.6581 29.6496 75.2046 29.9229 74.8515C30.0664 74.7189 30.0822 74.6592 30.0979 74.4714C30.3919 74.3439 30.3195 73.9606 30.5676 73.781C30.8282 74.2936 30.6589 74.9822 30.9699 75.4244C31.2179 75.7838 31.1443 76.3272 31.5667 76.5459C31.6952 77.0321 31.8494 77.3305 32.3222 77.5058C32.4481 77.7973 32.5829 78.0499 32.88 78.2006C33.7438 78.832 34.5894 79.721 35.7025 79.6255C36.2628 79.8573 37.4326 79.9308 37.9211 79.628C38.1081 79.6959 38.2126 79.4898 38.392 79.5055C38.8032 79.3685 39.1129 78.9451 39.4038 78.6448C40.1177 79.5112 41.035 80.1011 41.9423 80.7796C42.0317 81.0252 42.2464 80.9806 42.4327 81.0604C42.9773 81.5027 43.6377 81.7565 44.268 82.0467C45.92 83.0846 48.4106 83.3648 49.7271 81.818C49.7762 81.9569 49.853 82.0913 49.9569 82.2157C50.4146 82.7636 51.0763 83.0595 51.7311 83.302C52.3959 83.5482 53.0784 83.7662 53.7785 83.8887C55.2297 84.1425 56.8105 84.0464 58.0477 83.1669C58.0785 83.1449 58.1081 83.121 58.1371 83.0965C58.3335 83.2171 58.528 83.3415 58.7264 83.4596C59.2615 83.7788 59.8407 84.0521 60.4621 84.14C61.1509 84.2374 61.8466 84.2054 62.5404 84.2022C62.9849 84.2003 63.4407 84.1733 63.8455 84.0182C64.329 83.9315 64.7924 83.7411 65.1884 83.4446C65.4107 83.5162 65.6373 83.5727 65.8671 83.6161C66.0321 83.6469 66.1989 83.6726 66.3657 83.6934C67.98 84.4315 69.6925 85.0893 71.4868 84.9901C72.9694 84.9084 74.2941 84.3323 75.5432 83.601C75.7377 83.5357 75.9298 83.4615 76.118 83.3799C76.1677 83.3736 76.2175 83.3667 76.2678 83.3598C76.2817 83.3572 76.2949 83.3541 76.3081 83.3497C76.3969 83.3202 76.4957 83.2775 76.5795 83.2366C76.6834 83.1857 76.7728 83.1028 76.859 83.0299C76.8741 83.0161 76.8874 83.0004 76.9012 82.986C76.9239 82.9715 76.9465 82.9545 76.9686 82.9376C76.9887 82.9231 77.0082 82.9081 77.0271 82.893C77.0756 82.8565 77.1272 82.8226 77.1883 82.8038C77.3488 82.9621 77.5616 82.8936 77.7612 82.9162C77.8947 82.9728 78.0326 83.05 78.1931 83.035C78.7925 83.3233 79.3289 83.7738 80.0265 83.787C81.3681 84.4102 83.0113 83.4735 84.0262 82.5713C84.7811 82.0851 85.5101 81.5812 86.2083 81.0472C86.2367 81.4304 86.5181 81.6591 86.6497 81.9996C86.8933 82.2993 86.9242 82.8836 87.4417 82.8182C88.1626 83.5338 89.4664 83.4377 90.2566 82.8766C90.7854 82.8314 90.9157 82.3464 91.2545 82.0505H91.2532C91.7342 81.791 92.1264 81.3952 92.3204 80.8788C92.44 81.5737 92.5709 82.3426 93.1161 82.881C93.4492 83.16 93.6305 83.5036 94.1229 83.4213H94.1216C94.6013 83.5357 94.4735 83.7103 95.0364 83.5388C95.9386 83.4955 96.7041 83.0488 97.4408 82.5349C97.8821 82.2635 98.9429 81.7948 99.084 81.2533C99.4517 81.0007 99.842 80.7299 100.123 80.3718C100.824 79.9252 101.31 79.28 101.798 78.6052C102.108 78.129 102.61 77.808 102.874 77.3261C102.862 76.8361 103.351 76.5452 103.387 76.0809C103.67 75.7605 103.601 75.3107 103.784 74.9639C103.951 74.6705 103.888 74.3093 103.854 73.9889C104.008 73.6189 104.048 73.1986 104.056 72.7814C104.092 72.6262 104.011 72.4862 104.006 72.3285L104.004 72.3291ZM68.9527 8.85217C68.9873 8.99667 69.0333 9.18702 69.1863 9.23665C69.2316 9.52879 69.2121 9.83223 69.4205 10.0659C69.1189 10.2959 69.3361 10.6376 69.1265 10.8581C68.9281 10.1024 69.0534 9.30073 68.7821 8.61972C68.8362 8.7083 68.8494 8.78055 68.9527 8.8528V8.85217ZM67.244 11.4701C67.2705 11.5605 67.3152 11.6095 67.4153 11.6981C67.7873 11.8985 67.2812 12.1837 67.1389 12.3917C67.3769 12.0694 67.0816 11.7741 67.244 11.4701ZM27.2176 64.1023C26.9179 64.1444 26.9922 63.9395 27.0803 63.7341C27.2239 63.5777 27.2484 63.3898 27.3057 63.1919C27.3661 63.0204 27.5116 62.8904 27.5758 62.7069C27.4971 63.1593 27.3397 63.6443 27.2176 64.1023ZM29.2587 72.0388C29.2511 72.0458 29.2454 72.0539 29.2385 72.0615C29.2159 72.0049 29.2159 71.9452 29.2354 71.8881C29.292 71.9276 29.3336 71.9955 29.2587 72.0388ZM30.9925 70.6291C31.1096 70.3162 31.3457 70.0605 31.3621 69.7081C31.4968 69.9807 31.3483 70.2295 31.444 70.5191C31.296 70.6071 31.1499 70.6039 30.9925 70.6284V70.6291ZM31.4389 69.1715C31.4654 69.0415 31.471 68.9058 31.4893 68.7764C31.5308 68.9045 31.4748 69.0453 31.4389 69.1715ZM31.8456 66.9162C31.874 66.8408 31.8998 66.7629 31.9117 66.6824C31.9275 66.7591 31.8746 66.8458 31.8456 66.9162ZM32.0717 60.6991C31.7997 60.9058 31.7606 61.316 31.4723 61.5139C31.2186 61.7099 31.325 62.041 31.0857 62.2628C31.0303 62.2351 30.9699 62.2094 30.9088 62.1987C31.0026 62.0555 30.9837 61.8211 31.1581 61.7482C31.3986 61.6553 31.3407 61.4391 31.5132 61.2972C31.8009 60.8411 32.1264 60.4848 32.4966 60.0916C32.5098 59.6757 32.7812 59.4903 32.9984 59.1775C32.9229 59.7605 32.5149 60.2989 32.0723 60.6991H32.0717ZM33.0022 53.6257C32.9701 53.6144 32.938 53.6043 32.9046 53.5981C32.9222 53.5246 32.943 53.4523 32.9852 53.3863C32.9883 53.3845 32.9915 53.3826 32.9946 53.3807C33.0097 53.463 33.0406 53.5434 33.0022 53.6257ZM33.4788 71.322C33.4454 71.241 33.3843 71.1681 33.4303 71.0789C33.441 71.0362 33.4486 71.001 33.453 70.9689C33.4473 71.0883 33.514 71.2089 33.4788 71.322ZM34.3476 76.9592C34.3105 76.9184 34.2979 76.8619 34.2689 76.8147C34.3728 76.8807 34.454 76.9774 34.5573 77.0528C34.4798 77.0497 34.403 77.0133 34.347 76.9586L34.3476 76.9592ZM91.6864 63.0141C91.704 63.0456 91.7235 63.0751 91.7462 63.1034C91.7052 63.1907 91.6599 63.3188 91.5762 63.3704C91.5818 63.2372 91.58 63.1122 91.6857 63.0148L91.6864 63.0141ZM90.0073 67.9521C89.9928 68.0011 90.0847 68.1035 90.0098 68.0878C90.0054 68.0413 89.9884 67.9974 90.0073 67.9521ZM88.8463 43.6505C88.8369 43.6341 88.8268 43.6191 88.8161 43.604C88.8022 43.543 88.7846 43.4834 88.7632 43.4249C88.8331 43.4865 88.8406 43.5638 88.8457 43.6511L88.8463 43.6505ZM88.5882 43.1322C88.5315 43.0386 88.5158 42.911 88.4408 42.8206C88.6518 42.8369 88.5649 42.9783 88.5882 43.1322ZM87.8761 47.2943C87.8937 47.5695 88.0052 47.7787 88.0574 48.0293C87.7622 48.1148 87.4681 48.2128 87.1477 48.2033C86.8027 47.7095 87.8673 47.8352 87.8761 47.2943ZM86.7152 30.2193C86.9638 30.4668 87.0155 30.8645 87.2125 31.1541C86.8625 31.0228 86.6944 30.6547 86.3639 30.4693C86.5414 30.4693 86.6503 30.3676 86.7152 30.2193ZM86.3538 36.9032C86.5376 37.1243 86.6006 37.4271 86.6572 37.7061C86.6635 37.7287 86.6717 37.7513 86.6799 37.7733C86.5036 37.5641 86.4803 37.2644 86.2656 37.0684C86.316 37.0269 86.3456 36.9672 86.3538 36.9025V36.9032ZM85.6323 43.5079C85.6606 43.4293 85.6789 43.3464 85.6864 43.2629C85.9024 43.4042 85.7374 43.6605 85.7796 43.8993V43.898C85.7362 43.9344 85.6877 43.9703 85.6474 44.0123C85.682 43.844 85.6071 43.6662 85.6323 43.5079ZM75.8347 22.3807C75.7925 22.392 75.7547 22.3807 75.7163 22.3613V22.3625C75.6924 22.3556 75.6729 22.343 75.6546 22.3267C75.7132 22.3493 75.778 22.3569 75.8341 22.3814L75.8347 22.3807ZM74.974 22.1062C75.0571 22.1483 75.1428 22.1923 75.2366 22.2004C75.1365 22.262 75.0402 22.1144 74.9344 22.0942C74.9489 22.0949 74.9614 22.0993 74.974 22.1068V22.1062ZM74.5302 21.9981C74.5938 22.0289 74.6637 22.0415 74.7329 22.0559C74.5699 22.1539 74.4899 22.0767 74.3231 22.0157C74.3929 22.0207 74.4635 22.0076 74.5302 21.9981ZM73.7464 21.8668C73.6985 21.8612 73.65 21.858 73.6015 21.8568C73.5751 21.8272 73.548 21.7996 73.5191 21.7726C73.5971 21.7952 73.6645 21.8524 73.7464 21.8668ZM72.8328 27.161C73.8288 27.6737 75.2391 27.3055 75.6911 28.4791C74.9237 28.207 74.0888 27.7723 73.254 27.5612C73.0223 27.4475 72.8309 27.3369 72.6257 27.1805C72.6949 27.1792 72.7642 27.1717 72.8335 27.1616L72.8328 27.161ZM71.0505 21.351C71.2224 21.4446 71.4263 21.456 71.6171 21.4277C71.7714 21.5251 71.9495 21.5062 72.1233 21.5112C71.7317 21.7393 71.3949 21.6614 70.9951 21.5182C71.0146 21.4629 71.0328 21.407 71.0505 21.351ZM68.9086 38.1911C68.8337 38.1722 68.7563 38.1622 68.6795 38.1628C68.6511 38.1515 68.6234 38.1414 68.5938 38.132C68.6637 37.8587 68.8054 38.0516 68.908 38.1911H68.9086ZM67.6104 33.6822C67.5456 33.6583 67.4776 33.642 67.4083 33.6388C67.1244 33.718 67.0627 33.7513 66.8587 33.5088C67.1099 33.6841 67.4127 33.4491 67.6104 33.6822ZM65.648 33.5917C65.6027 33.6363 65.5624 33.6866 65.529 33.74C65.4862 33.7142 65.4478 33.6815 65.4069 33.6533C65.4906 33.6508 65.5687 33.5999 65.648 33.5917ZM65.2243 10.49C65.2274 10.485 65.23 10.4793 65.2331 10.4743C65.2684 10.5032 65.23 10.539 65.2218 10.5748C65.2249 10.5465 65.2268 10.5183 65.2243 10.49ZM64.8749 12.1153C64.8188 12.332 64.8484 12.5645 64.8113 12.7818C64.822 12.6995 64.8201 12.6166 64.8006 12.5362C64.6999 12.3772 64.805 12.2541 64.8749 12.1153ZM64.691 13.1204C64.7175 13.0758 64.7402 13.0287 64.759 12.9803C64.7471 13.0978 64.7408 13.2078 64.6879 13.3158C64.6665 13.2499 64.681 13.187 64.691 13.1204ZM64.4908 15.21C64.499 15.2615 64.5135 15.3099 64.4795 15.3557C64.4663 15.3074 64.4795 15.2584 64.4908 15.21ZM64.3385 16.0242C64.3882 16.4451 64.5047 16.9182 64.9637 17.0444C64.9215 17.0639 64.902 17.1205 64.856 17.1249C64.5651 17.1311 64.3372 17.3026 64.0904 17.3956C64.1565 17.2599 64.1924 17.0922 64.0791 16.9785C64.2157 16.6863 64.3183 16.3597 64.3385 16.0235V16.0242ZM62.6084 28.5369C62.7526 28.6229 62.9144 28.6738 63.0648 28.7379C62.7456 28.6958 62.4094 28.5947 62.1116 28.4458C62.2986 28.4232 62.4403 28.4087 62.6084 28.5369ZM61.2944 31.8841C61.2749 31.9413 61.2586 31.9985 61.2485 32.0569C61.2088 32.0236 61.1629 31.9985 61.1244 31.9639C61.0426 31.8954 60.9469 31.8483 60.8455 31.815C61.0029 31.8106 61.1421 31.854 61.2944 31.8835V31.8841ZM59.4447 34.0616H59.4441C59.497 34.4562 60.0554 34.5341 60.1329 34.8193C59.9956 34.7904 59.9125 34.6296 59.769 34.5906C59.5152 34.5272 59.2905 34.3965 59.0361 34.3249C59.2036 34.3035 59.3748 33.7506 59.4447 34.0616ZM58.9411 8.95017C58.9411 8.99415 58.9222 9.03813 58.9222 9.08336C58.8945 9.03624 58.8435 9.0086 58.8051 8.97154C58.851 8.97028 58.8964 8.96211 58.9411 8.95017ZM56.8401 37.5584C56.8892 37.6055 56.9402 37.6527 56.9799 37.7098H56.9793C56.9881 37.7224 56.9982 37.7337 57.0076 37.745C56.9597 37.7488 56.8987 37.8078 56.8376 37.7946C56.8426 37.7167 56.8445 37.6369 56.8401 37.5578V37.5584ZM51.8349 31.1811C51.8022 31.1824 51.7701 31.1855 51.738 31.1918C51.6297 31.1246 51.4698 31.1397 51.3898 31.0486C51.5478 31.0787 51.7071 31.0674 51.8349 31.1805V31.1811ZM43.1114 37.1922C43.1253 37.2474 43.1372 37.3027 43.1486 37.3586C43.1486 37.3586 43.1486 37.3593 43.1486 37.3599C43.1139 37.3341 43.0755 37.3153 43.0346 37.3071C43.0516 37.2657 43.0887 37.233 43.1114 37.1922ZM39.6153 36.9628C39.8552 36.748 39.6789 36.4659 39.728 36.1964C39.7922 36.2793 39.8905 36.3202 39.9868 36.3396C39.8023 36.6638 39.7752 37.0483 39.6191 37.3725C39.6569 37.2342 39.599 37.0923 39.6147 36.9635L39.6153 36.9628ZM36.3799 75.8793C36.2364 75.5727 35.9839 75.3597 35.7786 75.0896C35.9688 74.991 36.1451 74.8081 36.1281 74.5839C36.4756 74.9143 36.2918 75.4175 36.4038 75.8171C36.3944 75.8372 36.3868 75.8579 36.3805 75.8793H36.3799ZM37.6554 77.6629C37.4326 77.5492 37.3123 77.7722 37.1083 77.7502C37.17 77.4141 37.6819 77.6453 37.8519 77.3487C37.8601 77.4813 37.7549 77.5825 37.6554 77.6629ZM37.1153 65.9575C37.1581 65.9757 37.2009 65.9926 37.2437 66.009C37.2298 66.0416 37.2179 66.0762 37.2091 66.1107C37.148 66.0894 37.1518 66.0058 37.1153 65.9581V65.9575ZM37.9513 77.1376C37.9709 77.0723 37.996 77.0076 38.0275 76.9467C38.1062 77.034 37.9992 77.0654 37.9513 77.1376ZM38.574 74.7403C38.4796 74.9558 38.7031 75.344 38.3832 75.437C38.4531 75.2159 38.4714 74.9551 38.3518 74.7503C38.2529 74.3369 38.4021 73.7916 38.3366 73.3292C38.4953 73.1653 38.387 72.9693 38.4034 72.7758C38.4009 72.5377 38.5066 72.3222 38.4084 72.0847C38.7931 72.2437 38.5029 72.8907 38.5148 73.2576C38.5878 73.7357 38.7037 74.2258 38.5734 74.7397L38.574 74.7403ZM41.0338 71.3647C40.9261 71.1336 40.6416 71.1417 40.7435 70.8439C40.7719 70.7855 40.8034 70.7359 40.8588 70.7001C41.0476 70.8609 41.035 71.1304 41.0338 71.3647ZM39.1897 60.199C38.6628 59.9596 38.2863 59.6738 37.9287 59.2083C37.6252 58.8916 37.481 58.4054 37.0548 58.2452C36.2993 56.6934 35.4431 54.9758 35.8045 53.2192C35.9083 52.7901 35.9027 52.3058 36.254 51.9759C36.4384 51.7818 36.5291 51.5921 36.6802 51.3659C36.8552 51.3697 36.9566 51.261 37.0246 51.1209C37.6151 50.8269 38.4443 50.6485 39.0676 51.0147H39.067C39.451 51.0625 39.5184 51.4118 39.796 51.6046C39.4592 51.7027 39.1973 51.4168 38.8579 51.474C38.1383 51.609 37.3772 51.7008 36.9144 52.3347C36.4479 52.4873 36.3377 52.9899 36.3276 53.4247C36.1476 53.7407 35.9946 54.0397 36.0701 54.4066H36.0714C35.7037 55.8321 37.0617 57.0082 38.0603 55.6951C38.1333 55.1586 37.9092 54.4694 38.1308 54.0026C38.484 53.7419 38.2812 53.1803 38.907 53.5874C39.3874 53.5748 39.5687 53.8494 39.8816 54.1478C40.2783 54.2609 40.4092 54.8326 40.8613 54.896C41.1257 55.4501 40.8902 56.2002 41.1962 56.8134C41.3253 58.548 41.7471 60.16 42.2873 61.7765C41.3032 61.1269 40.0069 61.1238 39.1897 60.199ZM42.2508 63.0317C42.371 62.8753 42.4806 62.7038 42.5253 62.5084C42.6191 62.6353 42.5555 62.7911 42.6021 62.9344C42.6336 63.043 42.6896 63.136 42.7041 63.2491C42.5586 63.1787 42.4315 62.9959 42.2508 63.0311V63.0317ZM43.255 71.7612C43.2109 71.5664 43.141 71.3321 43.146 71.1285C43.2077 71.4056 43.4281 71.5853 43.5767 71.8146C43.4734 71.7781 43.3651 71.7536 43.255 71.7612ZM45.1135 67.682C45.1506 67.7172 45.1884 67.7517 45.2268 67.7863C45.2992 67.9446 45.4371 68.0596 45.4428 68.2449C45.2917 68.0859 45.1903 67.873 45.1135 67.682ZM45.5869 68.5088C45.6367 68.5596 45.6965 68.5904 45.7594 68.6149C45.9848 68.8983 46.2512 69.1364 46.3997 69.47C46.0679 69.2451 45.6423 68.9121 45.5869 68.5088ZM52.9197 80.3605C52.6704 80.2085 52.4633 80.3989 52.2265 80.2116C51.942 80.0068 51.6051 79.8806 51.3527 79.6299C51.4994 79.2774 53.0148 80.5647 53.5367 80.5829V80.5842C53.6412 80.6294 53.7457 80.6131 53.8194 80.7086C53.5109 80.5521 53.1848 80.5854 52.9197 80.3605ZM54.4647 80.99C54.544 80.9951 54.6252 80.9881 54.7027 80.9699C54.9677 80.8983 55.1994 80.6633 55.2215 81.0874C54.9728 81.0271 54.7084 81.0296 54.4647 80.99ZM58.3071 75.9679C58.3045 75.9446 58.302 75.9214 58.3008 75.8969C58.3266 75.9101 58.3524 75.922 58.3782 75.9327C58.3543 75.9434 58.3304 75.9559 58.3071 75.9679ZM60.4615 76.3869C60.4338 76.3593 60.4055 76.3329 60.3759 76.3065C60.4162 76.3128 60.4565 76.3191 60.4968 76.326C60.4848 76.3461 60.4728 76.3662 60.4615 76.3869ZM64.6608 79.0293C64.6451 79.1229 64.63 79.2171 64.6155 79.3114C64.5236 79.2875 64.4298 79.2749 64.3353 79.2718C64.307 79.2354 64.2793 79.1989 64.251 79.1625C64.2289 79.1411 64.2063 79.121 64.1836 79.1015C64.1842 79.0777 64.1849 79.0538 64.1836 79.0293C64.1672 78.6712 64.1509 78.3125 64.1345 77.9544C64.1332 77.9299 64.132 77.9054 64.1307 77.8809C64.2176 78.0549 64.302 78.2302 64.3825 78.408C64.4499 78.5569 64.5658 78.6743 64.7062 78.7598C64.6917 78.8477 64.6728 78.9595 64.6615 79.0299L64.6608 79.0293ZM69.3336 78.3878C69.2776 78.2823 69.2152 78.1799 69.1447 78.0819C69.1617 78.036 69.2348 77.8557 69.2133 77.8997C69.2669 77.7847 69.3248 77.6735 69.3814 77.5623C69.4073 77.8394 69.3122 78.1095 69.3342 78.3878H69.3336ZM79.2168 81.4204C79.1658 81.4179 79.1432 81.3852 79.1161 81.3469C79.152 81.323 79.1872 81.2985 79.2218 81.274C79.2174 81.3224 79.2162 81.3714 79.2168 81.4204ZM79.2527 71.9019C79.2754 71.8416 79.3125 71.797 79.3818 71.797C79.3899 71.7951 79.3981 71.7932 79.4063 71.7913C79.3629 71.8397 79.3024 71.8642 79.2527 71.9019ZM79.7803 76.1199C79.9509 76.0684 79.9421 75.8472 80.0982 75.8083C80.0982 75.8196 80.0982 75.8303 80.0995 75.8416C80.1033 75.883 80.114 75.9233 80.1272 75.9622C79.995 75.9798 79.9131 76.135 79.7809 76.1205L79.7803 76.1199ZM80.1555 71.0437C80.0951 71.0933 80.056 71.1675 79.9981 71.2159C80.0403 71.1467 80.1026 71.0958 80.1587 71.0381C80.1574 71.0399 80.1562 71.0418 80.1555 71.0437ZM81.297 69.6842C81.3278 69.4888 81.4607 69.3808 81.5822 69.24C81.9807 68.4315 82.4038 67.6581 82.6846 66.7974C82.7349 66.8401 82.7859 66.8822 82.8275 66.935H82.8262C83.2184 67.4552 81.6382 69.1672 81.297 69.6842ZM82.0795 76.6131C82.0537 76.6087 82.0279 76.6049 82.0021 76.6018C82.038 76.576 82.0783 76.5835 82.1198 76.5804C82.1066 76.5917 82.0928 76.6024 82.0789 76.6131H82.0795ZM83.459 76.4315C83.1523 76.3687 82.9131 76.4918 82.6254 76.4284C82.9062 76.3417 83.2361 76.3335 83.4848 76.1369C83.4936 76.2305 83.5144 76.3235 83.5433 76.4139C83.515 76.4177 83.4867 76.4233 83.459 76.4321V76.4315ZM83.4413 45.9863C83.4237 46.3852 83.5125 46.764 83.4948 47.1762C83.4149 47.4394 83.2304 47.7699 83.3884 48.0337C83.4753 48.4182 83.129 48.7367 83.3412 49.1193C83.1228 49.4956 83.3154 49.9027 83.2399 50.2778C83.1221 50.6177 83.255 50.9563 83.3066 51.2912C83.272 51.7542 83.2625 52.2027 83.1681 52.6337C83.3022 52.8517 83.1121 53.0829 83.1505 53.3254C83.2537 53.642 83.0541 53.9203 83.0881 54.2307C83.2619 54.4606 83.0673 54.5549 83.0762 54.7917C83.1643 55.0059 83.0434 55.2208 83.0743 55.457V55.4558C82.944 55.969 82.8791 56.488 82.8224 57.0352C82.9081 57.3983 82.7349 57.7627 82.8023 58.1327C82.7261 59.0531 82.3962 59.9753 82.3994 60.8976C82.1368 61.9926 81.6678 63.0544 81.6067 64.15C81.3177 65.1294 80.9431 66.0812 80.5585 67.0198C80.1839 67.7304 79.8092 68.4924 79.2615 69.071C79.2508 69.3211 78.8554 69.3481 78.8592 69.6163C78.7994 69.8431 78.4601 69.8199 78.3115 69.9908C78.059 70.5939 77.6536 70.5154 77.4578 70.9344C77.2147 71.0619 76.8811 71.1342 76.6972 71.334C76.6601 71.5765 76.3327 71.459 76.181 71.601C76.05 71.8259 75.7472 71.7813 75.6496 72.0194C75.4034 72.238 75.0206 72.2191 74.7751 72.4616C74.1776 72.5791 73.6954 73.078 73.0872 73.1207C72.7541 73.0333 72.484 73.2746 72.1692 73.3695C71.9514 73.4279 71.6989 73.3965 71.5214 73.5931C71.1065 73.7056 70.6689 73.6704 70.2534 73.808C69.9663 73.835 69.7101 73.9619 69.4986 74.1372C68.9558 74.1724 68.3842 74.2911 67.8711 74.3338C67.2132 74.2766 66.5918 74.5669 65.9307 74.5229C65.5517 74.6033 65.1311 74.3615 64.8403 74.6837C64.3567 74.6272 63.7492 74.3269 63.2927 74.5725C62.6625 74.5606 62.7884 74.3219 62.1733 74.4745C61.851 74.5606 61.5727 74.1692 61.2478 74.3476C61.0294 74.1906 60.8732 74.401 60.6617 74.3979C60.3324 74.3106 60.0365 74.2691 59.6928 74.2578C59.3383 74.0461 58.8951 73.8695 58.4777 73.8934C57.658 73.8325 56.8628 73.3682 56.0613 73.2281C55.5923 73.1213 55.1453 73.0836 54.7839 72.6998C54.1864 72.5798 53.5883 72.4076 53.0406 72.0916H53.0412C52.4809 71.6826 51.8368 71.4678 51.257 71.0456H51.2576C51.0385 70.9093 50.8975 70.6611 50.6186 70.6379C50.4668 70.3099 50.1552 70.2327 49.8801 70.085C49.4809 69.6314 49.0843 69.1986 48.5441 68.8926C48.2199 68.412 47.8881 67.9578 47.4612 67.5733C47.4392 67.3823 47.3548 67.2498 47.1735 67.1926C47.0274 67.0305 46.911 66.8383 46.7196 66.7176C46.1869 65.9562 45.8363 65.169 45.4081 64.363C45.4472 64.0036 45.2048 63.7618 44.9825 63.5287C44.8768 63.2039 44.7477 62.8539 44.5336 62.5813C43.9267 60.5213 43.2858 58.4745 43.0497 56.3667C43.0988 55.7975 42.9295 55.3201 42.8476 54.7848C43.0296 54.0133 42.8344 53.2506 42.6864 52.5294C42.6581 52.1795 42.8438 51.7912 42.6367 51.4671C42.5316 51.2748 42.7689 51.0644 42.7198 50.852C42.5083 50.4317 42.6965 49.9662 42.7985 49.5585C42.9704 49.1281 42.9849 48.6576 43.2159 48.2498C43.4898 47.942 43.617 47.5022 43.5968 47.1127H43.5962C43.5754 46.8897 43.8411 46.7301 43.7888 46.5153C43.8084 46.323 44.0665 46.2388 44.0445 46.0328C43.9985 45.8606 44.0602 45.6609 44.0973 45.4994C44.4921 44.5746 44.37 43.5481 44.6205 42.5881C44.6923 42.4273 44.6936 42.367 44.6514 42.2225C44.7565 42.0459 44.8037 41.9391 44.7446 41.7413C44.8321 41.588 44.7345 41.3913 44.8698 41.2606C45.0335 40.9861 44.9303 40.623 44.8862 40.3221C45.0417 40.0645 44.9542 39.7824 44.9416 39.5053C45.0549 39.0329 45.1475 38.6007 45.094 38.11C45.2904 37.4943 45.3118 36.89 45.32 36.2617C45.4006 36.4401 45.5674 36.5262 45.75 36.5557C45.8067 36.7015 45.8986 36.8322 46.027 36.9176C46.3978 36.9628 46.5748 37.4654 46.9997 37.3103C47.6249 37.7331 48.2967 38.1364 49.0081 38.4135C49.4727 38.8652 50.198 38.6717 50.7596 38.9877C51.454 39.5324 52.44 39.3062 53.2584 39.653C53.9957 39.7309 54.7581 39.8754 55.4916 39.7635C55.7428 39.7271 56.0248 39.9225 56.2546 39.7924C56.8955 39.6002 57.7455 39.7598 58.4128 39.4777C58.8441 39.4551 58.8743 38.9506 59.1318 38.7364C59.4158 38.4851 59.4353 37.7438 59.1331 37.4767C59.2061 37.1218 58.9826 36.8887 58.6993 36.7273C58.54 36.3434 58.0974 36.1976 57.8412 35.8879C58.2441 36.0261 58.5602 36.2925 58.9876 36.3893C59.3075 36.5319 59.4737 36.8799 59.8804 36.8548C60.4716 37.1394 60.9519 37.5835 61.5935 37.7651C62.2728 38.0334 62.7746 38.6541 63.5162 38.7269C64.0054 39.08 64.6186 39.2622 65.1802 39.4061C65.6474 39.5386 66.5049 40.1449 66.9884 39.9803C67.239 40.0494 67.5349 40.3038 67.8106 40.0833C68.6039 40.415 70.6054 40.3296 71.1392 39.6228H71.1386C71.2469 39.4325 71.449 39.298 71.5258 39.1026C71.5208 39.0021 71.5296 38.9091 71.5944 38.8268C71.7021 38.475 71.6077 38.0547 71.5711 37.6922C71.4496 37.4749 71.1934 37.4259 71.1965 37.1413C71.1021 36.8341 70.7659 36.7122 70.6343 36.4301C71.1462 36.3371 71.5693 36.7229 72.0673 36.7995C72.2133 36.9264 72.4211 37.1073 72.6163 36.9848C72.7252 37.1475 72.9279 37.0458 73.0595 37.167C73.2779 37.2707 73.487 37.4749 73.7249 37.3034C74.0435 37.3668 74.3186 37.6979 74.6788 37.6533C75.0855 37.6256 75.5186 38.0239 75.9027 37.7997C76.2395 37.9033 76.548 37.9925 76.9113 37.8845C77.8569 38.0861 78.8032 38.0271 79.7513 38.0843C80.0183 38.2533 80.3438 38.1848 80.6384 38.2124C80.9054 38.487 81.3291 38.5875 81.6741 38.5297C81.9819 38.6905 82.1614 38.965 82.4176 39.1787C82.7167 39.2647 82.8338 39.4589 83.0283 39.6838C82.978 40.0324 83.4042 40.1713 83.3935 40.498C83.5011 40.7637 83.3651 41.0628 83.5181 41.3153C83.695 41.4837 83.6208 41.7168 83.6988 41.9278C83.5509 43.2999 83.678 44.6663 83.4432 45.9863H83.4413ZM83.7259 26.9455C83.5402 26.8921 83.5383 26.5303 83.2764 26.4549C83.0554 26.1389 82.6128 26.0899 82.4044 25.7494H82.4057C82.2394 25.4981 81.9593 25.2367 81.7685 25.0237C82.2155 25.1268 82.4164 25.6671 82.881 25.8078C83.2638 26.23 83.8216 26.5378 84.2233 26.9499C84.4461 27.183 84.6445 27.3432 84.7427 27.6529C84.3032 27.5574 84.0652 27.1667 83.7259 26.9455ZM85.6789 76.1098C85.6115 76.1105 85.5435 76.1155 85.478 76.1325C85.5989 76.0621 85.6235 75.8372 85.7809 75.9239C85.7399 75.9823 85.7047 76.0439 85.6795 76.1092L85.6789 76.1098ZM87.4681 78.5418C87.317 78.3351 87.0759 78.3363 86.8467 78.3514C86.8512 78.3445 86.8549 78.337 86.8587 78.3294C87.2686 78.2245 87.2837 77.3996 87.7899 77.5592C87.7401 77.9154 87.6123 78.2151 87.4681 78.5424V78.5418ZM87.7099 69.9066C87.6803 69.906 87.6514 69.9085 87.623 69.9122C87.8465 69.4122 87.878 68.8116 87.562 68.3303C87.7181 68.27 87.8522 68.1657 87.9479 68.0363C88.026 68.2782 88.031 69.9738 87.7099 69.9072V69.9066ZM88.6555 57.9455C88.4339 58.134 88.2287 58.3752 88.0958 58.6322C88.0933 58.9073 88.0373 59.1467 87.7414 59.2359C87.3712 59.7611 87.0079 60.2078 86.5294 60.6331C86.4029 61.1269 85.779 61.1131 85.6808 61.5547C85.5215 61.8305 85.1828 61.7457 84.958 61.9304C84.7867 62.2326 84.4436 62.2565 84.1433 62.3564C84.1836 62.1139 84.0287 61.8682 84.2113 61.6703C84.3479 60.8875 84.5167 60.0941 84.5784 59.3006C84.7206 58.8916 84.9334 58.3865 84.7943 57.9719C84.9429 57.5899 84.9586 57.1476 84.9208 56.8027C85.0965 56.5037 85.0165 56.2178 84.9574 55.9175C85.3905 56.1581 85.7022 55.7429 86.1133 55.6901C86.3481 55.6311 86.4703 55.4332 86.6321 55.2717C86.8386 55.2415 86.9865 55.0348 87.1905 54.972C87.2283 55.4884 87.6463 55.8779 88.1645 55.7247C88.9634 55.7039 89.4413 54.5348 88.9634 53.9392C88.6467 53.267 87.9309 53.0075 87.2119 52.9792C86.4923 53.0791 85.8709 53.561 85.2035 53.7809C85.2375 53.4843 85.1576 53.2161 85.2816 52.9202C85.4107 52.912 85.5643 52.8888 85.6354 52.7769C85.7494 52.4107 86.2568 52.5577 86.4463 52.2448C86.9229 51.8547 87.584 51.6939 88.1852 51.8283C88.2885 51.8201 88.3659 51.7667 88.444 51.7108C88.6297 51.8949 88.903 51.9351 89.1177 52.111C89.418 52.2612 89.3569 52.657 89.5527 52.9158C89.5407 53.2199 89.5502 53.4843 89.6912 53.757C89.6622 54.0937 89.5804 54.3802 89.7088 54.7025C89.6194 55.1643 89.384 55.6637 89.4425 56.1632C89.0371 56.4547 89.2505 56.9183 89.0125 57.2858C88.7544 57.4077 88.5982 57.664 88.6562 57.9455H88.6555ZM89.0736 81.3205C89.0459 81.3356 89.0238 81.3645 88.9905 81.3519C89.0427 81.3261 89.0887 81.291 89.1271 81.2476C89.1101 81.2765 89.1076 81.3079 89.0736 81.3211V81.3205ZM89.2297 81.122C89.275 81.0334 89.3701 81.0227 89.4507 80.9762C89.3752 81.0183 89.2927 81.0591 89.2297 81.122ZM89.7598 73.5604C90.193 73.0698 90.4612 72.4704 90.827 71.9126C90.9674 72.2575 90.5984 72.5691 90.7653 72.8989C90.4077 73.1804 90.0885 73.5416 89.6918 73.7533C89.7384 73.6993 89.7668 73.6321 89.7592 73.5611L89.7598 73.5604ZM90.3006 76.0137C90.0916 76.3392 90.2522 76.7475 89.9103 76.9957C89.9588 76.669 89.9852 76.1733 90.3006 76.0137ZM91.121 79.3773C90.9397 79.5005 90.9088 79.7493 90.7092 79.8422C90.2956 79.9899 90.0784 80.4372 89.7756 80.6897C90.2383 80.0489 90.7816 79.4584 91.3823 78.9495C91.3004 79.0883 91.2148 79.2485 91.1204 79.3773H91.121ZM91.4257 78.8201C91.3942 78.6819 91.529 78.6222 91.6429 78.5581C91.5447 78.619 91.4723 78.7133 91.4257 78.8201ZM91.5371 66.3024C91.4962 66.2113 91.4446 66.1252 91.3886 66.0416C91.4364 66.0127 91.4912 66.0102 91.5447 65.9996C91.7921 65.9443 91.9048 65.813 92.1082 65.6967C92.2744 66.0372 91.682 66.0203 91.5371 66.3017V66.3024ZM91.9986 78.2258C92.0232 78.1862 92.0459 78.1453 92.0679 78.1058C92.1793 77.9632 92.1554 77.7854 92.2064 77.6296C92.3285 77.9091 92.3285 78.1479 91.9986 78.2258ZM93.7829 68.4912C93.8005 68.4654 93.8169 68.439 93.8314 68.412C93.8603 68.3768 93.8773 68.3347 93.8893 68.2945C93.8893 68.4051 93.9296 68.5 93.7829 68.4912ZM93.9296 55.4639C93.9503 55.518 93.9793 55.5695 94.0139 55.6185C94.0152 55.6486 94.0164 55.6782 94.0183 55.7083C93.8093 55.7548 93.8943 55.5921 93.9296 55.4639ZM94.0832 73.5328C94.0039 73.448 94.0032 73.3569 94.0234 73.2482C94.0423 73.1967 94.0857 73.1559 94.1103 73.1056C94.0517 73.2155 94.0662 73.3852 94.0832 73.5328ZM94.4219 59.9823V59.9835C94.483 59.6901 94.5592 59.42 94.5245 59.1121C94.5031 58.935 94.5245 58.7672 94.5654 58.5932C94.6523 58.7591 94.5289 58.9488 94.624 59.1197C94.5604 59.4841 94.8462 59.9345 94.4282 60.1374C94.4295 60.0859 94.4099 60.0319 94.4219 59.9829V59.9823ZM94.8488 81.4851C94.2821 81.742 94.3892 80.953 94.2349 80.6414C94.8274 80.7161 94.5887 81.4606 95.6572 81.35C95.3965 81.5027 95.1459 81.5523 94.8488 81.4851ZM95.9474 66.1918C95.9449 66.2684 95.9128 66.3476 95.9172 66.4274C95.8775 66.3482 95.9354 66.2722 95.9474 66.1918ZM95.9449 66.6397C96.0047 66.7666 95.9719 66.903 95.9921 67.0393C95.9323 66.9319 95.9505 66.7666 95.9449 66.6397ZM96.0594 67.3358C96.0594 67.4131 96.0148 67.4929 96.0179 67.5752C95.9908 67.491 96.0462 67.4188 96.0594 67.3358ZM96.0355 67.8686C96.0349 67.9848 96.1344 68.1029 96.1092 68.2047C96.1092 68.0847 95.9996 67.9942 96.0355 67.8686ZM96.0985 69.0704C96.0739 68.9265 96.0544 68.7758 96.0865 68.6306C96.1696 68.7443 96.0878 68.9177 96.0985 69.0704ZM96.1325 69.4882C96.1167 69.4335 96.1388 69.377 96.1381 69.3204C96.1784 69.3814 96.1633 69.4266 96.1325 69.4882ZM96.0966 54.2759C96.1306 54.2213 96.1583 54.1641 96.1797 54.1038C96.2231 54.2998 96.4403 54.2684 96.5398 54.4053C96.8357 54.815 97.119 55.2265 97.3866 55.6417C97.3885 55.6511 97.391 55.6587 97.3929 55.6675C96.9642 55.1863 96.5776 54.6881 96.0966 54.2753V54.2759ZM98.326 76.0307C98.1566 76.4145 98.0792 76.7613 97.731 77.0258C97.8368 76.5119 97.7625 75.677 97.1209 75.5394C97.029 74.9558 97.3262 74.4004 97.4338 73.8281C97.6605 74.3621 97.5138 75.0255 97.8393 75.5312C97.9381 75.7272 98.3757 75.8391 98.326 76.0307ZM98.4028 68.3555C98.0936 68.1167 97.9281 67.8749 98.0433 67.4747C97.9702 66.8515 97.8538 66.2351 97.845 65.6056C97.8676 65.6327 97.8909 65.6603 97.9123 65.6886C97.8185 65.9248 97.9677 66.0944 98.0471 66.2471C97.9413 66.5675 98.1213 66.8301 98.2252 67.1065C98.2088 67.3559 98.2416 67.5752 98.3291 67.8095H98.3297C98.3858 67.9879 98.4613 68.167 98.4028 68.3555ZM100.262 77.4669C99.995 77.9374 99.5952 78.2898 99.1425 78.5776C99.7557 78.0976 99.3843 78.2289 99.6752 77.8237C99.8892 77.6239 100.244 77.5906 100.314 77.2363C100.414 76.9988 100.716 76.9109 100.856 76.6866C100.754 76.9574 100.417 77.1873 100.261 77.4669H100.262Z" fill="#130D0C"/>
<path d="M91.6775 78.5389C91.6885 78.5318 91.6994 78.5253 91.7097 78.5176C91.7097 78.5176 91.7142 78.5157 91.7168 78.5144C91.7065 78.526 91.6917 78.5318 91.6775 78.5389Z" fill="#130D0C"/>
<path d="M96.1104 69.1424C96.1104 69.1391 96.1091 69.1357 96.1084 69.1323C96.1084 69.1337 96.1091 69.1357 96.1098 69.137C96.1098 69.1391 96.1098 69.1404 96.1098 69.1424H96.1104Z" fill="#130D0C"/>
<path d="M73.8759 21.8832C73.8804 21.8858 73.8849 21.8877 73.8888 21.8903C73.8759 21.8871 73.863 21.8851 73.8501 21.8826C73.8585 21.8826 73.8669 21.8826 73.8759 21.8826V21.8832Z" fill="#130D0C"/>
<path d="M93.4185 68.75C93.4243 68.7485 93.4301 68.7471 93.4359 68.7456C93.4301 68.7507 93.4243 68.7565 93.4185 68.7616C93.4185 68.7579 93.4185 68.7543 93.4185 68.7507V68.75Z" fill="#130D0C"/>
<path d="M61.8763 28.3247C61.8751 28.3209 61.8731 28.3164 61.8718 28.3125C61.8796 28.3189 61.8867 28.3247 61.8944 28.3312C61.8886 28.3292 61.8828 28.3267 61.8763 28.3247Z" fill="#130D0C"/>
<path d="M94.5509 58.4277C94.5509 58.4277 94.5509 58.4251 94.5509 58.4238C94.5593 58.4303 94.5593 58.4373 94.5561 58.447C94.5542 58.4406 94.5529 58.4341 94.5503 58.427L94.5509 58.4277Z" fill="#130D0C"/>
<path d="M54.7307 35.5002C54.7339 35.5035 54.7378 35.5067 54.741 35.5099C54.7339 35.5118 54.7268 35.5138 54.7197 35.5157C54.7236 35.5105 54.7268 35.5054 54.7307 35.5002Z" fill="#130D0C"/>
<path d="M90.9356 57.8016C90.9356 57.8016 90.9309 57.8035 90.929 57.8049C90.9323 57.8002 90.9356 57.7956 90.9389 57.791C90.9376 57.7943 90.9362 57.7976 90.9356 57.8016Z" fill="#130D0C"/>
<path d="M33.4462 70.8329C33.4443 70.8245 33.4411 70.8161 33.4385 70.8071C33.4462 70.8142 33.4475 70.8226 33.4462 70.8329Z" fill="#130D0C"/>
<path d="M80.8884 70.3145C80.8871 70.3184 80.8858 70.3223 80.8845 70.3255C80.8858 70.3216 80.8845 70.3171 80.8884 70.3145Z" fill="#130D0C"/>
<path d="M74.1447 21.9908C74.1408 21.9908 74.1369 21.9908 74.1343 21.9875C74.1382 21.9882 74.1415 21.9895 74.1447 21.9908Z" fill="#130D0C"/>
<path d="M96.1084 81.1909C96.1161 81.1864 96.1239 81.1813 96.1323 81.1768C96.1271 81.1851 96.1174 81.187 96.1084 81.1909Z" fill="#130D0C"/>
<path d="M53.9263 80.7503C53.9224 80.7484 53.9185 80.7464 53.9146 80.7451C53.9191 80.7451 53.9224 80.7477 53.9263 80.7503Z" fill="#130D0C"/>
<path d="M95.846 81.3149C95.846 81.3149 95.8422 81.3165 95.8398 81.3165C95.8422 81.3165 95.8437 81.3157 95.846 81.3149Z" fill="#130D0C"/>
<path d="M68.4747 66.896C68.3904 65.7827 67.3043 65.5873 66.5513 66.1389C65.8991 66.3777 65.2865 66.399 64.604 66.4788C64.2175 66.2275 63.8038 66.4952 63.3959 66.3877C63.1346 66.1132 62.7587 66.0717 62.4169 66.0384C62.1738 65.8757 61.8786 65.8782 61.5934 65.8569C60.8895 65.8832 60.2473 66.9714 60.9619 67.4388C61.1948 67.6718 61.4278 67.9508 61.7961 67.8748C61.9988 68.0896 62.3665 68.2988 62.653 68.1964C62.8714 68.3422 63.1579 68.3259 63.4009 68.2517C63.7251 68.3805 64.1847 68.5721 64.5184 68.4415C65.4439 68.3171 66.3996 68.4239 67.2747 68.0494C67.5222 67.8164 67.8848 67.9232 68.1096 67.6819C68.2323 67.4149 68.5452 67.2497 68.4747 66.8953V66.896Z" fill="#130D0C"/>
<path d="M62.0562 62.4271C62.2929 62.9046 64.7237 63.4417 65.1134 63.1257C65.8249 63.0773 66.6037 63.1389 67.227 62.7111C67.4681 62.7946 67.961 62.4321 68.1556 62.2776C68.5711 62.1576 68.7266 61.7323 69.1063 61.5331C69.3216 61.1292 69.2322 60.6605 69.3549 60.2308C69.2441 59.6025 68.806 59.0516 68.4647 58.544C68.3854 58.0721 67.9434 57.8227 67.8225 57.3629C67.7262 56.4538 67.3088 55.1282 66.0968 55.5139C65.0165 55.9656 65.7934 57.1191 65.9697 57.9126C66.1214 58.1456 66.0188 58.4409 66.2146 58.6426C66.3946 58.9008 66.5369 59.1157 66.6188 59.426C66.6723 59.541 66.7522 59.6647 66.8819 59.6767C67.0601 59.9066 67.0784 60.2471 67.3497 60.4167C67.2087 60.6536 66.8832 60.5707 66.7459 60.8308C66.5539 60.8345 66.3474 60.8245 66.1674 60.8986C65.6782 61.4427 64.8975 61.0965 64.2622 61.1782C64.079 61.077 63.8795 60.9451 63.6604 61.0494C63.3991 60.8546 63.0981 60.881 62.8155 60.9011C62.1116 60.8703 61.3813 61.9019 62.0562 62.4271Z" fill="#130D0C"/>
<path d="M67.5789 46.278C67.6683 46.7837 68.2009 46.9226 68.6555 46.9044C69.2284 46.8579 69.6175 46.3672 70.1501 46.2039C70.5675 45.7296 71.1134 45.5379 71.68 45.3174C71.962 45.2866 72.1434 45.0303 72.426 44.9983C72.5929 45.0561 72.7755 45.0686 72.9385 45.0102C73.1904 44.7828 73.4416 44.7112 73.7834 44.7105C74.3966 44.659 74.9916 44.686 75.584 44.7734C76.0575 44.5547 76.5209 44.9166 77.0151 44.9788C77.5313 45.107 77.9802 45.4952 78.5053 45.6504C78.6092 46.2158 79.1305 46.5632 79.7003 46.5029C80.3695 46.486 80.9783 45.5675 80.5187 45.0083C80.2216 44.8481 80.0723 44.4888 79.8123 44.2708C79.694 44.0415 79.4749 44.0302 79.2495 43.9711C79.145 43.8247 79.0109 43.6972 78.8384 43.6388C78.3215 43.1651 77.5899 43.1864 76.9572 42.9709C76.6455 42.6819 76.2193 42.8409 75.8995 42.7002C75.6451 42.5161 75.3964 42.7768 75.1345 42.67C74.3148 42.6022 73.5133 42.9295 72.693 42.9276C72.4342 42.8195 72.3215 43.0583 72.1119 43.1198C71.9073 43.2405 71.7058 43.1048 71.5226 43.2901C70.7287 43.569 69.943 43.9705 69.2126 44.3663C68.5868 44.7627 66.9902 45.3111 67.5782 46.278H67.5789Z" fill="#130D0C"/>
<path d="M59.5744 45.5007C59.3767 45.4429 59.2218 45.1891 58.9996 45.1086C58.7937 44.846 58.71 44.4521 58.2831 44.4766C57.6963 44.0061 57.0321 43.7944 56.3717 43.4677C56.1375 43.3464 55.8473 43.4463 55.6105 43.3565C55.4047 43.2126 55.1938 43.173 54.9381 43.1818C54.3067 42.8533 53.6173 43.2132 52.9512 42.9883C52.5325 43.0813 52.0628 42.842 51.6926 43.0581C51.2299 43.0819 50.6236 42.994 50.215 43.2208C49.5753 43.5355 48.7556 43.5512 48.0738 43.8195C47.5103 44.241 46.7221 44.4132 46.2877 44.9717C46.0604 45.5082 45.4522 46.203 46.1617 46.6648H46.1611C46.9292 47.4193 47.8188 46.5932 48.2828 45.9637C48.6228 45.6257 49.1145 45.7589 49.4551 45.4221C50.164 45.081 50.9881 45.25 51.7285 45.0194C52.1094 44.9384 52.4897 45.0841 52.8769 44.9484C53.8704 44.8894 54.8191 45.1734 55.7616 45.3725C55.9467 45.4586 56.0953 45.5453 56.247 45.6847C56.3793 45.7871 56.5669 45.6678 56.6689 45.7909C56.8943 45.9178 57.0794 46.0944 57.3211 46.166C57.4955 46.2521 57.6044 46.5065 57.7738 46.5567C58.0829 46.8897 58.2328 47.3735 58.7893 47.293L58.7868 47.2943C59.6984 47.4375 60.3947 46.0265 59.575 45.5013L59.5744 45.5007Z" fill="#130D0C"/>
</svg>
