<svg width="128" height="85" viewBox="0 0 128 85" fill="none" xmlns="http://www.w3.org/2000/svg">
<path d="M6.70667 23.663C0.460639 21.4009 -1.16902 13.1629 3.35516 7.65792C7.87933 2.15296 21.7193 0.717424 28.8013 8.32758C35.8834 15.9377 25.4531 22.7248 25.4531 22.7248C25.7561 24.0238 26.1228 25.7381 27.1272 26.7426C22.105 27.0774 19.4264 25.0685 19.4264 25.0685C19.4264 25.0685 12.952 25.9242 6.70667 23.663Z" fill="#45BFDB"/>
<path d="M62.251 67.7286C62.5338 68.2695 63.229 68.3779 63.7794 68.2894C63.9454 68.2805 64.1369 68.3381 64.279 68.2167C64.4554 68.2462 64.6777 68.2545 64.771 68.0789C65.0812 68.1276 65.3578 67.9665 65.6591 67.9459C65.9363 68.0611 66.3207 68.0879 66.5327 67.8506C66.834 67.8362 67.1215 67.8088 67.4139 67.7108C67.6479 67.7361 67.838 67.767 68.0171 67.6004C68.4172 67.669 68.7487 67.4242 69.1468 67.4489C69.3224 67.4119 69.3993 67.2432 69.54 67.1596C69.9676 67.0663 70.5626 66.5137 70.5454 66.0599C70.5976 65.9632 70.6374 65.8631 70.7218 65.7897C70.8432 65.643 70.8082 65.4558 70.87 65.2851C70.9187 65.1501 70.9036 65.0047 70.87 64.8628C70.9839 64.6016 70.9297 64.3102 70.8124 64.0558C70.9023 63.8358 70.9132 63.5985 70.7135 63.4477C70.6401 63.2509 70.5653 63.0562 70.5063 62.8526C70.4761 62.6606 70.4521 62.4605 70.3505 62.2774C70.367 61.9147 70.4102 61.5274 70.2311 61.2031C70.2119 60.6957 70.544 60.4921 70.2139 60.0259C70.2325 59.9183 70.2331 59.7715 70.2325 59.6529C70.3025 59.4527 70.4212 59.1799 70.2826 58.9906C70.2359 58.9536 70.2366 58.8912 70.2283 58.835C70.2235 58.7829 70.2105 58.7322 70.1913 58.6835C70.2867 58.4483 70.4253 57.8567 70.2208 57.6667C70.2771 57.5344 70.2688 57.4652 70.2242 57.2979C70.1975 57.0826 70.2105 56.8571 70.194 56.6377C70.2812 56.3333 70.4644 56.1097 70.1906 55.8328C70.3443 55.6634 70.1673 55.4742 70.2489 55.2905C70.4349 54.7481 70.2922 54.9614 70.1803 54.5445C70.2592 54.4012 70.2572 54.334 70.2235 54.1537C70.2379 53.9343 70.3244 53.6999 70.2441 53.4743C70.332 53.3187 70.3704 53.1301 70.2414 52.993C70.3779 52.8141 70.2077 52.6619 70.2263 52.4816C70.3224 52.2368 70.2345 51.9701 70.2091 51.724C70.2524 51.5176 70.2345 51.46 70.1329 51.2831C69.8303 50.675 69.1763 50.2163 68.6012 50.7888C68.2395 51.0199 68.0508 51.5094 68.151 51.929C68.0631 52.1943 67.8696 52.4788 68.0666 52.7455C67.9492 52.9731 67.9272 53.2659 68.1119 53.4592C68.0487 53.8006 68.0034 54.1496 68.1119 54.4952C67.849 54.9003 68.0919 55.2946 68.1221 55.7306C67.9842 55.9719 67.9101 56.3134 68.1022 56.5376C68.0762 56.9537 68.1469 57.3541 68.1393 57.7682C67.9451 58.0918 68.0412 58.4435 68.1311 58.7692C68.0762 59.0756 67.9032 59.4274 68.094 59.7181C68.0837 59.7907 68.0858 59.8661 68.0968 59.9388C68.0055 60.0801 68.0563 60.2151 68.1194 60.3474C68.1235 60.5092 68.0981 60.6779 68.1928 60.8253C68.1077 61.0337 68.247 61.238 68.1915 61.4492H68.1921C68.1544 61.6275 68.2196 61.8071 68.293 61.9757C68.256 62.1293 68.3122 62.2795 68.3562 62.4255C68.2711 62.6435 68.3225 62.902 68.4371 63.1042C68.4344 63.2832 68.4948 63.4553 68.5778 63.6109C68.4914 63.8646 68.5078 64.1806 68.7377 64.3465C68.8146 64.5543 68.7377 64.7593 68.7487 64.9739C68.7055 65.0225 68.6794 65.0644 68.6622 65.1117C68.4488 65.1816 68.28 65.3187 68.1475 65.4887C67.8888 65.4682 67.591 65.6437 67.3261 65.6656C67.092 65.7644 66.8573 65.6595 66.6178 65.704C66.5101 65.7198 66.4222 65.7904 66.3117 65.7767C66.0455 65.8206 65.6536 65.5662 65.4676 65.8706C65.3077 65.883 65.1526 65.9296 65.0009 65.9851C64.8184 65.9063 64.6132 65.9028 64.4224 65.957C64.1863 65.8987 63.9022 65.9049 63.7238 66.079C63.6291 66.0825 63.546 66.1188 63.4534 66.0852C63.1967 66.0263 62.9654 66.138 62.7321 66.2045C62.2167 66.33 62.0225 66.6495 62.0822 67.1575L62.0836 67.1561C62.0554 67.3563 62.1543 67.5503 62.2497 67.7286H62.251Z" fill="#130D0C"/>
<path d="M56.3627 57.8896C56.2255 57.4 55.754 57.0093 55.323 56.7563C54.8385 56.6171 54.2895 56.53 53.7981 56.6507C53.2916 56.8159 52.5223 57.4172 52.5711 58.0006C52.8147 58.6424 52.3363 58.8775 53.0473 59.6097C53.4817 59.9704 54.2668 60.5394 54.8385 60.3022C55.6154 60.1198 56.5027 59.6495 56.6194 58.7863C56.6627 58.4511 56.4327 58.2036 56.3627 57.8896Z" fill="#130D0C"/>
<path d="M78.2 58.4627C78.2453 57.9561 77.9447 57.424 77.6318 57.0339C77.2289 56.7316 76.7465 56.4553 76.2441 56.3936C75.7006 56.3737 74.7906 56.6493 74.6162 57.2197C74.6142 57.906 74.0851 57.9609 74.4886 58.8926C74.6547 59.2512 74.9292 59.5473 75.1996 59.836C75.4549 60.1095 75.5564 60.1418 75.9167 60.176C76.708 60.2816 77.7038 60.1555 78.1204 59.391C78.2796 59.0928 78.1533 58.7802 78.2 58.4613V58.4627Z" fill="#130D0C"/>
<path d="M59.5333 51.3173C59.6816 50.6578 59.4654 49.8865 58.657 49.9681C58.5053 49.9585 58.333 49.9208 58.2095 49.8844C58.0379 49.8015 57.8643 49.8789 57.6838 49.8597C57.6008 49.8508 57.5205 49.8645 57.4416 49.8892C57.095 49.6945 56.7162 49.7069 56.325 49.7405C56.0731 49.6362 55.8315 49.4607 55.5515 49.6026C55.3155 49.3983 55.0437 49.506 54.7809 49.5711C54.7754 49.5725 54.7699 49.5739 54.7644 49.5745C54.6072 49.447 54.3979 49.4162 54.1989 49.4614C53.9347 49.3785 53.5833 49.349 53.3369 49.495C53.1859 49.4614 53.0295 49.4484 52.8799 49.4888C52.6637 49.3298 52.4297 49.4484 52.197 49.482C51.9053 49.4888 51.6109 49.4806 51.3193 49.5101C51.1312 49.3757 50.891 49.3538 50.6906 49.4655C49.9446 49.3606 49.2247 49.4875 48.7986 50.1751C48.6695 50.4686 48.6126 50.9684 48.8754 51.2001C48.9777 51.2385 49.0669 51.2892 49.1211 51.3886C49.2872 51.6039 49.5974 51.6622 49.8582 51.6156C50.0332 51.6834 50.2294 51.6951 50.4195 51.6834C50.6865 51.6053 50.9686 51.6972 51.2225 51.5676C51.3906 51.5731 51.5677 51.5977 51.7262 51.5326C52.1071 51.7116 52.5353 51.6409 52.9464 51.5662C53.1118 51.6478 53.385 51.5696 53.5764 51.5367C53.8187 51.6464 54.0939 51.6711 54.3512 51.6073C54.5166 51.7863 54.7211 51.6149 54.9092 51.702C55.0526 51.7431 55.1823 51.776 55.3292 51.7294C55.5879 51.7931 55.8652 51.8528 56.1266 51.7561C56.5336 51.8507 56.9214 52.0358 57.3496 51.9632C57.5548 52.103 57.7888 51.9769 58.0057 51.9906C58.2363 52.103 58.4923 52.1894 58.7537 52.0694C59.0667 51.9063 59.4901 51.704 59.5313 51.3166L59.5333 51.3173Z" fill="#130D0C"/>
<path d="M80.8452 51.4641C81.2838 51.2831 81.5871 50.9026 81.5741 50.4158C81.5802 50.2862 81.5692 50.1388 81.4697 50.0552C81.3757 49.9996 81.2954 49.9359 81.2584 49.8282C81.0504 49.4539 80.5529 49.4429 80.1768 49.5218C79.9194 49.4244 79.6655 49.4313 79.3944 49.432C79.2482 49.4285 79.1055 49.4224 78.9593 49.4519C78.7706 49.3428 78.5235 49.3531 78.3211 49.4375C78.0781 49.3332 77.8112 49.3613 77.56 49.2942C77.3836 49.2571 77.2052 49.2894 77.1139 49.4491C76.6932 49.4087 76.2671 49.2887 75.8642 49.4902C75.7173 49.4327 75.6501 49.4429 75.4778 49.4971C75.2548 49.5019 75.0263 49.5129 74.819 49.6205C74.4415 49.5074 74.0421 49.5766 73.6736 49.6904C73.257 49.6397 72.848 49.7076 72.4808 49.9174C72.1295 50.0778 72.0746 50.5152 72.0094 50.8573C71.9757 51.3866 72.2228 51.6657 72.7265 51.7596C72.8995 51.8412 73.1006 51.8131 73.29 51.7774C73.6208 51.9138 73.9426 51.7205 74.2707 51.6773C74.6893 51.8693 75.1333 51.6129 75.5574 51.5566C75.8169 51.6019 76.0646 51.5512 76.3185 51.5196C76.5992 51.5758 76.8669 51.5587 77.1434 51.4538C77.6135 51.7253 78.1674 51.5361 78.6752 51.5251C78.9628 51.6012 79.2983 51.6382 79.5914 51.5443C79.7465 51.6231 80.0045 51.5628 80.1919 51.5381C80.4142 51.5669 80.6483 51.5937 80.8452 51.4634V51.4641Z" fill="#130D0C"/>
<path d="M98.8963 39.9818C98.8352 39.8111 98.9347 39.6287 98.8641 39.458C99.0123 39.2421 98.9457 38.9719 98.8696 38.7416C99.0054 38.5475 99.0624 38.3199 98.9039 38.1307C98.9169 37.8633 99.094 37.5637 98.9238 37.2984C98.9711 36.9851 98.9327 36.6436 98.8325 36.3481C98.8627 36.1582 98.7961 35.9539 98.6808 35.7969C98.6897 35.6056 98.6726 35.4891 98.5573 35.3643C98.5408 35.0249 98.3768 34.6177 98.1531 34.3743C98.1394 34.0349 97.8484 33.8162 97.6727 33.5653C97.5711 33.3013 97.3467 33.1354 97.112 33.0196C96.9521 32.8934 96.8642 32.781 96.6673 32.7501C96.6199 32.7275 96.5856 32.6857 96.5465 32.6507C96.4216 32.5115 96.2157 32.5472 96.0805 32.4347C95.9378 32.3059 95.7559 32.2387 95.5706 32.1941C95.4066 32.044 95.1726 32.0056 94.9543 32.0549C94.8891 32.0186 94.8212 31.9918 94.758 31.9528C94.8068 31.6148 94.92 31.3364 94.9886 31.0128C94.9962 30.8517 94.8967 30.7338 94.8335 30.5953C94.7224 30.2065 94.8871 29.7918 94.6942 29.4215C94.7807 29.0486 94.7731 28.5124 94.4856 28.2341C94.4636 28.0462 94.3916 27.8584 94.2722 27.7116C94.2797 27.3407 94.2077 27.1117 93.8776 26.9143C93.881 26.7792 93.7746 26.7072 93.6916 26.6243C93.6195 26.4632 93.5625 26.289 93.3965 26.1924C93.2434 25.9675 93.1357 25.7522 92.8701 25.6267C92.7973 25.2702 92.5105 24.9 92.1166 24.9692C91.8997 24.7972 91.6197 24.7224 91.4138 24.5257C91.1359 24.3762 90.9217 24.139 90.6019 24.056C90.4427 23.9827 90.2972 24.0464 90.1428 24.0533C89.7908 23.8935 89.4023 24.0019 89.04 23.8634C88.8313 23.5939 88.7806 23.114 88.4052 22.9947C88.3544 22.8809 88.2995 22.7637 88.2082 22.6739C88.1183 22.4195 88.1403 22.0287 87.8678 21.8943C87.7896 21.8566 87.7566 21.7771 87.7257 21.7003C87.6523 21.5419 87.5041 21.4316 87.3387 21.3712C87.1472 21.1868 86.9901 20.9695 86.8027 20.7864C86.7183 20.4971 86.5069 20.2105 86.2077 20.1406C86.0794 19.9335 85.9572 19.8588 85.7211 19.8245C85.634 19.6648 85.4185 19.7121 85.3217 19.5599C85.0547 19.4084 84.761 19.2034 84.4584 19.1348C84.26 19.0875 84.1187 18.9257 83.921 18.8667C83.7611 18.8105 83.5888 18.7913 83.4221 18.7714C83.1887 18.5836 82.8285 18.4492 82.5622 18.624C82.1792 18.4067 81.7057 18.4471 81.2823 18.4122C80.9714 18.5075 80.6454 18.4965 80.3578 18.6597C80.1245 18.5589 79.968 18.5877 79.7505 18.7015C79.6105 18.6569 79.4595 18.6405 79.3126 18.6569C79.3065 18.6439 79.2996 18.6316 79.2934 18.6179L79.2948 18.6165C79.2413 18.443 79.0532 18.3738 78.9571 18.2332C78.8933 18.105 78.7773 18.0152 78.6511 17.9405C78.5646 17.7711 78.4452 17.6155 78.2764 17.5243C78.1611 17.3941 78.0197 17.2014 77.8625 17.185C77.7308 16.9806 77.5297 16.8703 77.3362 16.7455C77.2222 16.5419 76.9855 16.5419 76.7967 16.4507C76.7617 16.4322 76.7254 16.4198 76.6883 16.4095C76.5511 16.2189 76.3129 16.1161 76.083 16.0873C75.9286 15.7959 75.6019 15.5087 75.2574 15.58C75.0193 15.4936 74.8264 15.3194 74.5691 15.3839C74.4407 15.3571 74.3193 15.2824 74.182 15.3044C74.0276 15.1988 73.8492 15.1227 73.6611 15.1028C73.4662 14.9986 73.1842 14.8313 72.9941 15.0143C72.5761 14.895 72.0292 14.5577 71.6517 14.895C71.5247 14.8944 71.3312 14.882 71.2379 14.93C70.8529 14.7538 70.4329 14.9273 70.0355 14.9732C69.844 14.8855 69.634 14.8484 69.4309 14.9369C69.2195 14.9238 68.9443 14.9286 68.8654 15.1611C68.663 15.2036 68.4749 15.2852 68.2814 15.3558C67.8717 15.3777 67.4668 15.447 67.1278 15.6807C66.9383 15.7116 66.6899 15.6684 66.5547 15.8254C66.4291 15.6999 66.1745 15.7061 65.9878 15.6897C65.8231 15.5834 65.6502 15.4819 65.4553 15.4627C65.2913 15.2941 65.049 15.3338 64.8232 15.3352C64.5467 15.0712 64.2708 14.9698 63.9105 15.1453C63.6216 15.0342 63.3608 14.7065 63.0238 14.8642C62.8152 14.7668 62.6059 14.6743 62.3725 14.6523C62.1948 14.4995 61.9347 14.2444 61.6917 14.3891C61.5737 14.3294 61.4419 14.3013 61.3102 14.2972C61.1015 14.1121 60.7845 14.1004 60.5237 14.1738C60.1353 14.0785 59.7242 14.1169 59.3248 14.0833C59.136 14.1176 58.9535 14.156 58.7785 14.0559C58.4937 13.9407 58.2109 14.0243 57.9495 14.1203C57.6852 14.0771 57.4224 14.1546 57.1685 14.2266C56.9468 14.2218 56.7464 14.3006 56.5666 14.4391C56.3381 14.3815 56.0951 14.3932 55.8879 14.5118C55.5427 14.5276 54.8049 14.653 54.5819 14.9197C54.2978 15.0335 54.0411 15.1885 53.7535 15.2872C53.5113 15.2522 53.2464 15.329 53.1235 15.5491C52.8168 15.604 52.4633 15.5471 52.2067 15.7767C51.9967 15.7575 51.9198 15.8275 51.7558 15.9488C51.5588 15.9968 51.4154 16.16 51.285 16.3142C51.0558 16.4644 50.9062 16.6954 50.7909 16.9422C50.5671 17.0657 50.3626 17.2473 50.259 17.4859C50.0957 17.586 50.0614 17.7423 50.0819 17.9131C50.0154 18.1304 49.7491 18.2038 49.6139 18.3669C49.4259 18.4334 49.1719 18.5068 49.0923 18.7042C48.9551 18.7605 48.8501 18.8681 48.7217 18.9408C48.5509 18.8756 48.3278 18.7762 48.1597 18.8804C47.6855 18.6542 47.1948 18.7097 46.6917 18.7255C46.4378 18.7557 46.1235 18.5109 45.8922 18.7097C45.5209 18.6329 45.1387 18.7817 44.7825 18.8722C44.5656 18.8324 44.3042 18.8578 44.1635 19.0416C43.8464 19.1279 43.4312 19.0813 43.1944 19.3329C42.8657 19.2911 42.6873 19.5386 42.5102 19.7662V19.7649C42.1479 19.9891 41.778 20.2516 41.428 20.4985C41.2056 20.4765 41.1548 20.7261 40.9592 20.7638C40.765 20.8426 40.636 21.0325 40.5777 21.2348C40.4589 21.3623 40.356 21.5118 40.275 21.666C40.006 21.8361 39.8282 22.0925 39.658 22.3496C39.4371 22.5415 39.2216 22.7596 39.1351 23.0468C38.8757 23.258 38.8668 23.5706 38.8112 23.8647C38.6451 24.0355 38.5854 24.2754 38.5538 24.5085C38.4035 24.5901 38.3781 24.7355 38.374 24.8863C38.28 25.057 38.1805 25.2305 38.2223 25.4375C38.1764 25.539 38.1016 25.6178 38.0364 25.7063C37.8744 25.6809 37.7735 25.7803 37.6781 25.8873C37.5333 25.9737 37.4276 25.9209 37.2595 26.0381C37.0879 26.18 36.8992 26.1821 36.6878 26.1965C36.4936 26.1348 36.333 26.202 36.2143 26.3494C35.7092 26.5166 35.2926 26.8512 34.8349 27.1165C34.6626 27.1687 34.5933 27.3565 34.4355 27.4285C34.1287 27.5944 34.0134 27.9173 33.8288 28.1847C33.6428 28.2478 33.5673 28.3904 33.5502 28.5693C33.5104 28.655 33.4266 28.7174 33.3937 28.8093C33.2406 28.9224 33.2228 29.1733 33.183 29.3674C32.8714 29.6622 32.8934 30.0893 32.8357 30.476C32.6161 30.9079 32.6223 31.3775 32.6573 31.8307C32.5873 32.0645 32.6333 32.3189 32.7115 32.5499C32.6861 32.6898 32.6752 32.8303 32.7033 32.9681C32.8001 33.2883 33.0293 33.5516 33.1665 33.858C33.1398 34.1172 33.2008 34.3997 33.3683 34.6012C33.3992 34.8241 33.5124 35.0681 33.7375 35.1387C33.5049 35.2018 33.2818 35.3444 33.1528 35.5467C32.8996 35.5858 32.8563 35.7441 32.6848 35.8813C32.2394 36.1767 31.855 36.619 31.702 37.151C31.4145 37.3114 31.3884 37.5836 31.3554 37.8805C31.0974 38.2219 31.1132 38.7148 31.0624 39.1214C30.8997 39.5664 31.0699 40.2567 31.3486 40.627C31.3904 40.9917 31.608 41.3647 31.807 41.6513C31.8949 41.9036 32.0699 42.1051 32.2943 42.2429C32.3691 42.5165 32.5839 42.7489 32.8769 42.7503C32.9668 42.8696 33.1034 42.9416 33.2503 42.9745C33.4452 43.1431 33.7258 43.3515 33.9956 43.3008C34.1294 43.3467 34.2694 43.3954 34.4114 43.3646C34.4499 43.3872 34.489 43.4091 34.5281 43.4311C34.513 43.5607 34.5123 43.7129 34.6009 43.8075C34.5665 43.9754 34.537 44.1955 34.6962 44.3011C34.7422 44.5801 34.6063 44.8948 34.7855 45.154C34.7381 45.4138 34.8664 45.6421 34.944 45.8704C34.8706 46.0658 34.9035 46.2969 34.9955 46.4841C34.9227 46.7501 34.9522 47.0661 35.073 47.3177C35.0552 47.4672 35.1252 47.6091 35.1272 47.7634H35.1279C35.1286 47.8415 35.1478 47.9156 35.178 47.9869C35.1039 48.1857 35.0188 48.4538 35.2192 48.5998C35.132 48.835 35.1128 49.1414 35.307 49.3218C35.2755 49.4829 35.3125 49.6563 35.3887 49.8051C35.2981 50.0307 35.4415 50.2432 35.447 50.4701C35.4271 50.7053 35.4614 50.9391 35.5568 51.1585C35.4649 51.4108 35.6056 51.672 35.6262 51.9277C35.4923 52.1793 35.7744 52.4056 35.6632 52.6469C35.5376 53.0062 35.7874 53.011 35.8471 53.2873C35.797 53.6465 35.6097 53.9112 35.9446 54.2238C35.8691 54.4164 35.8478 54.6372 35.8986 54.8374C35.7291 54.9437 35.5253 54.9779 35.3578 55.087C35.2281 55.0959 35.0826 55.1247 35.0119 55.2337C34.9536 55.4524 34.6935 55.4524 34.5851 55.6375C34.491 55.6608 34.4499 55.754 34.384 55.8123C34.1362 55.9021 33.9214 56.0639 33.8528 56.3395C33.6963 56.4081 33.4918 56.5034 33.4856 56.6933C33.2022 56.825 33.2084 57.1499 33.1089 57.4043C32.8481 57.5867 32.8865 57.8794 32.8927 58.1557H32.892C32.8865 58.1975 32.8879 58.238 32.892 58.2784C32.7534 58.482 32.6299 58.639 32.6985 58.8907C32.5118 59.0977 32.3759 59.3987 32.4672 59.6695C32.4068 59.843 32.5063 59.9986 32.5441 60.1631C32.4507 60.4195 32.3217 60.8412 32.5557 61.051C32.5406 61.2018 32.6093 61.3396 32.6738 61.4713C32.6552 61.6667 32.6642 61.8682 32.7596 62.043C32.7376 62.2775 32.8433 62.5093 32.9881 62.6903C32.9881 62.9282 32.9476 63.1928 33.1329 63.358C33.1041 63.6535 33.2022 64.0107 33.5055 64.1108C33.5968 64.3412 33.7272 64.5325 33.8624 64.7416H33.8617C33.9056 64.8321 33.9743 64.9041 34.0539 64.9651C34.1211 65.1488 34.209 65.3284 34.3854 65.4285C34.5109 65.6575 34.5137 66.025 34.7614 66.1566C34.815 66.1772 34.8767 66.1752 34.9268 66.2053C34.9961 66.3322 35.1259 66.411 35.2089 66.5351V66.533C35.2851 66.6606 35.4367 66.7024 35.515 66.8279C35.5308 67.1364 35.7957 67.2557 36.0221 67.401H36.0214C36.438 67.6369 36.6741 68.1325 37.1463 68.2847C37.2375 68.413 37.3871 68.4692 37.5271 68.5302C37.6953 68.7112 37.8696 68.9073 38.1016 68.9998C38.3095 69.2076 38.5957 69.2946 38.8235 69.4619H38.8242C38.9395 69.5778 39.1015 69.6251 39.2655 69.6566C39.3327 69.7766 39.4069 69.8177 39.5627 69.8815C39.7047 70.129 39.9724 70.2901 40.2572 70.2195C40.4054 70.2963 40.6181 70.4375 40.7678 70.4183C41.0869 70.5198 41.3785 70.9072 41.7478 70.8098C42.0429 70.8674 42.2995 71.0217 42.5878 71.1053C42.5795 71.313 42.6111 71.5592 42.8341 71.6277C42.8081 71.8622 42.9138 72.0843 43.1135 72.205C43.2439 72.5183 43.3482 72.8817 43.6302 73.099C43.6796 73.4041 43.749 73.7044 43.9795 73.9382C44.0207 74.1706 44.0612 74.5292 44.322 74.6053C44.3906 74.8576 44.5498 75.1071 44.7983 75.1976C44.9808 75.4582 45.2128 75.692 45.4077 75.9429C45.5539 76.1273 45.5916 76.3597 45.8133 76.4886C46.0672 76.6244 46.1345 77.0021 46.3355 77.153C46.3664 77.2846 46.4858 77.371 46.5284 77.4896C46.5661 77.6946 46.7013 77.8132 46.8942 77.8461C47.0891 78.0436 47.2078 78.483 47.5523 78.4734C47.7356 78.6592 47.8893 78.904 48.1508 78.987C48.3429 79.1392 48.5749 79.2996 48.8055 79.388C48.8885 79.5046 48.9626 79.6362 49.0862 79.7137C49.1534 79.9084 49.3593 79.9591 49.4952 80.0928C49.6112 80.2073 49.7731 80.2526 49.9358 80.2814C50.1101 80.6297 50.4923 80.7407 50.8375 80.8436C50.9913 80.9629 51.1436 81.1109 51.342 81.1418C51.5218 81.4675 51.8656 81.6121 52.1971 81.6848C52.2959 81.9124 52.5436 81.9289 52.7392 82.0296C52.8531 82.0955 52.9849 82.1105 53.118 82.1071C53.3836 82.3258 53.665 82.7063 54.0507 82.5356C54.271 82.8311 54.4714 82.8345 54.8145 82.8531H54.8138C55.2942 82.9552 55.695 83.3823 56.2077 83.3878C56.3559 83.5407 56.57 83.4913 56.7567 83.5489V83.5476C56.8391 83.5736 56.9248 83.575 57.0113 83.5647C57.0607 83.6079 57.1149 83.6435 57.1719 83.6744C57.1712 83.6785 57.1705 83.6826 57.1698 83.6874C57.6894 83.8773 58.2521 83.9473 58.7929 84.0789C58.9391 84.0933 59.3193 84.1612 59.3701 84.1577C59.6199 84.4306 59.9685 84.4676 60.3013 84.3881C60.639 84.639 61.1304 84.6768 61.5305 84.5725C61.7926 84.7412 62.1474 84.8173 62.435 84.687C62.6278 84.77 62.8934 84.9112 63.0869 84.7782C63.1645 84.8194 63.2537 84.831 63.3347 84.7954C63.4713 84.8673 63.6113 84.7762 63.7554 84.794C64.1864 84.8413 64.6132 84.8077 65.047 84.8502C65.5884 85.2136 65.4477 84.7775 66.2507 84.9215C66.4703 84.929 66.6782 84.8701 66.8992 84.8715C67.112 84.9489 67.4119 85.0566 67.5677 84.8351C67.8168 84.8132 68.0542 84.9174 68.3006 84.8763C68.4186 84.8468 68.5127 84.7816 68.619 84.733C68.8009 84.7241 68.9773 84.6836 69.1612 84.6747V84.6733C69.2785 84.6774 69.3897 84.6377 69.4954 84.5821C69.7294 84.6685 69.9751 84.602 70.2085 84.6418C70.3972 84.6665 70.5379 84.5376 70.7149 84.4985C70.892 84.434 71.0732 84.5293 71.2578 84.4985C71.2619 84.5047 71.2667 84.5101 71.2708 84.5163C71.3195 84.5088 71.369 84.5047 71.4177 84.504C71.5934 84.4807 71.7691 84.4587 71.9441 84.434C71.942 84.4334 71.9393 84.432 71.9379 84.4306C71.9393 84.4327 71.9434 84.4334 71.9489 84.4334C71.9612 84.4313 71.9743 84.4299 71.9866 84.4286C71.9914 84.4279 71.9948 84.4272 71.999 84.4265C72.0635 84.4128 72.1575 84.384 72.176 84.3799C72.3949 84.3292 72.6104 84.2688 72.8287 84.2167C72.9748 84.0851 73.1457 83.9959 73.3413 83.9493C73.3949 83.9329 73.4484 83.9198 73.5012 83.9109C73.7723 83.7697 74.18 83.9733 74.3886 83.6586C74.4593 83.6374 74.5306 83.5798 74.6151 83.503C74.869 83.5572 75.1298 83.4982 75.3398 83.3453C75.5511 83.4152 75.7213 83.2678 75.9156 83.2137C76.1448 83.2822 76.315 83.1115 76.5154 83.0382C76.7151 82.923 76.9148 82.8339 77.1351 82.755C77.4116 82.7941 77.7582 82.7317 77.8845 82.4609C78.054 82.4389 78.2077 82.3553 78.3361 82.2429C78.6126 82.2154 78.8521 82.077 79.1219 82.0269C79.2694 81.9652 79.3332 81.8274 79.4293 81.7122C79.5652 81.6663 79.6853 81.5833 79.7855 81.4832C80.1204 81.4373 80.3379 81.1507 80.5939 80.956C80.8252 80.9471 80.9467 80.7633 81.0942 80.5974C81.3125 80.509 81.5485 80.4164 81.6604 80.1957C81.6933 80.1127 81.762 80.086 81.8457 80.0716C82.0687 80.0078 82.2293 79.8008 82.2986 79.5807C82.6143 79.4655 82.8031 79.1947 83.0364 78.9774C83.2244 78.8841 83.4825 78.7717 83.5339 78.5523C83.7295 78.3267 84.0418 78.1183 83.956 77.7776C84.26 77.5979 84.282 77.2277 84.5174 76.9919C84.6862 76.9363 84.7397 76.7958 84.7686 76.6422C84.9051 76.477 85.0307 76.2994 85.0081 76.0677C85.1934 75.7118 85.4926 75.402 85.5104 74.9831C85.7239 74.6711 85.8309 74.2933 86.0272 73.9636C86.0869 73.834 86.1027 73.7634 86.089 73.6715C86.1384 73.4932 86.2715 73.3465 86.3086 73.1587C86.3594 72.916 86.406 72.6719 86.5042 72.4422C86.8555 72.1502 86.6167 72.0597 86.7142 71.7367C86.7499 71.7025 86.7835 71.6661 86.815 71.627C87.1349 71.8122 87.6983 71.9534 87.9076 71.5592C88.0771 71.5989 88.2514 71.5503 88.3976 71.455C88.6337 71.4474 88.9933 71.4515 89.064 71.1732C89.3241 71.1533 89.5547 70.9983 89.626 70.7447C89.753 70.7152 89.8443 70.6096 89.9706 70.587C90.1531 70.5315 90.2272 70.3559 90.372 70.2469V70.2456C90.4249 70.2051 90.4681 70.1551 90.5038 70.0995C90.7371 69.9885 91.1215 69.815 91.0892 69.5099C91.1983 69.4208 91.3143 69.3358 91.3967 69.2206C91.6739 69.1294 91.9436 68.9169 92.0074 68.6275C92.1673 68.5096 92.2861 68.3375 92.3773 68.1593C92.645 68.0674 92.8715 67.8425 92.8523 67.5484C92.9456 67.4785 92.9998 67.3729 93.0458 67.268C93.4596 67.0918 93.6586 66.6085 93.7973 66.2088C93.9345 66.0853 94.0224 65.9167 94.0574 65.7364C94.2694 65.6363 94.2852 65.3997 94.3888 65.2174C94.5357 65.1522 94.5679 65.0158 94.5913 64.8753C94.7608 64.6168 94.9639 64.3384 94.9331 64.0073C95.2645 63.7708 95.2227 63.3402 95.2412 62.9816C95.4224 62.7472 95.7051 62.3187 95.4395 62.0588C95.4114 61.8792 95.5637 61.7434 95.5665 61.5762C95.5397 61.4699 95.5281 61.3691 95.5795 61.2663C95.6468 61.0572 95.5315 60.8494 95.5857 60.6355C95.6132 60.3908 95.782 60.0521 95.5651 59.8546C95.6262 59.6565 95.4869 59.4933 95.4526 59.3048C95.5143 59.0285 95.4972 58.7069 95.3132 58.4827C95.222 58.2702 95.2103 58.0316 95.0854 57.8314C95.1101 57.6634 95.0085 57.5579 94.8932 57.4646C94.8198 57.3145 94.7683 57.1458 94.6126 57.0526C94.4774 56.7852 94.3332 56.526 94.0471 56.3848C93.8048 56.1928 93.52 55.9652 93.194 56.0386C92.9833 55.8061 92.6745 55.7129 92.3657 55.7499C92.3513 55.7403 92.3362 55.7328 92.3204 55.7259C92.4185 55.5319 92.4611 55.3002 92.4123 55.0911C92.5036 54.9265 92.5681 54.7442 92.5523 54.5542C92.7095 54.3102 93.043 53.4772 92.9271 53.2173C93.0389 53.0007 93.1075 52.7566 93.1226 52.5139C93.2819 52.2198 93.3258 51.877 93.3326 51.5424C93.4527 51.3785 93.5502 51.1934 93.5536 50.9884C93.6703 50.8376 93.7067 50.6278 93.6813 50.4358C93.8377 50.25 93.8686 49.9779 93.8213 49.7427C94.0498 49.4815 94.102 49.0845 94.0375 48.752C94.0807 48.5847 94.1459 48.4168 94.0814 48.2412C94.2756 47.7606 94.2372 47.23 94.2941 46.7165C94.384 46.543 94.5302 46.3099 94.4135 46.1248C94.5089 45.9726 94.5666 45.7738 94.4897 45.6051C94.5185 45.5763 94.5453 45.5441 94.5721 45.5126C94.8075 45.4776 94.9536 45.4317 95.0827 45.226C95.3414 45.1732 95.5727 44.9689 95.7442 44.7714C95.959 44.709 96.0647 44.659 96.167 44.4602C96.3029 44.1702 96.4827 43.9309 96.6158 43.6381C96.7064 43.549 96.8272 43.4955 96.9013 43.3954C96.9397 43.2926 96.9878 43.2035 97.088 43.1479C97.2431 43.0554 97.3467 43.019 97.4064 42.8696C97.6761 42.8696 97.7941 42.6351 97.9623 42.4692C98.0865 42.3636 98.1483 42.2087 98.1922 42.0482C98.4173 41.8206 98.5463 41.5306 98.6129 41.2214C98.8373 40.9931 99.0569 40.5557 98.9094 40.243C98.9265 40.1683 98.9176 40.0991 98.8929 39.9818H98.8963ZM84.9662 23.0105C85.2709 23.0434 85.4171 23.4109 85.7417 23.4027C85.7829 23.4541 85.8364 23.4945 85.8934 23.5274C85.9085 23.7084 86.0327 23.7976 86.1816 23.8593C86.3703 24.056 86.522 24.2775 86.7121 24.477C86.71 24.5222 86.7087 24.5675 86.7107 24.6127C86.6085 24.6326 86.509 24.669 86.4136 24.7135C86.2324 24.5867 86.1658 24.3556 85.9737 24.2343C85.8947 24.0122 85.7438 23.7955 85.5173 23.7208C85.4466 23.5802 85.3615 23.404 85.2057 23.3553C85.1563 23.2381 85.0671 23.1291 84.9491 23.0832C84.9319 23.0455 84.9113 23.0098 84.888 22.9755C84.9168 22.9824 84.9388 23.0009 84.9669 23.0105H84.9662ZM84.3602 25.707C84.3692 25.707 84.3788 25.7083 84.3877 25.7083C84.4419 25.8537 84.5345 25.9846 84.6416 26.1005C84.7143 26.3007 84.8495 26.4632 84.9827 26.6202C84.9072 26.9417 85.135 27.1426 85.3416 27.3421H85.3409C85.378 27.3935 85.4246 27.434 85.4754 27.4689C85.5049 27.5718 85.5489 27.6842 85.6271 27.7542C85.4439 27.8878 85.2462 27.9886 85.0671 28.1312C85.0225 28.0606 84.9669 27.9969 84.9038 27.9427C84.8344 27.6129 84.7192 27.3003 84.6938 26.9678C84.6752 26.7779 84.5181 26.6709 84.4405 26.5064H84.4412C84.4021 26.4227 84.341 26.3555 84.2696 26.2973C84.3293 26.1046 84.2696 25.888 84.3602 25.707ZM81.3729 25.9078C81.3955 25.9229 81.4181 25.9366 81.4415 25.9497C81.4552 25.9908 81.4703 26.0312 81.4881 26.071C81.517 26.1361 81.5533 26.1985 81.5952 26.2568C81.5328 26.2417 81.4689 26.2328 81.4051 26.2301C81.3928 26.1265 81.3578 26.012 81.3735 25.9078H81.3729ZM82.0852 28.4802C82.053 28.5035 82.0248 28.5316 82.0056 28.5673C81.9857 28.6043 81.9761 28.6461 81.9589 28.6838C81.8594 28.725 81.7702 28.7846 81.6899 28.8573C81.6028 28.7229 81.473 28.6125 81.3509 28.5069C81.6172 28.5899 81.8272 28.5837 82.0852 28.4795V28.4802ZM80.8149 28.2348C80.8149 28.2348 80.8204 28.2354 80.8238 28.2361C80.8616 28.278 80.9055 28.3136 80.9515 28.3451C80.8945 28.3355 80.8376 28.3266 80.7799 28.3198C80.7936 28.2923 80.8053 28.2642 80.8149 28.2348ZM78.6874 28.9361C78.6916 28.9752 78.6991 29.0136 78.708 29.052C78.6854 29.0136 78.6614 28.9759 78.6353 28.9389C78.6531 28.9389 78.671 28.9382 78.6874 28.9361ZM75.4558 19.6051C75.477 19.6428 75.4997 19.6798 75.5271 19.7148C75.6479 19.8684 75.8222 19.9678 76.0061 20.0377C76.175 20.3778 76.4852 20.7583 76.8475 20.8906C76.8908 20.9544 76.9464 21.0051 77.0102 21.0476C77.0321 21.1038 77.0603 21.1573 77.087 21.2115C77.0719 21.2183 77.0555 21.2245 77.0411 21.2334C76.9546 21.1978 76.9059 21.1251 76.8674 21.0442C76.7137 20.7412 76.3349 20.7809 76.0782 20.6363C75.9046 20.3716 75.8414 20.0261 75.5216 19.8814C75.5079 19.782 75.4791 19.686 75.4317 19.5989C75.4393 19.6017 75.4475 19.6031 75.4558 19.6051ZM75.4235 40.8457C75.571 40.7065 75.615 40.4933 75.652 40.2951C75.7255 40.23 75.7968 40.1615 75.8593 40.0874C75.9073 40.1985 75.9739 40.3047 76.0727 40.3754C76.0665 40.4042 76.0617 40.4323 76.0562 40.4611C75.9279 40.5536 75.8847 40.6098 75.8504 40.7284C75.639 40.7847 75.5628 40.9691 75.4578 41.1563C75.3295 41.2029 75.2032 41.2632 75.0934 41.3475C75.221 41.1885 75.267 40.9842 75.4235 40.845V40.8457ZM74.2005 25.1119C74.2527 25.1064 74.3028 25.0906 74.3447 25.0577C74.4215 24.9651 74.5135 24.913 74.6315 24.889C74.6288 24.9117 74.6274 24.9343 74.6274 24.9569C74.5272 25.081 74.451 25.2209 74.3735 25.36C74.3454 25.3546 74.3152 25.3518 74.2815 25.3511C74.2253 25.2983 74.1601 25.2462 74.0894 25.2168C74.136 25.19 74.1717 25.1516 74.2012 25.1119H74.2005ZM73.8979 33.6215C74.1127 33.6798 74.2712 33.7436 74.495 33.7991C74.6157 33.9115 74.7578 34.0534 74.928 34.0624C74.8292 34.1892 74.8498 34.3462 74.8484 34.4943C74.7757 34.5628 74.718 34.6479 74.7276 34.7466C74.6507 34.787 74.5917 34.8529 74.5368 34.9194C74.5293 34.9063 74.5224 34.8933 74.5135 34.881C74.4956 34.8556 74.4757 34.835 74.4545 34.8158C74.4119 34.6396 74.3234 34.4758 74.1889 34.3606C74.1635 34.063 74.1148 33.8416 73.8979 33.6229C73.8979 33.6229 73.8979 33.6229 73.8979 33.6222V33.6215ZM73.0195 20.3798C73.0112 20.3826 73.003 20.3853 72.9954 20.3888C72.9639 20.4025 72.9344 20.4203 72.9062 20.4402C72.8939 20.4381 72.8822 20.4368 72.8699 20.4354C72.8596 20.362 72.8458 20.288 72.8211 20.218C72.8801 20.2791 72.9467 20.3346 73.0188 20.3805L73.0195 20.3798ZM72.8952 27.2091C72.9851 27.2633 73.0716 27.3263 73.1636 27.3771C73.1101 27.447 73.062 27.5224 73.0195 27.5992C72.9783 27.6739 72.9412 27.7583 72.9344 27.8412C72.7868 27.9125 72.6516 28.0119 72.5343 28.1264C72.5452 27.7809 72.8403 27.5498 72.8952 27.2091ZM73.0771 40.3274C73.0325 40.387 73.0304 40.4631 73.0311 40.5351C72.9604 40.5742 72.8904 40.6174 72.8287 40.6709C72.8637 40.6146 72.8952 40.5564 72.9254 40.4995C72.9522 40.4487 72.979 40.3966 72.9996 40.3431C73.0256 40.3397 73.0517 40.3342 73.0778 40.3281L73.0771 40.3274ZM71.0265 33.1896C71.2207 33.193 71.4115 33.2246 71.6057 33.2239C71.7045 33.5125 71.4568 33.9335 71.7965 34.1076C72.1946 34.9872 71.813 34.9379 71.6572 35.7201C71.6544 35.7174 71.6524 35.7147 71.6496 35.7112C71.7073 35.4054 71.6428 34.9989 71.3388 34.8563C71.1734 34.5779 71.1288 34.2509 70.9757 33.9588C70.962 33.7093 70.9524 33.4199 70.787 33.2184C70.868 33.2479 70.9496 33.2163 71.0265 33.1889V33.1896ZM70.6168 20.589C70.6216 20.5972 70.6264 20.6061 70.6319 20.615C70.5317 20.6431 70.4301 20.6273 70.3286 20.6548C70.3059 20.58 70.2771 20.5074 70.2435 20.4368C70.3402 20.5478 70.4837 20.5663 70.6168 20.5896V20.589ZM70.0287 27.9214C70.0932 27.8063 70.2016 27.7096 70.2208 27.5704C70.2764 27.5882 70.3334 27.6013 70.3917 27.5999C70.2984 27.7425 70.2627 27.9262 70.3279 28.0839C70.1337 28.293 70.065 28.4631 70.1872 28.7229C70.1172 28.8168 70.1227 28.9464 70.0163 29.0129C69.9662 28.8977 69.9429 28.775 69.8571 28.6756C69.8591 28.5453 69.8392 28.4103 69.7706 28.2985C69.9477 28.2348 70.0122 28.0901 70.028 27.9214H70.0287ZM68.3342 32.6274C68.3823 32.6466 68.4303 32.6644 68.4797 32.6795C68.3775 32.8105 68.2999 32.9675 68.302 33.1341C68.1716 33.2492 68.1784 33.3966 68.21 33.5475C68.1688 33.7127 68.103 33.8793 68.1668 34.0534C68.1318 34.1604 68.1242 34.2742 68.0885 34.3818C68.0796 34.3839 68.0707 34.386 68.0618 34.3873C67.9938 34.1851 67.8662 33.9979 67.6871 33.8889C67.7193 33.7943 67.7337 33.6935 67.6898 33.6078C67.7125 33.5564 67.7344 33.5036 67.7536 33.4494C67.9822 33.3466 68.1325 33.1416 68.1606 32.9009C68.208 32.805 68.3027 32.735 68.3335 32.6281L68.3342 32.6274ZM68.0851 29.8356C68.0906 29.8624 68.0961 29.8871 68.1043 29.9083C68.0467 29.9501 67.989 29.9974 67.9506 30.0585C67.9204 30.0255 67.8868 30.0022 67.8456 29.981C67.9101 29.9021 67.954 29.8055 67.9794 29.704C68.011 29.7513 68.0446 29.7966 68.0851 29.8363V29.8356ZM67.8051 20.9914C67.8991 21.1381 67.825 21.3301 67.9039 21.4878C67.7928 21.5179 67.6891 21.5673 67.602 21.6379C67.3336 21.4981 67.103 21.2259 67.0145 20.9311C67.1229 20.9359 67.2334 20.927 67.3412 20.9105C67.4853 20.9777 67.6452 20.9976 67.8051 20.9921V20.9914ZM67.3213 18.4752C67.3494 18.4876 67.3782 18.4999 67.4071 18.5109C67.4366 18.5226 67.4675 18.5335 67.4983 18.5424C67.4956 18.6158 67.4997 18.6892 67.5155 18.7605C67.3295 18.792 67.1717 18.7577 66.9905 18.7132C67.031 18.5836 67.2273 18.5705 67.3213 18.4759V18.4752ZM64.6125 18.8098C64.6167 18.8133 64.6208 18.8167 64.6249 18.8208C64.5981 18.8852 64.5851 18.9524 64.5823 19.0217C64.5563 19.0265 64.5309 19.0326 64.5055 19.0388C64.4128 18.8866 64.244 18.8002 64.1905 18.6254C64.3394 18.7742 64.4108 18.805 64.6119 18.8105L64.6125 18.8098ZM62.5633 17.1274C62.7479 17.3145 63.0211 17.3666 63.1768 17.5853C63.3621 17.6457 63.404 17.85 63.5612 17.9494C63.5962 18.0625 63.6668 18.1592 63.7595 18.2332C63.6195 18.1907 63.5838 18.0426 63.485 17.9528C63.3875 17.9028 63.3038 17.8445 63.2613 17.7389C63.0389 17.4242 62.5647 17.4249 62.3471 17.091C62.4137 17.1205 62.4919 17.1363 62.5626 17.1274H62.5633ZM63.8672 32.6199C63.835 32.6651 63.8075 32.7124 63.7835 32.7618C63.7643 32.7234 63.7444 32.6925 63.7217 32.6672C63.7217 32.6624 63.7204 32.6576 63.7197 32.6521C63.7698 32.6445 63.8192 32.6349 63.8672 32.6199ZM62.1062 16.945C62.1062 16.945 62.111 16.947 62.1131 16.9484C62.0671 16.9374 62.017 16.9402 61.971 16.956C61.9566 16.9443 61.9429 16.932 61.9278 16.9203C61.9882 16.9292 62.0548 16.9087 62.1062 16.945ZM61.5641 19.1931C61.6794 19.276 61.8359 19.3096 61.9347 19.4214C62.085 19.5564 62.2758 19.6175 62.3965 19.7847C62.2723 19.8149 62.1447 19.8698 62.1042 19.9918C62.0513 19.9987 62.0095 20.0124 61.9676 20.0364C61.9004 19.8842 61.8008 19.7484 61.6952 19.6181C61.6657 19.4502 61.584 19.3048 61.4536 19.1938C61.492 19.1986 61.5291 19.1986 61.5648 19.1924L61.5641 19.1931ZM60.58 29.0993C60.6582 29.1123 60.7419 29.0835 60.814 29.124C60.8558 29.2419 60.919 29.3516 61.0006 29.4421C60.9698 29.6066 60.9835 29.7767 61.0082 29.9412C60.9341 29.922 60.8572 29.9179 60.7804 29.9268C60.7131 29.8829 60.6369 29.8535 60.5559 29.8377C60.475 29.6108 60.5443 29.3276 60.5793 29.1007L60.58 29.0993ZM58.6433 19.5263C58.6975 19.5503 58.773 19.5626 58.8656 19.5729C58.8965 19.6003 58.9288 19.6264 58.961 19.6524C59.0276 19.9054 59.2108 20.1522 59.4853 20.1687C59.5348 20.2441 59.5951 20.3106 59.6645 20.3689C59.6631 20.3689 59.6617 20.3702 59.6597 20.3709H59.661C59.5306 20.4155 59.4298 20.5115 59.3419 20.6205C59.0269 20.5842 59.0592 20.2043 58.8698 20.0206C58.7044 19.8746 58.5719 19.6949 58.4504 19.5098C58.5122 19.5359 58.5788 19.5482 58.6433 19.5276V19.5263ZM58.0716 19.2027C58.0716 19.2027 58.0737 19.2054 58.075 19.2068C58.0517 19.2075 58.0297 19.2054 58.0092 19.1938C58.0297 19.1965 58.0503 19.1992 58.0709 19.2027H58.0716ZM55.6346 18.0776C55.6827 18.1283 55.7245 18.1592 55.7767 18.1798C55.7767 18.1798 55.7767 18.1798 55.7767 18.1804C55.6772 18.1626 55.5914 18.116 55.5022 18.0701C55.5461 18.0742 55.5907 18.0762 55.6346 18.0776ZM55.4438 25.9949C55.483 26.0031 55.5235 26.01 55.5626 26.0066C55.5049 26.1889 55.4569 26.3912 55.3361 26.542C55.3334 26.3507 55.4287 26.1855 55.4438 25.9949ZM55.2345 43.235C55.2332 43.2453 55.2325 43.2556 55.2318 43.2658C55.2098 43.2645 55.1879 43.2638 55.1659 43.2638C55.1879 43.2514 55.2098 43.2391 55.2345 43.235ZM54.7342 32.7145C54.7521 32.7487 54.7727 32.781 54.7967 32.8111C54.7933 32.853 54.7878 32.8941 54.7775 32.9352H54.7782C54.7521 33.034 54.7589 33.1341 54.7809 33.2328C54.6505 33.5571 54.4501 33.8368 54.2168 34.0905C54.0857 34.1261 53.9539 34.1933 53.9237 34.3291C53.8585 34.3524 53.7961 34.3825 53.7364 34.4182C53.7769 34.3236 53.8064 34.2262 53.818 34.1254C54.0685 33.7991 54.0363 33.4049 54.0411 33.0319C54.2209 32.8742 54.2799 32.6377 54.4233 32.4587C54.503 32.5684 54.6141 32.65 54.7342 32.7138V32.7145ZM52.5347 20.5526C52.7502 20.7041 53.0659 20.7933 53.3116 20.9071C53.4248 21.1546 53.5202 21.4165 53.6856 21.6297C53.6897 22.1412 54.0253 22.5621 54.2676 22.9831C54.1228 22.8754 53.9368 22.787 53.7556 22.8459C53.6012 22.7136 53.5092 22.4935 53.3027 22.4195C53.1215 22.1686 53.1283 21.8114 52.8703 21.629C52.8133 21.4144 52.7838 21.2382 52.6136 21.062C52.6198 20.8515 52.5917 20.7878 52.4585 20.6342C52.486 20.6095 52.5114 20.5814 52.5347 20.5519V20.5526ZM51.1656 27.3839C51.169 27.388 51.1724 27.3922 51.1759 27.3956C51.1724 27.412 51.1704 27.4292 51.1649 27.4443C51.1608 27.4737 51.1505 27.4991 51.1368 27.5245C51.1278 27.4758 51.1621 27.4223 51.1656 27.3832V27.3839ZM51.0592 39.6856C51.0592 39.6856 51.0613 39.6918 51.0619 39.6952C51.0379 39.6884 51.0139 39.6829 50.9892 39.6781C50.9789 39.6644 50.9679 39.6507 50.9569 39.637C50.9569 39.6178 50.9569 39.5993 50.9569 39.5801C50.9871 39.6178 51.0221 39.6527 51.0592 39.6856ZM50.8314 30.1106C50.8526 30.1126 50.8746 30.114 50.8959 30.116C50.8815 30.1208 50.867 30.1263 50.8519 30.1318C50.8437 30.1318 50.8355 30.1332 50.8272 30.1332C50.8286 30.1256 50.83 30.1181 50.8314 30.1099V30.1106ZM49.1562 21.3918C49.3737 21.5508 49.616 21.4172 49.8541 21.4082C49.8527 21.4226 49.8514 21.437 49.85 21.4514C49.7072 21.9259 49.6228 22.2906 49.9522 22.739C49.9502 22.7849 49.9495 22.8302 49.9515 22.8761C49.6427 22.6711 49.5 22.2392 49.1067 22.1185C49.0999 22.0856 49.0923 22.052 49.0765 22.0225C49.2014 21.8402 49.2728 21.5913 49.1562 21.3918ZM46.77 20.8166C46.8482 20.8557 47.006 20.8515 47.1213 20.8502C46.6759 21.3232 47.1042 21.3376 46.9168 21.7956C46.9086 21.7963 46.901 21.797 46.8928 21.7977C46.8029 21.7127 46.7144 21.6256 46.6416 21.5214C46.4625 21.2821 46.1139 21.1409 45.8174 21.1189C45.641 21.0003 45.4159 21.0127 45.2114 20.9935C45.6959 20.6603 46.3211 21.1875 46.7706 20.8159L46.77 20.8166ZM46.829 40.2046C46.7823 40.2574 46.7425 40.3143 46.7103 40.376C46.63 40.4083 46.5572 40.4583 46.4941 40.5207C46.4797 40.4796 46.4625 40.4398 46.4412 40.4014C46.5304 40.352 46.6142 40.2931 46.6945 40.2293C46.7411 40.2266 46.7864 40.219 46.8283 40.2046H46.829ZM44.5999 29.7445C44.6267 29.8308 44.6706 29.9131 44.7269 29.9865C44.7255 29.9954 44.7242 30.0043 44.7228 30.0139C44.6946 30.0002 44.6665 29.9865 44.637 29.9741C44.6068 29.8843 44.5649 29.7966 44.5121 29.717C44.5409 29.7273 44.5704 29.7362 44.5999 29.7445ZM44.2218 29.4448C44.2156 29.4414 44.2088 29.4387 44.2026 29.4352C44.1683 29.3482 44.0832 29.2968 44.0564 29.2104C44.1854 29.2165 44.1648 29.3598 44.2218 29.4448ZM43.9603 32.4697C44.0571 32.5129 44.1552 32.5623 44.2644 32.563C44.4428 32.6726 44.6782 32.7748 44.8504 32.6103C44.9458 32.624 45.0419 32.5952 45.1222 32.6596C45.1174 32.6624 45.1126 32.6651 45.1071 32.6678C44.8449 32.626 44.5828 32.7508 44.3845 32.916C44.2513 32.9489 44.1093 32.9729 44.0001 33.0607C43.7407 33.025 43.6673 32.6987 43.4717 32.5527C43.4587 32.491 43.4408 32.4313 43.4161 32.373C43.5781 32.4656 43.7785 32.53 43.9596 32.4697H43.9603ZM41.8164 25.0556C41.9941 24.874 42.2151 24.7149 42.469 24.6786C42.4375 24.7183 42.4107 24.7608 42.3942 24.8061C42.2179 24.8849 42.0587 25.0124 41.9605 25.1742C41.7828 25.2771 41.6407 25.4259 41.5728 25.611C41.4616 25.5877 41.336 25.5938 41.2392 25.6514C41.2351 25.65 41.2303 25.6494 41.2262 25.648C41.3614 25.3799 41.5879 25.2497 41.8164 25.0556ZM38.5662 31.4201C38.7 31.2514 38.9416 31.2918 39.0884 31.1355C39.1166 31.1383 39.1454 31.1403 39.1735 31.141C39.1076 31.2109 39.1227 31.3117 39.0987 31.3961C38.9622 31.5867 38.8572 31.8006 38.9203 32.0474C38.7213 32.4478 38.7027 32.4862 38.8016 32.9304H38.8009C38.7892 33.0737 38.77 33.2211 38.7775 33.3713C38.6986 33.4282 38.6506 33.5125 38.5634 33.5564C38.5545 33.544 38.5463 33.5324 38.5367 33.52C38.4653 33.1889 38.3932 32.8338 38.2395 32.5266C38.4406 32.1701 38.2134 31.7108 38.5655 31.4201H38.5662ZM38.7288 39.7172C38.7096 39.7124 38.6904 39.709 38.6712 39.7048C38.6691 39.7028 38.6671 39.7007 38.665 39.6987C38.6286 39.6596 38.5977 39.6294 38.5689 39.6061C38.5861 39.5951 38.6025 39.5835 38.619 39.5711C38.6568 39.6185 38.6849 39.6747 38.7288 39.7172ZM37.9574 52.8793C38.0062 52.9239 38.0501 52.9739 38.1016 53.0151C38.1029 53.05 38.1077 53.085 38.1153 53.1193C38.0755 53.1721 38.0528 53.231 38.0377 53.2921C38.0069 53.3195 37.9767 53.3469 37.9465 53.3764C37.9204 53.2907 37.8991 53.205 37.8723 53.1193C37.9101 53.0439 37.9389 52.963 37.9568 52.8807L37.9574 52.8793ZM35.5953 31.6319C35.6413 31.5489 35.6618 31.4557 35.6646 31.3611C35.7394 31.2727 35.8169 31.1808 35.8595 31.0725C36.0516 30.9662 36.2363 30.7804 36.2273 30.55C36.3104 30.5116 36.3865 30.4582 36.4504 30.3923C36.4929 30.356 36.5368 30.3204 36.5876 30.2922C36.6364 30.2655 36.6789 30.2305 36.7167 30.1908C36.7901 30.1771 36.8621 30.1558 36.9328 30.1298C36.8134 30.2278 36.6878 30.3279 36.6206 30.4726C36.4758 30.5569 36.4421 30.6145 36.379 30.7886C36.2665 31.1609 36.1237 31.551 36.1642 31.9445C36.0297 32.3059 36.1779 32.672 36.2212 33.0346C36.1827 33.2671 36.2987 33.5091 36.4662 33.6736C36.4716 33.7244 36.4792 33.7758 36.4874 33.8265C36.3001 33.6853 36.1587 33.4961 36.0935 33.2677C35.9158 32.9839 35.7991 32.6713 35.5898 32.4087C35.6749 32.1434 35.4278 31.8739 35.596 31.6326L35.5953 31.6319ZM35.6591 36.124C35.6632 36.1123 35.6666 36.1006 35.6701 36.089C35.7298 36.1096 35.7716 36.1589 35.8272 36.1884C35.7751 36.246 35.736 36.3139 35.7387 36.392C35.6563 36.464 35.5328 36.451 35.4422 36.512C35.528 36.3927 35.6062 36.2645 35.6584 36.1246L35.6591 36.124ZM34.3668 37.2024C34.3716 37.2024 34.3771 37.2024 34.3819 37.2024C34.3558 37.2319 34.3236 37.2497 34.2872 37.2641C34.314 37.2442 34.3408 37.2237 34.3668 37.2024ZM35.8114 41.6519C35.5706 41.3852 35.1162 41.255 34.7724 41.3633C34.7505 41.3571 34.7285 41.351 34.7065 41.3455C34.5171 41.1179 34.2399 40.978 33.9654 40.8985C33.8157 40.6709 33.6442 40.4617 33.4575 40.2574C33.4472 40.0236 33.2866 39.842 33.2249 39.6226C33.277 39.4039 33.3518 39.1152 33.2159 38.9185C33.2942 38.7697 33.3141 38.6003 33.3004 38.4337C33.4033 38.309 33.4397 38.1458 33.5213 38.0196C33.4609 38.2205 33.3923 38.4427 33.4294 38.6531C33.2702 38.9527 33.2839 39.2709 33.4019 39.5821C33.4218 39.8111 33.4335 40.1423 33.6579 40.2622C33.7643 40.2883 33.8583 40.3253 33.9256 40.4179C34.2056 40.6222 34.4499 40.8854 34.8177 40.9355C34.9474 41.1487 35.2926 41.2214 35.5294 41.2934C35.7414 41.4778 36.0084 41.6129 36.2726 41.7102C36.1985 41.7205 36.1251 41.7411 36.0544 41.7671C35.9542 41.6924 35.8917 41.6609 35.8121 41.6519H35.8114ZM41.3497 68.4452C41.1411 68.0462 41.01 68.2539 40.7252 68.0996C40.3931 67.9598 40.1357 67.6465 39.7528 67.6279C39.6079 67.4997 39.4281 67.4229 39.2463 67.3558C39.155 67.1576 39.0926 67.0822 38.8901 67.0095C38.7027 66.9615 38.6012 66.7888 38.4516 66.6763C38.3644 66.6002 38.3068 66.5632 38.2388 66.5447C38.1222 66.2451 37.8065 66.1409 37.5615 65.9756C37.4455 65.7425 37.2465 65.5835 37.0392 65.4299C36.996 65.2297 36.8381 65.0727 36.6542 64.9802C36.602 64.6751 36.3914 64.4049 36.075 64.3823C36.0311 64.2054 35.8519 64.0793 35.8307 63.9051C35.8169 63.6048 35.5205 63.4465 35.3853 63.201C35.3825 63.0296 35.3866 62.802 35.2343 62.6978C35.1574 62.656 35.071 62.6286 35.0284 62.5442C34.8905 62.2432 34.9769 61.9114 34.7676 61.6276C34.8472 61.4171 34.7045 61.1477 34.6256 60.9317C34.6791 60.6691 34.7978 60.375 34.6674 60.1083C34.7086 59.7627 34.9028 59.651 34.6784 59.3349C34.7168 59.2437 34.7381 59.1457 34.7649 59.0504C34.9159 58.9606 34.9364 58.8118 34.9323 58.6569C34.979 58.5314 35.071 58.419 35.0668 58.2764C35.2844 58.1694 35.4772 57.9644 35.4566 57.7121C35.5081 57.6436 35.5548 57.5695 35.62 57.5092C35.6735 57.4605 35.7133 57.4015 35.7449 57.3364C35.9926 57.3419 36.2857 57.2637 36.3982 57.0286C36.5341 57.0059 36.6659 56.9538 36.7894 56.888C37.0104 56.862 37.2835 57.0896 37.4661 56.8688C37.698 56.9799 37.9471 56.9422 38.1915 56.9772C38.3294 57.0299 38.4701 57.0978 38.6204 57.0814C38.8098 57.2226 38.9134 57.4461 39.1125 57.5805C39.236 58.0577 39.3863 57.9212 39.6718 58.1763H39.6711C39.7775 58.2894 39.9271 58.3408 40.0808 58.3751C39.9806 58.5383 40.0204 58.6946 40.1165 58.8379C40.1254 58.9901 40.0623 59.1471 40.1323 59.3034C39.866 59.1217 39.6189 58.7158 39.2236 58.8427C39.0562 58.6692 38.7974 58.6267 38.5737 58.5643C38.4124 58.4361 38.2086 58.4354 38.0123 58.4327C37.4633 58.1002 36.7091 58.3326 36.3536 58.8379C35.9123 58.9311 35.7325 59.3315 35.4834 59.6496C35.3256 59.9952 35.0147 60.2968 35.0023 60.6862C34.9447 61.1573 35.1272 61.607 35.5582 61.8346C35.7243 61.9594 35.9048 61.958 36.0688 61.8518C36.5993 61.9203 36.9253 61.4473 37.0495 60.9838C37.2478 60.8371 37.3185 60.6595 37.4963 60.5244C37.6822 60.5807 37.9005 60.4771 38.0666 60.5601C38.3747 60.6972 38.7274 61.2087 39.0569 61.1051C39.1852 61.3794 39.3616 61.5494 39.6649 61.5974C39.9044 61.7969 40.0245 62.1411 40.3491 62.2316C40.4397 62.3625 40.3848 62.5456 40.4891 62.6765C40.5392 62.8781 40.4967 63.1825 40.612 63.3409C40.695 63.8983 40.695 64.5044 40.8748 65.048C40.8817 65.2571 40.8789 65.4614 41.0038 65.6472C40.9723 65.8769 40.9778 66.1183 41.1013 66.3191C41.0327 66.5536 41.1534 66.7051 41.2708 66.9039C41.1788 67.1659 41.371 67.4284 41.4362 67.667C41.4122 67.7815 41.4945 67.8652 41.5419 67.9577C41.5803 68.1223 41.5556 68.2985 41.5885 68.4657C41.5103 68.4479 41.43 68.4424 41.349 68.4445L41.3497 68.4452ZM39.8248 54.7791C39.8845 54.7051 39.9319 54.6235 39.9641 54.5364C39.9929 54.6262 39.9676 54.7243 39.982 54.8175C39.879 54.9608 39.9099 55.1075 39.982 55.2494C39.9669 55.3201 39.9621 55.3927 39.9669 55.4661C39.8914 55.3591 39.7294 55.3194 39.5784 55.2789C39.6217 55.2241 39.6628 55.1685 39.704 55.113C39.8063 54.9752 39.8296 54.9087 39.8255 54.7798L39.8248 54.7791ZM41.0807 29.1466C40.6298 28.9169 40.0623 29.076 39.5771 28.956C39.6628 28.9286 39.7459 28.8881 39.8262 28.8449C39.9127 28.8552 40.0026 28.8573 40.089 28.8573C40.1851 28.8573 40.2839 28.8573 40.3745 28.8251C40.7135 28.8909 41.1088 28.9896 41.3614 28.6838C41.4781 28.7037 41.5947 28.7078 41.7093 28.6708C41.769 28.9204 41.7553 29.1987 41.8795 29.4304C41.6421 29.2892 41.3326 29.2556 41.0807 29.1473V29.1466ZM41.6455 31.9857C41.6675 31.9569 41.686 31.9253 41.7032 31.8924C41.8164 31.8643 41.9111 31.7841 42.0319 31.8047C42.1458 31.8047 42.2494 31.8006 42.3428 31.8732C42.106 31.8767 41.8816 31.9555 41.6462 31.9857H41.6455ZM87.0182 56.62C86.8473 56.84 86.907 57.1095 86.8686 57.359C86.8219 57.5647 86.872 57.782 86.9036 57.9809C86.8919 58.0899 86.8672 58.2476 86.8837 58.3408C86.8233 58.5568 86.9262 58.7611 86.8549 58.9818C86.7897 59.3384 86.7698 59.7202 86.7938 60.0726H86.7958C86.7567 60.172 86.7526 60.2776 86.7649 60.3839C86.625 60.63 86.557 60.9612 86.7107 61.2073C86.7313 61.4534 86.7121 61.6934 86.7094 61.9395C86.5268 62.1754 86.4033 62.5305 86.5652 62.7979C86.5323 62.9014 86.5254 63.0145 86.5261 63.127C86.3347 63.3957 86.3765 63.7468 86.2605 64.0484C86.2111 64.2562 86.3072 64.444 86.2427 64.6497C86.2139 64.7402 86.2365 64.8321 86.2338 64.9239C85.9812 65.144 86.0485 65.4436 86.1054 65.7288H86.1061C86.0684 65.9325 86.0052 66.1662 86.0046 66.3603C85.8769 66.581 85.6552 66.9321 85.8762 67.1542C85.8062 67.3462 85.8481 67.5614 85.7808 67.7534C85.6662 67.8597 85.5228 67.9968 85.5434 68.1613C85.6086 68.3094 85.5482 68.4493 85.5283 68.6008C85.356 68.7372 85.3876 68.9601 85.3169 69.1472H85.3155C85.2846 69.2261 85.2757 69.309 85.2798 69.3934C85.1069 69.6114 84.8722 69.9741 85.0101 70.2524C84.923 70.4869 84.5579 70.7152 84.7301 70.9997C84.4268 71.2582 84.4687 71.6702 84.4899 72.0247C84.1612 72.4642 84.0658 73.0401 83.9951 73.5687C83.8572 73.7353 83.6506 73.9231 83.6753 74.1384C83.558 74.2981 83.5058 74.5072 83.4571 74.6999C83.3212 74.8117 83.2052 74.922 83.1929 75.0729C82.9417 75.2052 82.9485 75.4787 82.8895 75.7187C82.8895 75.7187 82.8875 75.7256 82.8868 75.729C82.6239 75.8277 82.6459 76.104 82.4613 76.2926C82.3844 76.394 82.3103 76.4975 82.2485 76.6079C82.0804 76.6991 81.8629 76.8307 81.9006 77.0467C81.7153 77.1379 81.5499 77.2812 81.4779 77.4718C81.178 77.7385 80.9076 78.0216 80.6289 78.3192H80.6296C80.5294 78.396 80.4663 78.5057 80.4189 78.6236C80.2755 78.7072 80.1458 78.8176 80.0188 78.9259C79.8198 79.0569 79.5611 79.1097 79.3971 79.2934C79.0779 79.3483 78.813 79.5677 78.5612 79.7583C78.4212 79.7541 78.347 79.8611 78.264 79.9502C77.9682 80.0647 77.645 80.1422 77.3698 80.3204C77.1515 80.5872 76.8029 80.4027 76.5915 80.6235C76.5085 80.8518 76.234 80.8401 76.061 80.9848C75.8785 80.9581 75.6966 80.9978 75.547 81.1137C75.3775 81.0856 75.2066 81.1445 75.0659 81.246C74.9088 81.2577 74.7599 81.3173 74.626 81.3982C74.3865 81.4332 74.1443 81.4805 73.9343 81.608C73.6975 81.6066 73.3454 81.4812 73.2089 81.7492C72.9735 81.7335 72.7971 81.92 72.5672 81.9124C72.1259 81.8843 71.7011 82.053 71.3456 82.2984C71.0368 82.2778 70.7177 82.3087 70.4219 82.4088C70.2586 82.3676 70.0897 82.3971 69.9436 82.4835C69.5894 82.3766 69.2051 82.5007 68.8483 82.55C68.6739 82.476 68.4571 82.4527 68.2979 82.5672C68.1249 82.4959 67.9829 82.5617 67.858 82.6734C67.7646 82.6995 67.6624 82.6947 67.5663 82.731C67.3 82.6028 66.9232 82.5596 66.7174 82.8023C66.5238 82.8407 66.3289 82.84 66.1333 82.8688C65.8883 82.6673 65.5191 82.5726 65.2638 82.7962C64.9804 82.7811 64.7148 82.7351 64.4272 82.7427C64.1253 82.502 63.6895 82.5 63.3532 82.6604C63.1034 82.4959 62.7349 82.3964 62.481 82.5843C62.2099 82.5185 61.8489 82.3313 61.5915 82.5219C61.5215 82.5103 61.4488 82.5089 61.3754 82.5137C61.1592 82.3553 60.8915 82.3169 60.6362 82.3066C60.4859 82.201 60.2924 82.0475 60.1044 82.1147C59.8559 82.2977 59.6967 81.9254 59.3927 81.9906C59.1964 81.7931 58.913 81.7307 58.6639 81.8541C58.539 81.7705 58.2967 81.7444 58.1334 81.7184C57.9344 81.5813 57.6887 81.4935 57.4457 81.5107C57.2398 81.3776 56.9742 81.427 56.7409 81.3742C56.4685 81.2645 56.1885 81.1295 55.8789 81.0582C55.8035 80.9114 55.6614 80.8902 55.518 80.8765C55.4679 80.8607 55.4281 80.8244 55.3848 80.7949C55.1735 80.6598 54.8866 80.738 54.7404 80.4919C54.4309 80.1717 54.3293 80.485 53.9333 80.2773C53.8139 80.0976 53.6012 80.0092 53.3857 80.001C53.2663 79.8268 53.2059 79.7905 53.0089 79.7459C52.8319 79.5382 52.5512 79.3017 52.2636 79.3126C51.823 79.1207 51.4566 78.8032 51.0324 78.5797C50.9329 78.4179 50.7518 78.3137 50.5637 78.2705C50.3633 78.0388 50.0888 77.8818 49.8795 77.6706C49.8218 77.4293 49.6386 77.2442 49.3943 77.2051C49.2584 77.0152 49.0738 76.8136 48.8453 76.7423C48.6517 76.5023 48.4966 76.1376 48.1707 76.0745C47.9847 75.7557 47.6553 75.5617 47.4988 75.2223H47.5002C47.4302 75.0509 47.2709 74.9371 47.1124 74.837C47.0012 74.5676 46.9251 74.2645 46.6368 74.1233C46.5812 73.9972 46.5057 73.8779 46.3973 73.7901C46.3383 73.6091 46.2601 73.4192 46.1235 73.2828C46.0631 73.0977 45.9526 72.9105 45.7714 72.8303C45.7467 72.4834 45.4921 72.2413 45.3679 71.9349C45.3404 71.8142 45.2327 71.7402 45.1785 71.6373C45.1428 71.5153 45.2046 71.3645 45.1037 71.2657C44.9534 71.1725 44.9486 70.9956 44.8525 70.8619C44.8655 70.5733 44.7379 70.2634 44.4462 70.1777C44.3961 69.9192 44.252 69.7046 44.1422 69.4701C44.0756 69.1843 44.2287 68.8504 44.0262 68.6084C44.0516 68.4061 43.9246 68.2518 43.7956 68.1154C43.8752 67.7644 43.7064 67.4716 43.495 67.2234C43.5259 67.0411 43.4106 66.8957 43.3839 66.7188H43.3852C43.3633 66.5783 43.2823 66.459 43.1862 66.35C43.1416 66.0175 43.1382 65.7288 43.0359 65.3956C43.1244 65.0713 42.898 64.7765 42.863 64.4564C42.9021 64.2754 42.8897 64.0834 42.8115 63.9141C42.8396 63.7173 42.7834 63.5212 42.6859 63.3484C42.6866 63.175 42.6941 62.9679 42.583 62.8582C42.6029 62.7458 42.5905 62.6334 42.5459 62.5285C42.6241 62.211 42.6852 61.8915 42.4183 61.6529C42.4972 61.3814 42.504 61.0695 42.3695 60.8145C42.4011 60.6814 42.4135 60.543 42.3833 60.4093C42.4841 60.2125 42.4821 59.976 42.3483 59.7984C42.432 59.5673 42.4567 59.2753 42.2886 59.0833C42.4416 58.8056 42.3414 58.5259 42.1568 58.2976C42.2179 58.105 42.2364 57.8965 42.1657 57.7053C42.2117 57.5366 42.2 57.357 42.1389 57.1938C42.2254 56.7091 42.1266 56.2415 42.1081 55.7465C42.3332 55.4325 42.1863 55.1672 42.0415 54.8662C42.1918 54.6242 42.0971 54.3588 42.1081 54.1052C42.2048 53.8728 42.2426 53.5718 42.0772 53.3688C42.2083 53.146 42.2625 52.8423 42.084 52.6359C42.1808 52.3048 42.0991 51.9298 42.0168 51.6C42.0888 51.3847 42.0271 51.1715 42.1232 50.959C42.1355 50.6114 42.1808 50.2336 42.0635 49.9018C42.0943 49.7427 42.0861 49.585 42.0456 49.465C42.0737 49.319 42.0758 49.1675 42.0086 49.0311C42.1458 48.7308 42.2028 48.3598 42.0484 48.0568C42.0923 47.9355 42.0985 47.81 42.0731 47.6811C42.2069 47.4864 42.0985 47.2739 42.095 47.0627C42.0957 47.0202 42.0902 46.9791 42.0806 46.9386C42.187 46.7501 42.2762 46.5074 42.0991 46.3387C42.1348 46.2242 42.1259 46.155 42.0827 46.0268C42.1321 45.8656 42.1554 45.6942 42.1328 45.5249C42.2069 45.3432 42.2316 45.141 42.176 44.9572C42.2309 44.7858 42.1046 44.6453 42.1122 44.4807C42.2048 44.4944 42.2783 44.4273 42.3613 44.4026C42.5185 44.3943 42.6839 44.4197 42.8259 44.3278C43.0428 44.3793 43.2802 44.308 43.4655 44.1873C43.6323 44.1893 43.8025 44.1873 43.961 44.1448H43.9603C44.2856 44.116 44.7214 44.236 44.9513 43.9391C45.2025 43.9562 45.4249 43.8267 45.5374 43.6073C45.5909 43.5881 45.6451 43.5709 45.7021 43.562C45.8215 43.5456 45.9265 43.4852 46.0219 43.4098C46.2278 43.3234 46.5476 43.2412 46.6423 43.041C46.7549 42.9834 46.8777 42.9326 46.9607 42.8353C47.1934 42.799 47.4507 42.6941 47.5907 42.5021C47.6415 42.3855 47.7136 42.293 47.8282 42.2299H47.8275C47.9394 42.1641 48.0162 42.0592 48.0787 41.9433C48.0849 41.9399 48.091 41.9365 48.0972 41.933C48.3113 41.8158 48.4163 41.5813 48.6174 41.4401C48.6634 41.4901 48.7156 41.532 48.7766 41.5525C48.9475 41.7904 49.1513 41.968 49.4293 42.077C49.6585 42.3019 49.8164 42.5844 50.0511 42.7969C50.1073 43.0417 50.202 43.3049 50.4868 43.3207C50.596 43.3906 50.6831 43.5017 50.8176 43.5312C50.9398 43.6841 51.1038 43.8054 51.2891 43.852C51.4099 43.959 51.5513 44.094 51.7173 44.1002C52.171 44.5445 52.7584 44.7844 53.3754 44.8976C53.5827 45.1259 53.9532 45.3473 54.271 45.2774C54.4734 45.3412 54.7672 45.4639 54.9621 45.4111C55.1508 45.503 55.3684 45.5126 55.5784 45.4913C55.7534 45.5948 55.975 45.625 56.1521 45.5187C56.4225 45.5804 56.8789 45.6771 57.0161 45.3604C57.3146 45.2191 57.7635 45.468 57.9337 45.1026C58.2905 44.9565 58.8396 45.0971 59.0166 44.6508C59.2541 44.5753 59.438 44.4848 59.6452 44.3868C59.7887 44.2936 59.8216 44.1311 59.906 43.9946C60.3151 43.8445 60.6191 43.4996 60.8799 43.163C61.1091 42.9601 61.4014 42.7811 61.4858 42.4582C61.8173 42.0955 62.2298 41.7342 62.367 41.2522C62.5661 41.1028 62.7287 40.8868 62.7815 40.6421C62.8701 40.7812 62.9833 40.9088 63.1329 40.9821C63.2455 41.1638 63.3992 41.3277 63.5927 41.4236C63.6854 41.7054 63.918 42.0002 64.2365 41.9735C64.3017 42.066 64.419 42.1106 64.4918 42.1881C64.5672 42.3327 64.6887 42.4651 64.8589 42.4424C65.003 42.6324 65.213 42.7859 65.4484 42.8058C65.55 43.0115 65.7826 43.0259 65.9611 43.1301C66.3495 43.285 66.6384 43.5785 66.9932 43.7794C67.1264 43.8877 67.289 43.9665 67.4572 43.994C67.6047 44.1242 67.7996 44.1263 67.9794 44.0893C68.2382 44.3607 68.6012 44.3141 68.9244 44.3916C69.1331 44.5993 69.4611 44.7577 69.748 44.6508C70.1529 44.72 70.5289 44.8215 70.9538 44.7927C71.1789 44.7913 71.4094 44.866 71.6325 44.7714C71.9049 44.8146 72.1801 44.9051 72.445 44.7755C72.6139 44.8441 72.7504 44.7748 72.8733 44.6693C73.1972 44.5822 73.5609 44.5952 73.8595 44.4245C74.0619 44.382 74.2664 44.3683 74.4325 44.2202C74.7468 44.1989 75.0577 44.0255 75.2753 43.7979C75.4928 43.7794 75.6939 43.6436 75.8311 43.475C76.0384 43.3872 76.3163 43.318 76.396 43.104C76.6519 42.9806 76.9477 42.7475 77.0088 42.4562C77.2689 42.2772 77.4453 42.0283 77.645 41.7932C77.8804 41.8775 77.9785 42.1545 78.1178 42.3465C78.2276 42.5021 78.4177 42.5179 78.5667 42.6221H78.566C78.5914 42.6392 78.6188 42.6536 78.647 42.6666C78.7547 42.9923 79.1315 43.1445 79.4176 43.2878C79.6297 43.7369 80.0792 43.9199 80.5157 44.0769C80.6399 44.2565 80.8348 44.3429 80.9995 44.4581C81.2624 44.685 81.7469 45.095 82.1058 44.962C82.3131 45.0895 82.5533 45.1821 82.801 45.1711C83.0378 45.457 83.4235 45.457 83.7632 45.4611H83.7639C83.7975 45.4659 83.8311 45.4666 83.8647 45.4652C84.0432 45.5962 84.2978 45.806 84.5153 45.6552C84.6958 45.7374 84.8729 45.6353 85.0589 45.638C85.1103 45.6387 85.1604 45.6312 85.2092 45.6175C85.6038 45.7998 85.6676 45.7909 86.0814 45.6648C86.2509 45.6682 86.4273 45.7306 86.6071 45.7155C86.6188 45.7559 86.6263 45.7943 86.6037 45.832C86.544 46.013 86.6442 46.1748 86.649 46.3558H86.6503C86.6524 46.4271 86.6702 46.495 86.697 46.5595C86.7224 46.8803 86.4671 47.4384 86.7286 47.6455C86.6998 47.9958 86.5268 48.4209 86.7512 48.7417C86.7348 48.8665 86.756 48.9981 86.8034 49.1188C86.7684 49.2306 86.7821 49.3005 86.8295 49.4493C86.7739 49.7002 86.6867 50.1733 86.8439 50.3837C86.6908 50.6271 86.8281 50.863 86.9077 51.1009C86.8974 51.2702 86.918 51.4423 86.9393 51.6117C86.9111 51.9188 86.7643 52.2513 86.9242 52.5598C86.9132 52.9026 86.8068 53.2612 86.964 53.5862C86.7766 53.8255 86.8068 54.1161 86.9544 54.3616C86.8322 54.605 86.7821 54.9176 86.9269 55.1541C86.9207 55.2474 86.9729 55.4078 87.0045 55.5175C86.9427 55.6814 86.9743 55.8624 87.0189 56.0345C86.9393 56.2161 86.9763 56.4266 87.0154 56.6213L87.0182 56.62ZM91.2004 35.5337C91.2285 35.5645 91.258 35.5947 91.2889 35.6228C91.2594 35.7037 91.245 35.7914 91.2175 35.8758C91.0871 35.9382 90.9416 35.9916 90.8614 36.1205C90.838 36.0917 90.8133 36.0657 90.7852 36.0444C90.9595 35.8662 91.046 35.7153 91.2004 35.5337ZM90.6713 47.4261C90.6671 47.4672 90.6685 47.509 90.6575 47.5488C90.6562 47.5563 90.6548 47.5646 90.6527 47.5721C90.6493 47.5426 90.6445 47.5131 90.6404 47.4837C90.6513 47.4645 90.6616 47.4453 90.6713 47.4261ZM89.1697 32.8687C89.2644 32.6685 89.1827 32.5883 89.2314 32.4149C89.3639 32.456 89.508 32.4313 89.6473 32.467H89.6466C89.716 32.4848 89.786 32.4862 89.8566 32.4773C89.9081 32.6473 89.917 32.8447 89.9246 33.025C89.9246 33.0346 89.9246 33.0442 89.9246 33.0538C89.7482 33.2883 89.7407 33.5893 89.8004 33.869C89.6892 34.0946 89.5156 34.2749 89.4044 34.5025C89.2843 34.5107 89.1525 34.5519 89.0345 34.5142C88.9583 34.2831 88.9885 34.0144 88.8588 33.7902C89.1882 33.5865 89.088 33.1752 89.169 32.868L89.1697 32.8687ZM89.0853 45.2219H89.0846C89.1319 45.2082 89.1752 45.1862 89.2157 45.1602C89.2088 45.2027 89.2033 45.2459 89.1992 45.2884C89.0914 45.3604 88.9974 45.4529 88.9473 45.5749C88.891 45.6065 88.8361 45.6414 88.7826 45.6778C88.7977 45.5784 88.784 45.4762 88.751 45.3795C88.865 45.3377 88.9645 45.2582 89.0853 45.2212V45.2219ZM88.3063 27.7144C88.3551 27.7624 88.4093 27.8076 88.469 27.8357C88.3907 27.8652 88.3159 27.9009 88.2418 27.9413C88.1567 27.9242 88.0682 27.9249 87.9982 27.9735C87.9502 27.8721 87.9378 27.7583 87.8726 27.6355C88.0106 27.6897 88.1588 27.7062 88.307 27.7144H88.3063ZM92.5565 58.0865C92.7452 58.2764 92.9092 58.4786 93.1288 58.6315C93.1926 58.7899 93.1659 58.9661 93.2578 59.119C93.2249 59.4337 93.2949 59.7545 93.4328 60.037C93.3512 60.2495 93.3333 60.4929 93.4184 60.7C93.3004 60.9056 93.4253 61.11 93.4479 61.3211H93.4486C93.45 61.341 93.4534 61.3609 93.4569 61.3801C93.3464 61.5384 93.3471 61.6248 93.3745 61.8209C93.2469 62.0088 93.1755 62.2412 93.2125 62.4613C93.0725 62.5662 93.0698 62.7143 93.089 62.8671C93.0423 63.0584 92.9353 63.2298 92.8948 63.4211C92.7136 63.5541 92.7191 63.7749 92.691 63.9737C92.3986 64.1218 92.4309 64.4714 92.2758 64.7169C92.2071 64.7635 92.1529 64.9095 92.0658 64.9623C91.9148 65.0782 91.9066 65.2688 91.8084 65.421C91.7714 65.4786 91.7487 65.5424 91.7343 65.6089C91.5566 65.7425 91.4399 65.9338 91.3486 66.1306C91.199 66.1854 91.0068 66.2561 90.9622 66.4199C90.9561 66.5461 90.9101 66.6544 90.8195 66.7442C90.6603 66.991 90.3789 67.1144 90.206 67.3592C90.0488 67.4675 89.8237 67.6122 89.8676 67.8275C89.7935 67.9042 89.7276 67.9899 89.6652 68.0777C89.1786 68.1545 88.9967 68.6344 88.6611 68.9093C88.3564 68.9395 88.2576 68.9553 88.1114 69.2281C87.9076 69.2439 87.7004 69.3145 87.5679 69.4701C87.5171 69.4839 87.4691 69.5051 87.4245 69.5325C87.4238 69.5154 87.4231 69.4983 87.421 69.4811C87.5658 69.1527 87.9227 68.8387 87.7196 68.4568C87.8904 68.2703 87.8637 68.1051 87.8417 67.8713C87.8754 67.7548 87.9104 67.6341 87.8877 67.5135C88.1732 67.2145 88.1595 66.8258 88.0497 66.4713C88.086 66.3301 88.2109 66.2225 88.2144 66.0778C88.1924 65.9709 88.1856 65.8694 88.2411 65.7693C88.2878 65.6006 88.2727 65.4244 88.2981 65.2517C88.4347 65.0515 88.3818 64.7944 88.3976 64.564C88.5417 64.3467 88.6152 64.0656 88.5513 63.814C88.6255 63.6 88.6206 63.3669 88.6117 63.1462C89.0667 63.1791 89.7153 63.0132 89.7942 62.4901C89.8031 62.4825 89.8127 62.4743 89.8216 62.4667C90.1957 62.4242 90.267 62.2371 90.6706 62.3708C90.7625 62.4715 90.8922 62.6347 91.0027 62.6683C91.2086 63.0783 91.6067 63.3237 92.0699 63.2833C92.1996 63.2812 92.3465 63.2607 92.4233 63.1558C92.4727 63.0577 92.5311 62.9741 92.6361 62.9302C93.0979 62.6649 92.9971 61.5947 92.5764 61.3424C92.3094 61.2395 92.26 60.9324 92.0026 60.8165C91.5751 60.6403 91.1194 60.1734 90.6376 60.3064C90.3123 60.0802 89.9054 60.1055 89.5629 60.2859C89.3488 60.3544 89.0956 60.3421 88.9041 60.4915C88.9041 60.3887 88.8849 60.2879 88.8519 60.1912C88.9055 60.0185 88.8794 59.8217 88.8554 59.64C89.0153 59.4076 88.9466 59.1395 88.9748 58.8852C89.1079 58.8338 89.2232 58.7481 89.3289 58.6534C89.6192 58.6322 89.9314 58.4923 90.0611 58.2263C90.2272 58.1461 90.3967 58.0961 90.5573 58.0021C90.709 58.0049 90.8593 57.9781 90.9835 57.8849C91.2402 57.8444 91.49 57.8753 91.7412 57.8108C91.8709 57.8547 92.0081 57.8787 92.1461 57.8732C92.2353 58.0295 92.3794 58.1166 92.5537 58.0858L92.5565 58.0865ZM96.4243 35.5714C96.4504 35.596 96.4779 35.6194 96.5067 35.6406C96.5286 35.7434 96.5582 35.8456 96.5877 35.9464C96.622 36.0869 96.6453 36.2261 96.67 36.3728C96.5822 36.1185 96.5197 35.8291 96.4243 35.5714Z" fill="#130D0C"/>
<path d="M69.9345 19.9299C69.9345 19.9308 69.9354 19.9326 69.9354 19.9335C69.9354 19.9326 69.9336 19.9308 69.9336 19.9299H69.9345Z" fill="#130D0C"/>
<path d="M73.0677 70.8666C72.6683 70.5464 71.8613 70.2975 71.5868 70.8817C71.3685 70.9578 71.0425 70.8316 70.9121 71.0764C70.6514 71.0702 70.3789 71.1861 70.2869 71.4411C70.2327 71.4555 70.1792 71.4747 70.1263 71.496C69.6926 71.3403 69.7345 71.5974 69.3975 71.6783C69.2102 71.5755 69.0187 71.5926 68.8684 71.7332C68.7586 71.7688 68.6344 71.7565 68.5328 71.8216C68.3702 71.7949 68.2233 71.8806 68.0579 71.8881C67.9213 71.8943 67.7992 71.9574 67.6853 72.0369C67.3099 72.078 66.9722 71.8662 66.5954 71.9992C66.4239 71.8792 66.2427 71.8854 66.0807 71.9992C65.7191 72.0643 65.3759 71.9135 65.0177 71.9642C64.89 71.8833 64.726 71.8237 64.5771 71.8669C64.398 71.7771 64.2168 71.8758 64.0288 71.8689C63.9862 71.8676 63.9443 71.8724 63.9032 71.8813C63.6218 71.7298 63.2587 71.4761 62.9355 71.6303C62.5436 71.6886 62.2039 71.4425 61.8649 71.3136C61.7915 71.1833 61.6563 71.1717 61.5266 71.1539C61.3296 71.0126 61.1025 70.9578 60.8849 70.8549C60.7188 70.5882 60.5184 70.7521 60.305 70.6294C59.8301 70.3956 58.9921 71.0894 59.0251 71.5748C58.9853 72.1048 59.2742 72.9282 59.933 72.7719C60.3126 73.0358 60.2988 73.0955 60.7881 73.1167H60.7888C61.0695 73.2072 61.3173 73.3841 61.6233 73.4109C61.8347 73.6097 62.1085 73.6357 62.3803 73.6782C62.6294 73.766 62.8401 74.0443 63.1181 73.8318C63.3171 73.8846 63.5072 73.971 63.7131 73.9422C63.875 73.9648 64.0027 74.1348 64.1708 74.106C64.2985 74.0485 64.4192 74.0759 64.551 74.1026C64.6862 74.1369 64.831 74.117 64.9717 74.0855C65.214 74.1726 65.4864 74.2096 65.7362 74.1307C66.0993 74.3707 66.3367 74.1616 66.6847 74.0711C66.9297 74.141 67.1898 74.176 67.4402 74.1129C67.6708 74.1801 67.7854 74.104 67.9803 73.9929C68.2459 74.1239 68.5307 74.0005 68.7819 73.8873C69.0256 73.9998 69.3289 73.9964 69.5156 73.79C69.6096 73.7968 69.6707 73.7845 69.7468 73.7441C70.0076 73.8345 70.3322 73.8133 70.4983 73.574C70.6905 73.5473 70.8614 73.4513 71.0171 73.3395C71.2182 73.3553 71.5078 73.3944 71.6163 73.186C71.842 73.1873 72.1028 73.114 72.2099 72.9021C72.2614 72.8775 72.3348 72.8322 72.3918 72.7979C72.9621 72.8425 72.7747 72.6766 73.1123 72.4551C73.577 72.1932 73.4864 71.1244 73.0677 70.8659V70.8666Z" fill="#130D0C"/>
</svg>
